<?xml version="1.0" encoding="UTF-8" standalone="no"?>
<!-- Created with Inkscape (http://www.inkscape.org/) -->

<svg
   width="40mm"
   height="40mm"
   viewBox="0 0 40 40"
   version="1.1"
   id="svg1"
   inkscape:version="1.3 (0e150ed6c4, 2023-07-21)"
   sodipodi:docname="1024_v2.svg"
   xmlns:inkscape="http://www.inkscape.org/namespaces/inkscape"
   xmlns:sodipodi="http://sodipodi.sourceforge.net/DTD/sodipodi-0.dtd"
   xmlns="http://www.w3.org/2000/svg"
   xmlns:svg="http://www.w3.org/2000/svg">
  <sodipodi:namedview
     id="namedview1"
     pagecolor="#ffffff"
     bordercolor="#666666"
     borderopacity="1.0"
     inkscape:showpageshadow="2"
     inkscape:pageopacity="0.0"
     inkscape:pagecheckerboard="0"
     inkscape:deskcolor="#d1d1d1"
     inkscape:document-units="mm"
     inkscape:zoom="5.6568543"
     inkscape:cx="133.28963"
     inkscape:cy="13.081475"
     inkscape:window-width="2560"
     inkscape:window-height="1361"
     inkscape:window-x="1911"
     inkscape:window-y="-9"
     inkscape:window-maximized="1"
     inkscape:current-layer="layer1"
     showgrid="true">
    <inkscape:grid
       id="grid1"
       units="mm"
       originx="0"
       originy="0"
       spacingx="1"
       spacingy="1"
       empcolor="#0099e5"
       empopacity="0.30196078"
       color="#0099e5"
       opacity="0.14901961"
       empspacing="5"
       dotted="false"
       gridanglex="30"
       gridanglez="30"
       visible="true" />
  </sodipodi:namedview>
  <defs
     id="defs1" />
  <g
     inkscape:label="Layer 1"
     inkscape:groupmode="layer"
     id="layer1">
    <path
       style="fill:none;stroke:#808080;stroke-width:0.1;stroke-linecap:butt;stroke-linejoin:miter;stroke-dasharray:none;stroke-opacity:1"
       d="M 33.000001,1 V 25.000001"
       id="path156"
       sodipodi:nodetypes="cc" />
    <path
       style="fill:none;stroke:#000000;stroke-width:0.1;stroke-linecap:butt;stroke-linejoin:miter;stroke-dasharray:none;stroke-opacity:1"
       d="M 4.9999999,1 V 25.000001"
       id="path5"
       sodipodi:nodetypes="cc" />
    <path
       style="fill:none;stroke:#808080;stroke-width:0.1;stroke-linecap:butt;stroke-linejoin:miter;stroke-dasharray:none;stroke-opacity:1"
       d="M 20.999999,1 V 25.000001"
       id="path10"
       sodipodi:nodetypes="cc" />
    <path
       style="fill:none;stroke:#808080;stroke-width:0.1;stroke-linecap:butt;stroke-linejoin:miter;stroke-dasharray:none;stroke-opacity:1"
       d="M 24.999999,1 V 25.000001"
       id="path11-9"
       sodipodi:nodetypes="cc" />
    <path
       style="fill:none;stroke:#808080;stroke-width:0.1;stroke-linecap:butt;stroke-linejoin:miter;stroke-dasharray:none;stroke-opacity:1"
       d="M 1,25.000001 H 37.000001"
       id="path62"
       sodipodi:nodetypes="cc" />
    <path
       style="fill:none;stroke:#000000;stroke-width:0.1;stroke-linecap:butt;stroke-linejoin:miter;stroke-dasharray:none;stroke-opacity:1"
       d="M 1,4.999995 H 37.000001"
       id="path4"
       sodipodi:nodetypes="cc" />
    <path
       style="fill:none;stroke:#808080;stroke-width:0.1;stroke-linecap:butt;stroke-linejoin:miter;stroke-dasharray:none;stroke-opacity:1"
       d="M 28.999999,1 V 25.000001"
       id="path6"
       sodipodi:nodetypes="cc" />
    <path
       style="fill:none;stroke:#808080;stroke-width:0.1;stroke-linecap:butt;stroke-linejoin:miter;stroke-dasharray:none;stroke-opacity:1"
       d="M 8.9999995,1 V 25.000001"
       id="path7"
       sodipodi:nodetypes="cc" />
    <path
       style="fill:none;stroke:#808080;stroke-width:0.1;stroke-linecap:butt;stroke-linejoin:miter;stroke-dasharray:none;stroke-opacity:1"
       d="M 13,1 V 25.000001"
       id="path8"
       sodipodi:nodetypes="cc" />
    <path
       style="fill:none;stroke:#808080;stroke-width:0.1;stroke-linecap:butt;stroke-linejoin:miter;stroke-dasharray:none;stroke-opacity:1"
       d="M 16.999999,1 V 25.000001"
       id="path9"
       sodipodi:nodetypes="cc" />
    <path
       style="fill:none;stroke:#808080;stroke-width:0.1;stroke-linecap:butt;stroke-linejoin:miter;stroke-dasharray:none;stroke-opacity:1"
       d="M 1,8.999995 H 37.000001"
       id="path12"
       sodipodi:nodetypes="cc" />
    <path
       style="fill:none;stroke:#808080;stroke-width:0.1;stroke-linecap:butt;stroke-linejoin:miter;stroke-dasharray:none;stroke-opacity:1"
       d="M 1,12.999995 H 37.000001"
       id="path13"
       sodipodi:nodetypes="cc" />
    <path
       style="fill:none;stroke:#808080;stroke-width:0.1;stroke-linecap:butt;stroke-linejoin:miter;stroke-dasharray:none;stroke-opacity:1"
       d="M 1,16.999995 H 37.000001"
       id="path14"
       sodipodi:nodetypes="cc" />
    <path
       style="fill:none;stroke:#808080;stroke-width:0.1;stroke-linecap:butt;stroke-linejoin:miter;stroke-dasharray:none;stroke-opacity:1"
       d="M 1,20.999995 H 37.000001"
       id="path15"
       sodipodi:nodetypes="cc" />
    <path
       style="fill:none;stroke:#808080;stroke-width:0.1;stroke-linecap:butt;stroke-linejoin:miter;stroke-dasharray:none;stroke-opacity:1"
       d="M 1,1 H 37.000001"
       id="path95-6"
       sodipodi:nodetypes="cc" />
    <path
       style="fill:none;stroke:#808080;stroke-width:0.1;stroke-linecap:butt;stroke-linejoin:miter;stroke-dasharray:none;stroke-opacity:1"
       d="M 1,1 V 25.000001"
       id="path410"
       sodipodi:nodetypes="cc" />
    <text
       xml:space="preserve"
       style="font-size:0.705556px;line-height:1.25;font-family:Caladea;-inkscape-font-specification:Caladea;font-variant-ligatures:none;text-align:end;text-anchor:end;stroke-width:0.264583"
       x="5.3576012"
       y="0.94379884"
       id="text410"><tspan
         sodipodi:role="line"
         id="tspan410"
         style="font-style:normal;font-variant:normal;font-weight:normal;font-stretch:normal;font-size:0.705556px;font-family:Consolas;-inkscape-font-specification:Consolas;stroke-width:0.264583"
         x="5.3576012"
         y="0.94379884">0</tspan></text>
    <text
       xml:space="preserve"
       style="font-size:0.705556px;line-height:1.25;font-family:Caladea;-inkscape-font-specification:Caladea;font-variant-ligatures:none;text-align:end;text-anchor:end;stroke-width:0.264583"
       x="9.3576012"
       y="0.94379884"
       id="text411"><tspan
         sodipodi:role="line"
         id="tspan411"
         style="font-style:normal;font-variant:normal;font-weight:normal;font-stretch:normal;font-size:0.705556px;font-family:Consolas;-inkscape-font-specification:Consolas;stroke-width:0.264583"
         x="9.3576012"
         y="0.94379884">4</tspan></text>
    <text
       xml:space="preserve"
       style="font-size:0.705556px;line-height:1.25;font-family:Caladea;-inkscape-font-specification:Caladea;font-variant-ligatures:none;text-align:end;text-anchor:end;stroke-width:0.264583"
       x="13.373104"
       y="0.94379884"
       id="text412"><tspan
         sodipodi:role="line"
         id="tspan412"
         style="font-style:normal;font-variant:normal;font-weight:normal;font-stretch:normal;font-size:0.705556px;font-family:Consolas;-inkscape-font-specification:Consolas;stroke-width:0.264583"
         x="13.373104"
         y="0.94379884">8</tspan></text>
    <text
       xml:space="preserve"
       style="font-size:0.705556px;line-height:1.25;font-family:Caladea;-inkscape-font-specification:Caladea;font-variant-ligatures:none;text-align:end;text-anchor:end;stroke-width:0.264583"
       x="17.729328"
       y="0.94379884"
       id="text413"><tspan
         sodipodi:role="line"
         id="tspan413"
         style="font-style:normal;font-variant:normal;font-weight:normal;font-stretch:normal;font-size:0.705556px;font-family:Consolas;-inkscape-font-specification:Consolas;stroke-width:0.264583"
         x="17.729328"
         y="0.94379884">12</tspan></text>
    <text
       xml:space="preserve"
       style="font-size:0.705556px;line-height:1.25;font-family:Caladea;-inkscape-font-specification:Caladea;font-variant-ligatures:none;text-align:end;text-anchor:end;stroke-width:0.264583"
       x="21.729328"
       y="0.94379884"
       id="text414"><tspan
         sodipodi:role="line"
         id="tspan414"
         style="font-style:normal;font-variant:normal;font-weight:normal;font-stretch:normal;font-size:0.705556px;font-family:Consolas;-inkscape-font-specification:Consolas;stroke-width:0.264583"
         x="21.729328"
         y="0.94379884">16</tspan></text>
    <text
       xml:space="preserve"
       style="font-size:0.705556px;line-height:1.25;font-family:Caladea;-inkscape-font-specification:Caladea;font-variant-ligatures:none;text-align:end;text-anchor:end;stroke-width:0.264583"
       x="25.729328"
       y="0.94379884"
       id="text415"><tspan
         sodipodi:role="line"
         id="tspan415"
         style="font-style:normal;font-variant:normal;font-weight:normal;font-stretch:normal;font-size:0.705556px;font-family:Consolas;-inkscape-font-specification:Consolas;stroke-width:0.264583"
         x="25.729328"
         y="0.94379884">20</tspan></text>
    <text
       xml:space="preserve"
       style="font-size:0.705556px;line-height:1.25;font-family:Caladea;-inkscape-font-specification:Caladea;font-variant-ligatures:none;text-align:end;text-anchor:end;stroke-width:0.264583"
       x="0.96825904"
       y="9"
       id="text416"><tspan
         sodipodi:role="line"
         id="tspan416"
         style="font-style:normal;font-variant:normal;font-weight:normal;font-stretch:normal;font-size:0.705556px;font-family:Consolas;-inkscape-font-specification:Consolas;stroke-width:0.264583"
         x="0.96825904"
         y="9">4</tspan></text>
    <text
       xml:space="preserve"
       style="font-size:0.705556px;line-height:1.25;font-family:Caladea;-inkscape-font-specification:Caladea;font-variant-ligatures:none;text-align:end;text-anchor:end;stroke-width:0.264583"
       x="0.99065214"
       y="12.993804"
       id="text417"><tspan
         sodipodi:role="line"
         id="tspan417"
         style="font-style:normal;font-variant:normal;font-weight:normal;font-stretch:normal;font-size:0.705556px;font-family:Consolas;-inkscape-font-specification:Consolas;stroke-width:0.264583"
         x="0.99065214"
         y="12.993804">8</tspan></text>
    <text
       xml:space="preserve"
       style="font-size:0.705556px;line-height:1.25;font-family:Caladea;-inkscape-font-specification:Caladea;font-variant-ligatures:none;text-align:end;text-anchor:end;stroke-width:0.264583"
       x="4.9906521"
       y="17.000006"
       id="text418"><tspan
         sodipodi:role="line"
         id="tspan418"
         style="font-style:normal;font-variant:normal;font-weight:normal;font-stretch:normal;font-size:0.705556px;font-family:Consolas;-inkscape-font-specification:Consolas;stroke-width:0.264583"
         x="4.9906521"
         y="17.000006">12</tspan></text>
    <text
       xml:space="preserve"
       style="font-size:0.705556px;line-height:1.25;font-family:Caladea;-inkscape-font-specification:Caladea;font-variant-ligatures:none;text-align:end;text-anchor:end;stroke-width:0.264583"
       x="0.99065214"
       y="21.000006"
       id="text419"><tspan
         sodipodi:role="line"
         id="tspan419"
         style="font-style:normal;font-variant:normal;font-weight:normal;font-stretch:normal;font-size:0.705556px;font-family:Consolas;-inkscape-font-specification:Consolas;stroke-width:0.264583"
         x="0.99065214"
         y="21.000006">16</tspan></text>
    <text
       xml:space="preserve"
       style="font-size:0.705556px;line-height:1.25;font-family:Caladea;-inkscape-font-specification:Caladea;font-variant-ligatures:none;text-align:end;text-anchor:end;stroke-width:0.264583"
       x="0.98031682"
       y="24.993805"
       id="text420"><tspan
         sodipodi:role="line"
         id="tspan420"
         style="font-style:normal;font-variant:normal;font-weight:normal;font-stretch:normal;font-size:0.705556px;font-family:Consolas;-inkscape-font-specification:Consolas;stroke-width:0.264583"
         x="0.98031682"
         y="24.993805">20</tspan></text>
    <path
       style="fill:none;stroke:#ff66ff;stroke-width:0.5;stroke-linecap:round;stroke-linejoin:round;stroke-dasharray:none;stroke-opacity:1"
       d="m 33.000001,17 -6,6.000001"
       id="path36"
       sodipodi:nodetypes="cc" />
    <path
       style="fill:none;stroke:#ffff00;stroke-width:0.5;stroke-linecap:round;stroke-linejoin:round;stroke-dasharray:none;stroke-opacity:1"
       d="m 24.999999,5.0000005 2.000002,1.9999997 V 11 L 25,13 11,7.0000002 8.9999993,8.9999949 11,11 16.999999,16.999995 23,23"
       id="path32"
       sodipodi:nodetypes="ccccccccc" />
    <path
       style="fill:none;stroke:#6666ff;stroke-width:0.5;stroke-linecap:round;stroke-linejoin:round;stroke-dasharray:none;stroke-opacity:1"
       d="M 24.999999,5.000001 23,7.0000002 V 11 l 2.000001,2 -8e-6,7.999995"
       id="path44" />
    <path
       style="fill:none;stroke:#66ff33;stroke-width:0.5;stroke-linecap:round;stroke-linejoin:round;stroke-dasharray:none;stroke-opacity:1"
       d="M 27.000001,7.0000002 24.999999,8.9999949 27.000009,11.000005 33.000001,17 39,23.00001"
       id="path37"
       sodipodi:nodetypes="ccccc" />
    <path
       style="fill:none;stroke:#ff66ff;stroke-width:0.5;stroke-linecap:round;stroke-linejoin:round;stroke-dasharray:none;stroke-opacity:1"
       d="M 7.0000002,7.0000002 8.9999993,8.9999946 7.0000002,11 1,17"
       id="path34"
       sodipodi:nodetypes="cccc" />
    <path
       style="fill:none;stroke:#ccffb3;stroke-width:0.5;stroke-linecap:round;stroke-linejoin:round;stroke-dasharray:none;stroke-opacity:1"
       d="M 9.0000003,5.0000001 11,7.0000002 V 11 l -1.9999997,2 -10e-7,7.999995"
       id="path43" />
    <path
       style="fill:none;stroke:#ff6666;stroke-width:0.5;stroke-linecap:round;stroke-linejoin:round;stroke-dasharray:none;stroke-opacity:1"
       d="M 23,7.0000002 24.999999,8.9999949 23,11 8.9999996,5.0000006 6.9999999,7.0000004 V 11 l 2,2 L 17,17 l 8.000001,4"
       id="path33"
       sodipodi:nodetypes="ccccccccc" />
    <path
       style="fill:none;stroke:#000000;stroke-width:0.1;stroke-linecap:butt;stroke-linejoin:miter;stroke-dasharray:none;stroke-opacity:1"
       d="m 24.999999,4.999995 v 16"
       id="path11" />
    <text
       xml:space="preserve"
       style="font-size:1.76389px;line-height:1.25;font-family:Caladea;-inkscape-font-specification:Caladea;font-variant-ligatures:none;text-align:end;text-anchor:end;stroke-width:0.264583"
       x="34.068764"
       y="34.984737"
       id="text22"><tspan
         sodipodi:role="line"
         id="tspan22"
         style="font-style:normal;font-variant:normal;font-weight:normal;font-stretch:normal;font-size:1.76389px;font-family:Consolas;-inkscape-font-specification:Consolas;stroke-width:0.264583"
         x="34.068764"
         y="34.984737">Path 0:</tspan></text>
    <rect
       style="fill:#ff6666;fill-opacity:1;stroke:#000000;stroke-width:0.0999998;stroke-linecap:round;stroke-linejoin:round;stroke-dasharray:none"
       id="rect22"
       width="1.1320002"
       height="1.132"
       x="34.29567"
       y="33.818001" />
    <rect
       style="fill:#6666ff;fill-opacity:1;stroke:#000000;stroke-width:0.0999998;stroke-linecap:round;stroke-linejoin:round;stroke-dasharray:none"
       id="rect23"
       width="1.1320002"
       height="1.132"
       x="36.056835"
       y="33.818001" />
    <text
       xml:space="preserve"
       style="font-size:1.76389px;line-height:1.25;font-family:Caladea;-inkscape-font-specification:Caladea;font-variant-ligatures:none;text-align:end;text-anchor:end;stroke-width:0.264583"
       x="34.068764"
       y="36.984737"
       id="text23"><tspan
         sodipodi:role="line"
         id="tspan23"
         style="font-style:normal;font-variant:normal;font-weight:normal;font-stretch:normal;font-size:1.76389px;font-family:Consolas;-inkscape-font-specification:Consolas;stroke-width:0.264583"
         x="34.068764"
         y="36.984737">Path 1:</tspan></text>
    <rect
       style="fill:#ffff00;fill-opacity:1;stroke:#000000;stroke-width:0.0999998;stroke-linecap:round;stroke-linejoin:round;stroke-dasharray:none"
       id="rect24"
       width="1.1320002"
       height="1.132"
       x="37.818001"
       y="33.818001" />
    <rect
       style="fill:#ff66ff;fill-opacity:1;stroke:#000000;stroke-width:0.0999998;stroke-linecap:round;stroke-linejoin:round;stroke-dasharray:none"
       id="rect25"
       width="1.1320002"
       height="1.132"
       x="34.29567"
       y="35.817516" />
    <rect
       style="fill:#66ff33;fill-opacity:1;stroke:#000000;stroke-width:0.0999998;stroke-linecap:round;stroke-linejoin:round;stroke-dasharray:none"
       id="rect26"
       width="1.1320002"
       height="1.132"
       x="36.056835"
       y="35.817516" />
    <rect
       style="fill:#ccffb3;fill-opacity:1;stroke:#000000;stroke-width:0.0999998;stroke-linecap:round;stroke-linejoin:round;stroke-dasharray:none"
       id="rect27"
       width="1.1320002"
       height="1.132"
       x="34.29567"
       y="37.817036" />
    <text
       xml:space="preserve"
       style="font-size:1.76389px;line-height:1.25;font-family:Caladea;-inkscape-font-specification:Caladea;font-variant-ligatures:none;text-align:end;text-anchor:end;stroke-width:0.264583"
       x="34.068764"
       y="38.984737"
       id="text41"><tspan
         sodipodi:role="line"
         id="tspan41"
         style="font-style:normal;font-variant:normal;font-weight:normal;font-stretch:normal;font-size:1.76389px;font-family:Consolas;-inkscape-font-specification:Consolas;stroke-width:0.264583"
         x="34.068764"
         y="38.984737">Path 2:</tspan></text>
    <g
       id="g78"
       transform="translate(-2.0000001,5.0000002)">
      <g
         id="g77"
         transform="translate(-9.9998875,-4.0002537)">
        <g
           id="g76"
           transform="rotate(45)">
          <path
             style="color:#000000;fill:#ffffff;stroke-linecap:round;stroke-linejoin:round;-inkscape-stroke:none"
             d="m 29.800649,-20.506098 a 0.80927002,0.80926943 0 0 1 -0.80927,0.80927 0.80927002,0.80926943 0 0 1 -0.80927,-0.80927 0.80927002,0.80926943 0 0 1 0.80927,-0.809269 0.80927002,0.80926943 0 0 1 0.80927,0.809269 z"
             id="path75" />
          <path
             id="path76"
             style="color:#000000;fill:#000000;stroke-linecap:round;stroke-linejoin:round;-inkscape-stroke:none"
             d="m 28.372801,-21.124576 c -0.102732,0.102416 -0.17984,0.230424 -0.221803,0.373081 a 0.25,0.25 0 0 0 -0.145067,0.06906 0.25,0.25 0 0 0 -0.07199,0.176492 0.25,0.25 0 0 0 0.216321,0.245554 c 0.08384,0.285448 0.309833,0.510623 0.595615,0.594152 a 0.25,0.25 0 0 0 0.245919,0.218149 0.25,0.25 0 0 0 0.245554,-0.217783 c 0.285597,-0.08339 0.510935,-0.308925 0.594518,-0.594518 a 0.25,0.25 0 0 0 0.217783,-0.245554 0.25,0.25 0 0 0 -0.218514,-0.247747 c -0.08392,-0.283663 -0.307915,-0.507833 -0.591595,-0.591594 a 0.25,0.25 0 0 0 -0.247746,-0.218514 0.25,0.25 0 0 0 -0.176492,0.07199 0.25,0.25 0 0 0 -0.06943,0.146894 c -0.142598,0.04171 -0.270473,0.118047 -0.373081,0.220341 z m 0.09318,0.09245 c 0.134634,-0.134635 0.320589,-0.217783 0.526186,-0.217783 0.411199,0 0.742143,0.333138 0.742143,0.744335 0,0.411199 -0.330943,0.742143 -0.742143,0.742143 -0.411197,0 -0.743969,-0.331311 -0.743969,-0.742508 0,-0.2056 0.08315,-0.391552 0.217783,-0.526187 z" />
        </g>
      </g>
      <text
         xml:space="preserve"
         style="font-size:1.05833px;line-height:1.25;font-family:Caladea;-inkscape-font-specification:Caladea;font-variant-ligatures:none;text-align:end;text-anchor:end;stroke-width:0.264583"
         x="25.291052"
         y="2.3374507"
         id="text77"><tspan
           sodipodi:role="line"
           id="tspan77"
           style="font-style:normal;font-variant:normal;font-weight:bold;font-stretch:normal;font-size:1.05833px;font-family:Consolas;-inkscape-font-specification:'Consolas Bold';stroke-width:0.264583"
           x="25.291052"
           y="2.3374507">0</tspan></text>
    </g>
    <g
       id="g81"
       transform="translate(1.137417e-4,5.0000002)">
      <g
         id="g80"
         transform="translate(-8.0000012,-4.0002537)">
        <g
           id="g79"
           transform="rotate(45)">
          <path
             style="color:#000000;fill:#ffffff;stroke-linecap:round;stroke-linejoin:round;-inkscape-stroke:none"
             d="m 29.800649,-20.506098 a 0.80927002,0.80926943 0 0 1 -0.80927,0.80927 0.80927002,0.80926943 0 0 1 -0.80927,-0.80927 0.80927002,0.80926943 0 0 1 0.80927,-0.809269 0.80927002,0.80926943 0 0 1 0.80927,0.809269 z"
             id="path78" />
          <path
             id="path79"
             style="color:#000000;fill:#000000;stroke-linecap:round;stroke-linejoin:round;-inkscape-stroke:none"
             d="m 28.372801,-21.124576 c -0.102732,0.102416 -0.17984,0.230424 -0.221803,0.373081 a 0.25,0.25 0 0 0 -0.145067,0.06906 0.25,0.25 0 0 0 -0.07199,0.176492 0.25,0.25 0 0 0 0.216321,0.245554 c 0.08384,0.285448 0.309833,0.510623 0.595615,0.594152 a 0.25,0.25 0 0 0 0.245919,0.218149 0.25,0.25 0 0 0 0.245554,-0.217783 c 0.285597,-0.08339 0.510935,-0.308925 0.594518,-0.594518 a 0.25,0.25 0 0 0 0.217783,-0.245554 0.25,0.25 0 0 0 -0.218514,-0.247747 c -0.08392,-0.283663 -0.307915,-0.507833 -0.591595,-0.591594 a 0.25,0.25 0 0 0 -0.247746,-0.218514 0.25,0.25 0 0 0 -0.176492,0.07199 0.25,0.25 0 0 0 -0.06943,0.146894 c -0.142598,0.04171 -0.270473,0.118047 -0.373081,0.220341 z m 0.09318,0.09245 c 0.134634,-0.134635 0.320589,-0.217783 0.526186,-0.217783 0.411199,0 0.742143,0.333138 0.742143,0.744335 0,0.411199 -0.330943,0.742143 -0.742143,0.742143 -0.411197,0 -0.743969,-0.331311 -0.743969,-0.742508 0,-0.2056 0.08315,-0.391552 0.217783,-0.526187 z" />
        </g>
      </g>
      <text
         xml:space="preserve"
         style="font-size:1.05833px;line-height:1.25;font-family:Caladea;-inkscape-font-specification:Caladea;font-variant-ligatures:none;text-align:end;text-anchor:end;stroke-width:0.264583"
         x="27.581875"
         y="2.3377044"
         id="text80"><tspan
           sodipodi:role="line"
           id="tspan80"
           style="font-style:normal;font-variant:normal;font-weight:bold;font-stretch:normal;font-size:1.05833px;font-family:Consolas;-inkscape-font-specification:'Consolas Bold';stroke-width:0.264583"
           x="27.581875"
           y="2.3377044">10</tspan></text>
    </g>
    <g
       id="g86"
       transform="translate(-6.0018759,2.999995)">
      <g
         id="g85"
         transform="matrix(-0.70710678,0.70710678,0.70710678,0.70710678,66.051988,-4.0001553)">
        <path
           style="color:#000000;fill:#ffffff;stroke-linecap:round;stroke-linejoin:round;-inkscape-stroke:none"
           d="m 29.800649,-20.506098 a 0.80927002,0.80926943 0 0 1 -0.80927,0.80927 0.80927002,0.80926943 0 0 1 -0.80927,-0.80927 0.80927002,0.80926943 0 0 1 0.80927,-0.809269 0.80927002,0.80926943 0 0 1 0.80927,0.809269 z"
           id="path84" />
        <path
           id="path85"
           style="color:#000000;fill:#000000;stroke-linecap:round;stroke-linejoin:round;-inkscape-stroke:none"
           d="m 27.933705,-20.488643 c 0.0017,0.01808 0.0053,0.03593 0.01085,0.05323 6.09e-4,0.0036 0.0013,0.0072 0.0021,0.01085 0.03124,0.0878 0.108718,0.150946 0.201021,0.163814 8.6e-4,1.77e-4 0.0017,3.49e-4 0.0026,5.17e-4 0.08373,0.28508 0.309537,0.50946 0.594796,0.593245 0.01147,0.09579 0.07703,0.176442 0.168465,0.207223 0.02392,0.0075 0.04883,0.01131 0.0739,0.01137 0.0015,1.87e-4 0.0031,3.59e-4 0.0047,5.16e-4 0.0043,-5.76e-4 0.0086,-0.0013 0.01292,-0.0021 0.01762,-7.35e-4 0.03512,-0.0033 0.05219,-0.0078 0.0052,-0.0017 0.0104,-0.0036 0.0155,-0.0057 0.01678,-0.0058 0.03289,-0.01347 0.04806,-0.02274 0.0044,-0.0028 0.0087,-0.0057 0.01292,-0.0088 0.01593,-0.01119 0.0305,-0.02419 0.04341,-0.03876 0.0019,-0.002 0.0038,-0.0041 0.0057,-0.0062 0.01394,-0.017 0.02559,-0.03576 0.03462,-0.05581 5.22e-4,-8.58e-4 0.001,-0.0017 0.0016,-0.0026 0.0034,-0.0064 0.0065,-0.01296 0.0093,-0.01964 l 0.01654,-0.05064 c 0.282077,-0.0851 0.504185,-0.308577 0.587044,-0.591695 0.105633,-0.01471 0.190303,-0.09481 0.21084,-0.199471 0.0037,-0.01457 0.0062,-0.02944 0.0072,-0.04444 3e-6,-6.89e-4 3e-6,-0.0014 0,-0.0021 0.0028,-0.03316 -0.0011,-0.06654 -0.01137,-0.09819 -0.03213,-0.09255 -0.115363,-0.157799 -0.212907,-0.166915 -0.08783,-0.275086 -0.307982,-0.492014 -0.585494,-0.574125 -0.0054,-0.102395 -0.07282,-0.191097 -0.170016,-0.223759 -0.131128,-0.04249 -0.271908,0.02917 -0.314709,0.160197 l -0.02274,0.06821 c -0.13716,0.0425 -0.260314,0.116957 -0.359668,0.216007 -0.100465,0.100157 -0.176542,0.224928 -0.219108,0.363802 l -0.05271,0.01809 c -0.03101,0.01136 -0.05946,0.02875 -0.08372,0.05116 -0.0039,0.003 -0.0077,0.0061 -0.01137,0.0093 -8.7e-4,0.001 -0.0017,0.0021 -0.0026,0.0031 -0.01129,0.01223 -0.02133,0.02556 -0.02997,0.03979 -0.0029,0.0042 -0.0056,0.0085 -0.0083,0.01292 -0.0076,0.01435 -0.01388,0.0294 -0.0186,0.04496 -0.0019,0.0051 -0.0036,0.01028 -0.0052,0.0155 -0.0036,0.01561 -0.0057,0.03153 -0.0062,0.04754 -6.29e-4,0.0043 -0.0011,0.0086 -0.0016,0.01292 1.57e-4,0.0016 3.29e-4,0.0031 5.16e-4,0.0047 -2.75e-4,0.0041 -4.47e-4,0.0083 -5.16e-4,0.0124 z m 0.350366,0.211357 0.109554,-0.03824 -0.04444,0.134876 c -0.0032,0.01222 -0.0054,0.02465 -0.0067,0.03721 -0.02364,-0.04218 -0.04331,-0.08712 -0.05839,-0.133842 z m 0.03256,-0.540019 c 0.03699,-0.08045 0.08755,-0.153177 0.149345,-0.214974 0.06153,-0.06153 0.133998,-0.111828 0.21394,-0.148828 l -0.08888,0.268717 z m 0.312126,0.959631 c 0.01381,-0.0016 0.02747,-0.0044 0.04082,-0.0083 l 0.128674,-0.04444 -0.03669,0.110588 c -0.04647,-0.01503 -0.09085,-0.03445 -0.132808,-0.05788 z m 0.556555,-1.259871 0.03204,-0.09715 c 0.03962,0.0126 0.0778,0.02879 0.114205,0.04754 -0.0052,0.0012 -0.01038,0.0026 -0.0155,0.0041 z m 0.112655,1.288293 0.09457,-0.286804 0.28267,-0.09767 c -0.07281,0.170934 -0.208098,0.308267 -0.377237,0.384472 z m 0.291971,-0.883667 0.04444,-0.135392 c 0.002,-0.007 0.0038,-0.01405 0.0052,-0.02119 0.0214,0.03823 0.03979,0.07835 0.05426,0.120406 z"
           sodipodi:nodetypes="ccccccccccccccccccccccccccccccscccccccccccccccccccscccccccccccccccccccccc" />
      </g>
      <text
         xml:space="preserve"
         style="font-size:1.05833px;line-height:1.25;font-family:Caladea;-inkscape-font-specification:Caladea;font-variant-ligatures:none;text-align:end;text-anchor:end;fill:#ffffff;stroke-width:0.264583"
         x="31.290937"
         y="2.3377044"
         id="text85"><tspan
           sodipodi:role="line"
           id="tspan85"
           style="font-style:normal;font-variant:normal;font-weight:bold;font-stretch:normal;font-size:1.05833px;font-family:Consolas;-inkscape-font-specification:'Consolas Bold';fill:#ffffff;stroke-width:0.264583"
           x="31.290937"
           y="2.3377044">8</tspan></text>
    </g>
    <g
       id="g88"
       transform="translate(-5.9900154,7.0000002)">
      <g
         id="g87"
         transform="matrix(-0.70710678,0.70710678,0.70710678,0.70710678,66.051988,-4.0001553)">
        <path
           style="color:#000000;fill:#ffffff;stroke-linecap:round;stroke-linejoin:round;-inkscape-stroke:none"
           d="m 29.800649,-20.506098 a 0.80927002,0.80926943 0 0 1 -0.80927,0.80927 0.80927002,0.80926943 0 0 1 -0.80927,-0.80927 0.80927002,0.80926943 0 0 1 0.80927,-0.809269 0.80927002,0.80926943 0 0 1 0.80927,0.809269 z"
           id="path86" />
        <path
           id="path87"
           style="color:#000000;fill:#000000;stroke-linecap:round;stroke-linejoin:round;-inkscape-stroke:none"
           d="m 27.933705,-20.488643 c 0.0017,0.01808 0.0053,0.03593 0.01085,0.05323 6.09e-4,0.0036 0.0013,0.0072 0.0021,0.01085 0.03124,0.0878 0.108718,0.150946 0.201021,0.163814 8.6e-4,1.77e-4 0.0017,3.49e-4 0.0026,5.17e-4 0.08373,0.28508 0.309537,0.50946 0.594796,0.593245 0.01147,0.09579 0.07703,0.176442 0.168465,0.207223 0.02392,0.0075 0.04883,0.01131 0.0739,0.01137 0.0015,1.87e-4 0.0031,3.59e-4 0.0047,5.16e-4 0.0043,-5.76e-4 0.0086,-0.0013 0.01292,-0.0021 0.01762,-7.35e-4 0.03512,-0.0033 0.05219,-0.0078 0.0052,-0.0017 0.0104,-0.0036 0.0155,-0.0057 0.01678,-0.0058 0.03289,-0.01347 0.04806,-0.02274 0.0044,-0.0028 0.0087,-0.0057 0.01292,-0.0088 0.01593,-0.01119 0.0305,-0.02419 0.04341,-0.03876 0.0019,-0.002 0.0038,-0.0041 0.0057,-0.0062 0.01394,-0.017 0.02559,-0.03576 0.03462,-0.05581 5.22e-4,-8.58e-4 0.001,-0.0017 0.0016,-0.0026 0.0034,-0.0064 0.0065,-0.01296 0.0093,-0.01964 l 0.01654,-0.05064 c 0.282077,-0.0851 0.504185,-0.308577 0.587044,-0.591695 0.105633,-0.01471 0.190303,-0.09481 0.21084,-0.199471 0.0037,-0.01457 0.0062,-0.02944 0.0072,-0.04444 3e-6,-6.89e-4 3e-6,-0.0014 0,-0.0021 0.0028,-0.03316 -0.0011,-0.06654 -0.01137,-0.09819 -0.03213,-0.09255 -0.115363,-0.157799 -0.212907,-0.166915 -0.08783,-0.275086 -0.307982,-0.492014 -0.585494,-0.574125 -0.0054,-0.102395 -0.07282,-0.191097 -0.170016,-0.223759 -0.131128,-0.04249 -0.271908,0.02917 -0.314709,0.160197 l -0.02274,0.06821 c -0.13716,0.0425 -0.260314,0.116957 -0.359668,0.216007 -0.100465,0.100157 -0.176542,0.224928 -0.219108,0.363802 l -0.05271,0.01809 c -0.03101,0.01136 -0.05946,0.02875 -0.08372,0.05116 -0.0039,0.003 -0.0077,0.0061 -0.01137,0.0093 -8.7e-4,0.001 -0.0017,0.0021 -0.0026,0.0031 -0.01129,0.01223 -0.02133,0.02556 -0.02997,0.03979 -0.0029,0.0042 -0.0056,0.0085 -0.0083,0.01292 -0.0076,0.01435 -0.01388,0.0294 -0.0186,0.04496 -0.0019,0.0051 -0.0036,0.01028 -0.0052,0.0155 -0.0036,0.01561 -0.0057,0.03153 -0.0062,0.04754 -6.29e-4,0.0043 -0.0011,0.0086 -0.0016,0.01292 1.57e-4,0.0016 3.29e-4,0.0031 5.16e-4,0.0047 -2.75e-4,0.0041 -4.47e-4,0.0083 -5.16e-4,0.0124 z m 0.350366,0.211357 0.109554,-0.03824 -0.04444,0.134876 c -0.0032,0.01222 -0.0054,0.02465 -0.0067,0.03721 -0.02364,-0.04218 -0.04331,-0.08712 -0.05839,-0.133842 z m 0.03256,-0.540019 c 0.03699,-0.08045 0.08755,-0.153177 0.149345,-0.214974 0.06153,-0.06153 0.133998,-0.111828 0.21394,-0.148828 l -0.08888,0.268717 z m 0.312126,0.959631 c 0.01381,-0.0016 0.02747,-0.0044 0.04082,-0.0083 l 0.128674,-0.04444 -0.03669,0.110588 c -0.04647,-0.01503 -0.09085,-0.03445 -0.132808,-0.05788 z m 0.556555,-1.259871 0.03204,-0.09715 c 0.03962,0.0126 0.0778,0.02879 0.114205,0.04754 -0.0052,0.0012 -0.01038,0.0026 -0.0155,0.0041 z m 0.112655,1.288293 0.09457,-0.286804 0.28267,-0.09767 c -0.07281,0.170934 -0.208098,0.308267 -0.377237,0.384472 z m 0.291971,-0.883667 0.04444,-0.135392 c 0.002,-0.007 0.0038,-0.01405 0.0052,-0.02119 0.0214,0.03823 0.03979,0.07835 0.05426,0.120406 z"
           sodipodi:nodetypes="ccccccccccccccccccccccccccccccscccccccccccccccccccscccccccccccccccccccccc" />
      </g>
      <text
         xml:space="preserve"
         style="font-size:1.05833px;line-height:1.25;font-family:Caladea;-inkscape-font-specification:Caladea;font-variant-ligatures:none;text-align:end;text-anchor:end;fill:#ffffff;stroke-width:0.264583"
         x="31.290937"
         y="2.3377044"
         id="text87"><tspan
           sodipodi:role="line"
           id="tspan87"
           style="font-style:normal;font-variant:normal;font-weight:bold;font-stretch:normal;font-size:1.05833px;font-family:Consolas;-inkscape-font-specification:'Consolas Bold';fill:#ffffff;stroke-width:0.264583"
           x="31.290937"
           y="2.3377044">1</tspan></text>
    </g>
    <g
       id="g91"
       transform="translate(-2.0000001,9.0000003)">
      <g
         id="g90"
         transform="translate(-9.9998875,-4.0002537)">
        <g
           id="g89"
           transform="rotate(45)">
          <path
             style="color:#000000;fill:#ffffff;stroke-linecap:round;stroke-linejoin:round;-inkscape-stroke:none"
             d="m 29.800649,-20.506098 a 0.80927002,0.80926943 0 0 1 -0.80927,0.80927 0.80927002,0.80926943 0 0 1 -0.80927,-0.80927 0.80927002,0.80926943 0 0 1 0.80927,-0.809269 0.80927002,0.80926943 0 0 1 0.80927,0.809269 z"
             id="path88" />
          <path
             id="path89"
             style="color:#000000;fill:#000000;stroke-linecap:round;stroke-linejoin:round;-inkscape-stroke:none"
             d="m 28.372801,-21.124576 c -0.102732,0.102416 -0.17984,0.230424 -0.221803,0.373081 a 0.25,0.25 0 0 0 -0.145067,0.06906 0.25,0.25 0 0 0 -0.07199,0.176492 0.25,0.25 0 0 0 0.216321,0.245554 c 0.08384,0.285448 0.309833,0.510623 0.595615,0.594152 a 0.25,0.25 0 0 0 0.245919,0.218149 0.25,0.25 0 0 0 0.245554,-0.217783 c 0.285597,-0.08339 0.510935,-0.308925 0.594518,-0.594518 a 0.25,0.25 0 0 0 0.217783,-0.245554 0.25,0.25 0 0 0 -0.218514,-0.247747 c -0.08392,-0.283663 -0.307915,-0.507833 -0.591595,-0.591594 a 0.25,0.25 0 0 0 -0.247746,-0.218514 0.25,0.25 0 0 0 -0.176492,0.07199 0.25,0.25 0 0 0 -0.06943,0.146894 c -0.142598,0.04171 -0.270473,0.118047 -0.373081,0.220341 z m 0.09318,0.09245 c 0.134634,-0.134635 0.320589,-0.217783 0.526186,-0.217783 0.411199,0 0.742143,0.333138 0.742143,0.744335 0,0.411199 -0.330943,0.742143 -0.742143,0.742143 -0.411197,0 -0.743969,-0.331311 -0.743969,-0.742508 0,-0.2056 0.08315,-0.391552 0.217783,-0.526187 z" />
        </g>
      </g>
      <text
         xml:space="preserve"
         style="font-size:1.05833px;line-height:1.25;font-family:Caladea;-inkscape-font-specification:Caladea;font-variant-ligatures:none;text-align:end;text-anchor:end;stroke-width:0.264583"
         x="25.291052"
         y="2.3374507"
         id="text90"><tspan
           sodipodi:role="line"
           id="tspan90"
           style="font-style:normal;font-variant:normal;font-weight:bold;font-stretch:normal;font-size:1.05833px;font-family:Consolas;-inkscape-font-specification:'Consolas Bold';stroke-width:0.264583"
           x="25.291052"
           y="2.3374507">2</tspan></text>
    </g>
    <g
       id="g94"
       transform="translate(-1.3930302e-8,11)">
      <g
         id="g93"
         transform="translate(-9.9998875,-4.0002537)">
        <g
           id="g92"
           transform="rotate(45)">
          <path
             style="color:#000000;fill:#ffffff;stroke-linecap:round;stroke-linejoin:round;-inkscape-stroke:none"
             d="m 29.800649,-20.506098 a 0.80927002,0.80926943 0 0 1 -0.80927,0.80927 0.80927002,0.80926943 0 0 1 -0.80927,-0.80927 0.80927002,0.80926943 0 0 1 0.80927,-0.809269 0.80927002,0.80926943 0 0 1 0.80927,0.809269 z"
             id="path91" />
          <path
             id="path92"
             style="color:#000000;fill:#000000;stroke-linecap:round;stroke-linejoin:round;-inkscape-stroke:none"
             d="m 28.372801,-21.124576 c -0.102732,0.102416 -0.17984,0.230424 -0.221803,0.373081 a 0.25,0.25 0 0 0 -0.145067,0.06906 0.25,0.25 0 0 0 -0.07199,0.176492 0.25,0.25 0 0 0 0.216321,0.245554 c 0.08384,0.285448 0.309833,0.510623 0.595615,0.594152 a 0.25,0.25 0 0 0 0.245919,0.218149 0.25,0.25 0 0 0 0.245554,-0.217783 c 0.285597,-0.08339 0.510935,-0.308925 0.594518,-0.594518 a 0.25,0.25 0 0 0 0.217783,-0.245554 0.25,0.25 0 0 0 -0.218514,-0.247747 c -0.08392,-0.283663 -0.307915,-0.507833 -0.591595,-0.591594 a 0.25,0.25 0 0 0 -0.247746,-0.218514 0.25,0.25 0 0 0 -0.176492,0.07199 0.25,0.25 0 0 0 -0.06943,0.146894 c -0.142598,0.04171 -0.270473,0.118047 -0.373081,0.220341 z m 0.09318,0.09245 c 0.134634,-0.134635 0.320589,-0.217783 0.526186,-0.217783 0.411199,0 0.742143,0.333138 0.742143,0.744335 0,0.411199 -0.330943,0.742143 -0.742143,0.742143 -0.411197,0 -0.743969,-0.331311 -0.743969,-0.742508 0,-0.2056 0.08315,-0.391552 0.217783,-0.526187 z" />
        </g>
      </g>
      <text
         xml:space="preserve"
         style="font-size:1.05833px;line-height:1.25;font-family:Caladea;-inkscape-font-specification:Caladea;font-variant-ligatures:none;text-align:end;text-anchor:end;stroke-width:0.264583"
         x="25.291052"
         y="2.3374507"
         id="text93"><tspan
           sodipodi:role="line"
           id="tspan93"
           style="font-style:normal;font-variant:normal;font-weight:bold;font-stretch:normal;font-size:1.05833px;font-family:Consolas;-inkscape-font-specification:'Consolas Bold';stroke-width:0.264583"
           x="25.291052"
           y="2.3374507">9</tspan></text>
    </g>
    <g
       id="g97"
       transform="translate(1.137417e-4,9.0000003)">
      <g
         id="g96"
         transform="translate(-8.0000012,-4.0002537)">
        <g
           id="g95"
           transform="rotate(45)">
          <path
             style="color:#000000;fill:#ffffff;stroke-linecap:round;stroke-linejoin:round;-inkscape-stroke:none"
             d="m 29.800649,-20.506098 a 0.80927002,0.80926943 0 0 1 -0.80927,0.80927 0.80927002,0.80926943 0 0 1 -0.80927,-0.80927 0.80927002,0.80926943 0 0 1 0.80927,-0.809269 0.80927002,0.80926943 0 0 1 0.80927,0.809269 z"
             id="path94" />
          <path
             id="path95"
             style="color:#000000;fill:#000000;stroke-linecap:round;stroke-linejoin:round;-inkscape-stroke:none"
             d="m 28.372801,-21.124576 c -0.102732,0.102416 -0.17984,0.230424 -0.221803,0.373081 a 0.25,0.25 0 0 0 -0.145067,0.06906 0.25,0.25 0 0 0 -0.07199,0.176492 0.25,0.25 0 0 0 0.216321,0.245554 c 0.08384,0.285448 0.309833,0.510623 0.595615,0.594152 a 0.25,0.25 0 0 0 0.245919,0.218149 0.25,0.25 0 0 0 0.245554,-0.217783 c 0.285597,-0.08339 0.510935,-0.308925 0.594518,-0.594518 a 0.25,0.25 0 0 0 0.217783,-0.245554 0.25,0.25 0 0 0 -0.218514,-0.247747 c -0.08392,-0.283663 -0.307915,-0.507833 -0.591595,-0.591594 a 0.25,0.25 0 0 0 -0.247746,-0.218514 0.25,0.25 0 0 0 -0.176492,0.07199 0.25,0.25 0 0 0 -0.06943,0.146894 c -0.142598,0.04171 -0.270473,0.118047 -0.373081,0.220341 z m 0.09318,0.09245 c 0.134634,-0.134635 0.320589,-0.217783 0.526186,-0.217783 0.411199,0 0.742143,0.333138 0.742143,0.744335 0,0.411199 -0.330943,0.742143 -0.742143,0.742143 -0.411197,0 -0.743969,-0.331311 -0.743969,-0.742508 0,-0.2056 0.08315,-0.391552 0.217783,-0.526187 z" />
        </g>
      </g>
      <text
         xml:space="preserve"
         style="font-size:1.05833px;line-height:1.25;font-family:Caladea;-inkscape-font-specification:Caladea;font-variant-ligatures:none;text-align:end;text-anchor:end;stroke-width:0.264583"
         x="27.581875"
         y="2.3377044"
         id="text96"><tspan
           sodipodi:role="line"
           id="tspan96"
           style="font-style:normal;font-variant:normal;font-weight:bold;font-stretch:normal;font-size:1.05833px;font-family:Consolas;-inkscape-font-specification:'Consolas Bold';stroke-width:0.264583"
           x="27.581875"
           y="2.3377044">11</tspan></text>
    </g>
    <g
       id="g100"
       transform="translate(-18.000001,5.0000002)">
      <g
         id="g99"
         transform="translate(-9.9998875,-4.0002537)">
        <g
           id="g98"
           transform="rotate(45)">
          <path
             style="color:#000000;fill:#ffffff;stroke-linecap:round;stroke-linejoin:round;-inkscape-stroke:none"
             d="m 29.800649,-20.506098 a 0.80927002,0.80926943 0 0 1 -0.80927,0.80927 0.80927002,0.80926943 0 0 1 -0.80927,-0.80927 0.80927002,0.80926943 0 0 1 0.80927,-0.809269 0.80927002,0.80926943 0 0 1 0.80927,0.809269 z"
             id="path97" />
          <path
             id="path98"
             style="color:#000000;fill:#000000;stroke-linecap:round;stroke-linejoin:round;-inkscape-stroke:none"
             d="m 28.372801,-21.124576 c -0.102732,0.102416 -0.17984,0.230424 -0.221803,0.373081 a 0.25,0.25 0 0 0 -0.145067,0.06906 0.25,0.25 0 0 0 -0.07199,0.176492 0.25,0.25 0 0 0 0.216321,0.245554 c 0.08384,0.285448 0.309833,0.510623 0.595615,0.594152 a 0.25,0.25 0 0 0 0.245919,0.218149 0.25,0.25 0 0 0 0.245554,-0.217783 c 0.285597,-0.08339 0.510935,-0.308925 0.594518,-0.594518 a 0.25,0.25 0 0 0 0.217783,-0.245554 0.25,0.25 0 0 0 -0.218514,-0.247747 c -0.08392,-0.283663 -0.307915,-0.507833 -0.591595,-0.591594 a 0.25,0.25 0 0 0 -0.247746,-0.218514 0.25,0.25 0 0 0 -0.176492,0.07199 0.25,0.25 0 0 0 -0.06943,0.146894 c -0.142598,0.04171 -0.270473,0.118047 -0.373081,0.220341 z m 0.09318,0.09245 c 0.134634,-0.134635 0.320589,-0.217783 0.526186,-0.217783 0.411199,0 0.742143,0.333138 0.742143,0.744335 0,0.411199 -0.330943,0.742143 -0.742143,0.742143 -0.411197,0 -0.743969,-0.331311 -0.743969,-0.742508 0,-0.2056 0.08315,-0.391552 0.217783,-0.526187 z" />
        </g>
      </g>
      <text
         xml:space="preserve"
         style="font-size:1.05833px;line-height:1.25;font-family:Caladea;-inkscape-font-specification:Caladea;font-variant-ligatures:none;text-align:end;text-anchor:end;stroke-width:0.264583"
         x="25.291052"
         y="2.3374507"
         id="text99"><tspan
           sodipodi:role="line"
           id="tspan99"
           style="font-style:normal;font-variant:normal;font-weight:bold;font-stretch:normal;font-size:1.05833px;font-family:Consolas;-inkscape-font-specification:'Consolas Bold';stroke-width:0.264583"
           x="25.291052"
           y="2.3374507">4</tspan></text>
    </g>
    <g
       id="g103"
       transform="translate(-16,3.0000001)">
      <g
         id="g102"
         transform="translate(-9.9998875,-4.0002537)">
        <g
           id="g101"
           transform="rotate(45)">
          <path
             style="color:#000000;fill:#ffffff;stroke-linecap:round;stroke-linejoin:round;-inkscape-stroke:none"
             d="m 29.800649,-20.506098 a 0.80927002,0.80926943 0 0 1 -0.80927,0.80927 0.80927002,0.80926943 0 0 1 -0.80927,-0.80927 0.80927002,0.80926943 0 0 1 0.80927,-0.809269 0.80927002,0.80926943 0 0 1 0.80927,0.809269 z"
             id="path100" />
          <path
             id="path101"
             style="color:#000000;fill:#000000;stroke-linecap:round;stroke-linejoin:round;-inkscape-stroke:none"
             d="m 28.372801,-21.124576 c -0.102732,0.102416 -0.17984,0.230424 -0.221803,0.373081 a 0.25,0.25 0 0 0 -0.145067,0.06906 0.25,0.25 0 0 0 -0.07199,0.176492 0.25,0.25 0 0 0 0.216321,0.245554 c 0.08384,0.285448 0.309833,0.510623 0.595615,0.594152 a 0.25,0.25 0 0 0 0.245919,0.218149 0.25,0.25 0 0 0 0.245554,-0.217783 c 0.285597,-0.08339 0.510935,-0.308925 0.594518,-0.594518 a 0.25,0.25 0 0 0 0.217783,-0.245554 0.25,0.25 0 0 0 -0.218514,-0.247747 c -0.08392,-0.283663 -0.307915,-0.507833 -0.591595,-0.591594 a 0.25,0.25 0 0 0 -0.247746,-0.218514 0.25,0.25 0 0 0 -0.176492,0.07199 0.25,0.25 0 0 0 -0.06943,0.146894 c -0.142598,0.04171 -0.270473,0.118047 -0.373081,0.220341 z m 0.09318,0.09245 c 0.134634,-0.134635 0.320589,-0.217783 0.526186,-0.217783 0.411199,0 0.742143,0.333138 0.742143,0.744335 0,0.411199 -0.330943,0.742143 -0.742143,0.742143 -0.411197,0 -0.743969,-0.331311 -0.743969,-0.742508 0,-0.2056 0.08315,-0.391552 0.217783,-0.526187 z" />
        </g>
      </g>
      <text
         xml:space="preserve"
         style="font-size:1.05833px;line-height:1.25;font-family:Caladea;-inkscape-font-specification:Caladea;font-variant-ligatures:none;text-align:end;text-anchor:end;stroke-width:0.264583"
         x="25.291052"
         y="2.3374507"
         id="text102"><tspan
           sodipodi:role="line"
           id="tspan102"
           style="font-style:normal;font-variant:normal;font-weight:bold;font-stretch:normal;font-size:1.05833px;font-family:Consolas;-inkscape-font-specification:'Consolas Bold';stroke-width:0.264583"
           x="25.291052"
           y="2.3374507">3</tspan></text>
    </g>
    <g
       id="g106"
       transform="translate(-15.999887,5.0000002)">
      <g
         id="g105"
         transform="translate(-8.0000012,-4.0002537)">
        <g
           id="g104"
           transform="rotate(45)">
          <path
             style="color:#000000;fill:#ffffff;stroke-linecap:round;stroke-linejoin:round;-inkscape-stroke:none"
             d="m 29.800649,-20.506098 a 0.80927002,0.80926943 0 0 1 -0.80927,0.80927 0.80927002,0.80926943 0 0 1 -0.80927,-0.80927 0.80927002,0.80926943 0 0 1 0.80927,-0.809269 0.80927002,0.80926943 0 0 1 0.80927,0.809269 z"
             id="path103" />
          <path
             id="path104"
             style="color:#000000;fill:#000000;stroke-linecap:round;stroke-linejoin:round;-inkscape-stroke:none"
             d="m 28.372801,-21.124576 c -0.102732,0.102416 -0.17984,0.230424 -0.221803,0.373081 a 0.25,0.25 0 0 0 -0.145067,0.06906 0.25,0.25 0 0 0 -0.07199,0.176492 0.25,0.25 0 0 0 0.216321,0.245554 c 0.08384,0.285448 0.309833,0.510623 0.595615,0.594152 a 0.25,0.25 0 0 0 0.245919,0.218149 0.25,0.25 0 0 0 0.245554,-0.217783 c 0.285597,-0.08339 0.510935,-0.308925 0.594518,-0.594518 a 0.25,0.25 0 0 0 0.217783,-0.245554 0.25,0.25 0 0 0 -0.218514,-0.247747 c -0.08392,-0.283663 -0.307915,-0.507833 -0.591595,-0.591594 a 0.25,0.25 0 0 0 -0.247746,-0.218514 0.25,0.25 0 0 0 -0.176492,0.07199 0.25,0.25 0 0 0 -0.06943,0.146894 c -0.142598,0.04171 -0.270473,0.118047 -0.373081,0.220341 z m 0.09318,0.09245 c 0.134634,-0.134635 0.320589,-0.217783 0.526186,-0.217783 0.411199,0 0.742143,0.333138 0.742143,0.744335 0,0.411199 -0.330943,0.742143 -0.742143,0.742143 -0.411197,0 -0.743969,-0.331311 -0.743969,-0.742508 0,-0.2056 0.08315,-0.391552 0.217783,-0.526187 z" />
        </g>
      </g>
      <text
         xml:space="preserve"
         style="font-size:1.05833px;line-height:1.25;font-family:Caladea;-inkscape-font-specification:Caladea;font-variant-ligatures:none;text-align:end;text-anchor:end;stroke-width:0.264583"
         x="27.581875"
         y="2.3377044"
         id="text105"><tspan
           sodipodi:role="line"
           id="tspan105"
           style="font-style:normal;font-variant:normal;font-weight:bold;font-stretch:normal;font-size:1.05833px;font-family:Consolas;-inkscape-font-specification:'Consolas Bold';stroke-width:0.264583"
           x="27.581875"
           y="2.3377044">12</tspan></text>
    </g>
    <g
       id="g108"
       transform="translate(-20.000001,7.0000002)">
      <g
         id="g107"
         transform="matrix(-0.70710678,0.70710678,0.70710678,0.70710678,64.000114,-4.0001553)">
        <path
           style="color:#000000;fill:#ffffff;stroke-linecap:round;stroke-linejoin:round;-inkscape-stroke:none"
           d="m 29.800649,-20.506098 a 0.80927002,0.80926943 0 0 1 -0.80927,0.80927 0.80927002,0.80926943 0 0 1 -0.80927,-0.80927 0.80927002,0.80926943 0 0 1 0.80927,-0.809269 0.80927002,0.80926943 0 0 1 0.80927,0.809269 z"
           id="path106" />
        <path
           id="path107"
           style="color:#000000;fill:#000000;stroke-linecap:round;stroke-linejoin:round;-inkscape-stroke:none"
           d="m 27.933705,-20.488643 c 0.0017,0.01808 0.0053,0.03593 0.01085,0.05323 6.09e-4,0.0036 0.0013,0.0072 0.0021,0.01085 0.03124,0.0878 0.108718,0.150946 0.201021,0.163814 8.6e-4,1.77e-4 0.0017,3.49e-4 0.0026,5.17e-4 0.08373,0.28508 0.309537,0.50946 0.594796,0.593245 0.01147,0.09579 0.07703,0.176442 0.168465,0.207223 0.02392,0.0075 0.04883,0.01131 0.0739,0.01137 0.0015,1.87e-4 0.0031,3.59e-4 0.0047,5.16e-4 0.0043,-5.76e-4 0.0086,-0.0013 0.01292,-0.0021 0.01762,-7.35e-4 0.03512,-0.0033 0.05219,-0.0078 0.0052,-0.0017 0.0104,-0.0036 0.0155,-0.0057 0.01678,-0.0058 0.03289,-0.01347 0.04806,-0.02274 0.0044,-0.0028 0.0087,-0.0057 0.01292,-0.0088 0.01593,-0.01119 0.0305,-0.02419 0.04341,-0.03876 0.0019,-0.002 0.0038,-0.0041 0.0057,-0.0062 0.01394,-0.017 0.02559,-0.03576 0.03462,-0.05581 5.22e-4,-8.58e-4 0.001,-0.0017 0.0016,-0.0026 0.0034,-0.0064 0.0065,-0.01296 0.0093,-0.01964 l 0.01654,-0.05064 c 0.282077,-0.0851 0.504185,-0.308577 0.587044,-0.591695 0.105633,-0.01471 0.190303,-0.09481 0.21084,-0.199471 0.0037,-0.01457 0.0062,-0.02944 0.0072,-0.04444 3e-6,-6.89e-4 3e-6,-0.0014 0,-0.0021 0.0028,-0.03316 -0.0011,-0.06654 -0.01137,-0.09819 -0.03213,-0.09255 -0.115363,-0.157799 -0.212907,-0.166915 -0.08783,-0.275086 -0.307982,-0.492014 -0.585494,-0.574125 -0.0054,-0.102395 -0.07282,-0.191097 -0.170016,-0.223759 -0.131128,-0.04249 -0.271908,0.02917 -0.314709,0.160197 l -0.02274,0.06821 c -0.13716,0.0425 -0.260314,0.116957 -0.359668,0.216007 -0.100465,0.100157 -0.176542,0.224928 -0.219108,0.363802 l -0.05271,0.01809 c -0.03101,0.01136 -0.05946,0.02875 -0.08372,0.05116 -0.0039,0.003 -0.0077,0.0061 -0.01137,0.0093 -8.7e-4,0.001 -0.0017,0.0021 -0.0026,0.0031 -0.01129,0.01223 -0.02133,0.02556 -0.02997,0.03979 -0.0029,0.0042 -0.0056,0.0085 -0.0083,0.01292 -0.0076,0.01435 -0.01388,0.0294 -0.0186,0.04496 -0.0019,0.0051 -0.0036,0.01028 -0.0052,0.0155 -0.0036,0.01561 -0.0057,0.03153 -0.0062,0.04754 -6.29e-4,0.0043 -0.0011,0.0086 -0.0016,0.01292 1.57e-4,0.0016 3.29e-4,0.0031 5.16e-4,0.0047 -2.75e-4,0.0041 -4.47e-4,0.0083 -5.16e-4,0.0124 z m 0.350366,0.211357 0.109554,-0.03824 -0.04444,0.134876 c -0.0032,0.01222 -0.0054,0.02465 -0.0067,0.03721 -0.02364,-0.04218 -0.04331,-0.08712 -0.05839,-0.133842 z m 0.03256,-0.540019 c 0.03699,-0.08045 0.08755,-0.153177 0.149345,-0.214974 0.06153,-0.06153 0.133998,-0.111828 0.21394,-0.148828 l -0.08888,0.268717 z m 0.312126,0.959631 c 0.01381,-0.0016 0.02747,-0.0044 0.04082,-0.0083 l 0.128674,-0.04444 -0.03669,0.110588 c -0.04647,-0.01503 -0.09085,-0.03445 -0.132808,-0.05788 z m 0.556555,-1.259871 0.03204,-0.09715 c 0.03962,0.0126 0.0778,0.02879 0.114205,0.04754 -0.0052,0.0012 -0.01038,0.0026 -0.0155,0.0041 z m 0.112655,1.288293 0.09457,-0.286804 0.28267,-0.09767 c -0.07281,0.170934 -0.208098,0.308267 -0.377237,0.384472 z m 0.291971,-0.883667 0.04444,-0.135392 c 0.002,-0.007 0.0038,-0.01405 0.0052,-0.02119 0.0214,0.03823 0.03979,0.07835 0.05426,0.120406 z"
           sodipodi:nodetypes="ccccccccccccccccccccccccccccccscccccccccccccccccccscccccccccccccccccccccc" />
      </g>
      <text
         xml:space="preserve"
         style="font-size:1.05833px;line-height:1.25;font-family:Caladea;-inkscape-font-specification:Caladea;font-variant-ligatures:none;text-align:end;text-anchor:end;fill:#ffffff;stroke-width:0.264583"
         x="29.581875"
         y="2.3377044"
         id="text107"><tspan
           sodipodi:role="line"
           id="tspan107"
           style="font-style:normal;font-variant:normal;font-weight:bold;font-stretch:normal;font-size:1.05833px;font-family:Consolas;-inkscape-font-specification:'Consolas Bold';fill:#ffffff;stroke-width:0.264583"
           x="29.581875"
           y="2.3377044">13</tspan></text>
    </g>
    <g
       id="g111"
       transform="translate(-18.000001,9.0000003)">
      <g
         id="g110"
         transform="translate(-9.9998875,-4.0002537)">
        <g
           id="g109"
           transform="rotate(45)">
          <path
             style="color:#000000;fill:#ffffff;stroke-linecap:round;stroke-linejoin:round;-inkscape-stroke:none"
             d="m 29.800649,-20.506098 a 0.80927002,0.80926943 0 0 1 -0.80927,0.80927 0.80927002,0.80926943 0 0 1 -0.80927,-0.80927 0.80927002,0.80926943 0 0 1 0.80927,-0.809269 0.80927002,0.80926943 0 0 1 0.80927,0.809269 z"
             id="path108" />
          <path
             id="path109"
             style="color:#000000;fill:#000000;stroke-linecap:round;stroke-linejoin:round;-inkscape-stroke:none"
             d="m 28.372801,-21.124576 c -0.102732,0.102416 -0.17984,0.230424 -0.221803,0.373081 a 0.25,0.25 0 0 0 -0.145067,0.06906 0.25,0.25 0 0 0 -0.07199,0.176492 0.25,0.25 0 0 0 0.216321,0.245554 c 0.08384,0.285448 0.309833,0.510623 0.595615,0.594152 a 0.25,0.25 0 0 0 0.245919,0.218149 0.25,0.25 0 0 0 0.245554,-0.217783 c 0.285597,-0.08339 0.510935,-0.308925 0.594518,-0.594518 a 0.25,0.25 0 0 0 0.217783,-0.245554 0.25,0.25 0 0 0 -0.218514,-0.247747 c -0.08392,-0.283663 -0.307915,-0.507833 -0.591595,-0.591594 a 0.25,0.25 0 0 0 -0.247746,-0.218514 0.25,0.25 0 0 0 -0.176492,0.07199 0.25,0.25 0 0 0 -0.06943,0.146894 c -0.142598,0.04171 -0.270473,0.118047 -0.373081,0.220341 z m 0.09318,0.09245 c 0.134634,-0.134635 0.320589,-0.217783 0.526186,-0.217783 0.411199,0 0.742143,0.333138 0.742143,0.744335 0,0.411199 -0.330943,0.742143 -0.742143,0.742143 -0.411197,0 -0.743969,-0.331311 -0.743969,-0.742508 0,-0.2056 0.08315,-0.391552 0.217783,-0.526187 z" />
        </g>
      </g>
      <text
         xml:space="preserve"
         style="font-size:1.05833px;line-height:1.25;font-family:Caladea;-inkscape-font-specification:Caladea;font-variant-ligatures:none;text-align:end;text-anchor:end;stroke-width:0.264583"
         x="25.291052"
         y="2.3374507"
         id="text110"><tspan
           sodipodi:role="line"
           id="tspan110"
           style="font-style:normal;font-variant:normal;font-weight:bold;font-stretch:normal;font-size:1.05833px;font-family:Consolas;-inkscape-font-specification:'Consolas Bold';stroke-width:0.264583"
           x="25.291052"
           y="2.3374507">5</tspan></text>
    </g>
    <g
       id="g114"
       transform="translate(-16,11)">
      <g
         id="g113"
         transform="translate(-9.9998875,-4.0002537)">
        <g
           id="g112"
           transform="rotate(45)">
          <path
             style="color:#000000;fill:#ffffff;stroke-linecap:round;stroke-linejoin:round;-inkscape-stroke:none"
             d="m 29.800649,-20.506098 a 0.80927002,0.80926943 0 0 1 -0.80927,0.80927 0.80927002,0.80926943 0 0 1 -0.80927,-0.80927 0.80927002,0.80926943 0 0 1 0.80927,-0.809269 0.80927002,0.80926943 0 0 1 0.80927,0.809269 z"
             id="path111" />
          <path
             id="path112"
             style="color:#000000;fill:#000000;stroke-linecap:round;stroke-linejoin:round;-inkscape-stroke:none"
             d="m 28.372801,-21.124576 c -0.102732,0.102416 -0.17984,0.230424 -0.221803,0.373081 a 0.25,0.25 0 0 0 -0.145067,0.06906 0.25,0.25 0 0 0 -0.07199,0.176492 0.25,0.25 0 0 0 0.216321,0.245554 c 0.08384,0.285448 0.309833,0.510623 0.595615,0.594152 a 0.25,0.25 0 0 0 0.245919,0.218149 0.25,0.25 0 0 0 0.245554,-0.217783 c 0.285597,-0.08339 0.510935,-0.308925 0.594518,-0.594518 a 0.25,0.25 0 0 0 0.217783,-0.245554 0.25,0.25 0 0 0 -0.218514,-0.247747 c -0.08392,-0.283663 -0.307915,-0.507833 -0.591595,-0.591594 a 0.25,0.25 0 0 0 -0.247746,-0.218514 0.25,0.25 0 0 0 -0.176492,0.07199 0.25,0.25 0 0 0 -0.06943,0.146894 c -0.142598,0.04171 -0.270473,0.118047 -0.373081,0.220341 z m 0.09318,0.09245 c 0.134634,-0.134635 0.320589,-0.217783 0.526186,-0.217783 0.411199,0 0.742143,0.333138 0.742143,0.744335 0,0.411199 -0.330943,0.742143 -0.742143,0.742143 -0.411197,0 -0.743969,-0.331311 -0.743969,-0.742508 0,-0.2056 0.08315,-0.391552 0.217783,-0.526187 z" />
        </g>
      </g>
      <text
         xml:space="preserve"
         style="font-size:1.05833px;line-height:1.25;font-family:Caladea;-inkscape-font-specification:Caladea;font-variant-ligatures:none;text-align:end;text-anchor:end;stroke-width:0.264583"
         x="25.291052"
         y="2.3374507"
         id="text113"><tspan
           sodipodi:role="line"
           id="tspan113"
           style="font-style:normal;font-variant:normal;font-weight:bold;font-stretch:normal;font-size:1.05833px;font-family:Consolas;-inkscape-font-specification:'Consolas Bold';stroke-width:0.264583"
           x="25.291052"
           y="2.3374507">6</tspan></text>
    </g>
    <g
       id="g117"
       transform="translate(-15.999887,9.0000003)">
      <g
         id="g116"
         transform="translate(-8.0000012,-4.0002537)">
        <g
           id="g115"
           transform="rotate(45)">
          <path
             style="color:#000000;fill:#ffffff;stroke-linecap:round;stroke-linejoin:round;-inkscape-stroke:none"
             d="m 29.800649,-20.506098 a 0.80927002,0.80926943 0 0 1 -0.80927,0.80927 0.80927002,0.80926943 0 0 1 -0.80927,-0.80927 0.80927002,0.80926943 0 0 1 0.80927,-0.809269 0.80927002,0.80926943 0 0 1 0.80927,0.809269 z"
             id="path114" />
          <path
             id="path115"
             style="color:#000000;fill:#000000;stroke-linecap:round;stroke-linejoin:round;-inkscape-stroke:none"
             d="m 28.372801,-21.124576 c -0.102732,0.102416 -0.17984,0.230424 -0.221803,0.373081 a 0.25,0.25 0 0 0 -0.145067,0.06906 0.25,0.25 0 0 0 -0.07199,0.176492 0.25,0.25 0 0 0 0.216321,0.245554 c 0.08384,0.285448 0.309833,0.510623 0.595615,0.594152 a 0.25,0.25 0 0 0 0.245919,0.218149 0.25,0.25 0 0 0 0.245554,-0.217783 c 0.285597,-0.08339 0.510935,-0.308925 0.594518,-0.594518 a 0.25,0.25 0 0 0 0.217783,-0.245554 0.25,0.25 0 0 0 -0.218514,-0.247747 c -0.08392,-0.283663 -0.307915,-0.507833 -0.591595,-0.591594 a 0.25,0.25 0 0 0 -0.247746,-0.218514 0.25,0.25 0 0 0 -0.176492,0.07199 0.25,0.25 0 0 0 -0.06943,0.146894 c -0.142598,0.04171 -0.270473,0.118047 -0.373081,0.220341 z m 0.09318,0.09245 c 0.134634,-0.134635 0.320589,-0.217783 0.526186,-0.217783 0.411199,0 0.742143,0.333138 0.742143,0.744335 0,0.411199 -0.330943,0.742143 -0.742143,0.742143 -0.411197,0 -0.743969,-0.331311 -0.743969,-0.742508 0,-0.2056 0.08315,-0.391552 0.217783,-0.526187 z" />
        </g>
      </g>
      <text
         xml:space="preserve"
         style="font-size:1.05833px;line-height:1.25;font-family:Caladea;-inkscape-font-specification:Caladea;font-variant-ligatures:none;text-align:end;text-anchor:end;stroke-width:0.264583"
         x="27.581875"
         y="2.3377044"
         id="text116"><tspan
           sodipodi:role="line"
           id="tspan116"
           style="font-style:normal;font-variant:normal;font-weight:bold;font-stretch:normal;font-size:1.05833px;font-family:Consolas;-inkscape-font-specification:'Consolas Bold';stroke-width:0.264583"
           x="27.581875"
           y="2.3377044">14</tspan></text>
    </g>
    <g
       id="g130"
       transform="translate(-8.0000002,15)">
      <g
         id="g129"
         transform="translate(-9.9998875,-4.0002537)">
        <g
           id="g128"
           transform="rotate(45)">
          <path
             style="color:#000000;fill:#ffffff;stroke-linecap:round;stroke-linejoin:round;-inkscape-stroke:none"
             d="m 29.800649,-20.506098 a 0.80927002,0.80926943 0 0 1 -0.80927,0.80927 0.80927002,0.80926943 0 0 1 -0.80927,-0.80927 0.80927002,0.80926943 0 0 1 0.80927,-0.809269 0.80927002,0.80926943 0 0 1 0.80927,0.809269 z"
             id="path127" />
          <path
             id="path128"
             style="color:#000000;fill:#000000;stroke-linecap:round;stroke-linejoin:round;-inkscape-stroke:none"
             d="m 28.372801,-21.124576 c -0.102732,0.102416 -0.17984,0.230424 -0.221803,0.373081 a 0.25,0.25 0 0 0 -0.145067,0.06906 0.25,0.25 0 0 0 -0.07199,0.176492 0.25,0.25 0 0 0 0.216321,0.245554 c 0.08384,0.285448 0.309833,0.510623 0.595615,0.594152 a 0.25,0.25 0 0 0 0.245919,0.218149 0.25,0.25 0 0 0 0.245554,-0.217783 c 0.285597,-0.08339 0.510935,-0.308925 0.594518,-0.594518 a 0.25,0.25 0 0 0 0.217783,-0.245554 0.25,0.25 0 0 0 -0.218514,-0.247747 c -0.08392,-0.283663 -0.307915,-0.507833 -0.591595,-0.591594 a 0.25,0.25 0 0 0 -0.247746,-0.218514 0.25,0.25 0 0 0 -0.176492,0.07199 0.25,0.25 0 0 0 -0.06943,0.146894 c -0.142598,0.04171 -0.270473,0.118047 -0.373081,0.220341 z m 0.09318,0.09245 c 0.134634,-0.134635 0.320589,-0.217783 0.526186,-0.217783 0.411199,0 0.742143,0.333138 0.742143,0.744335 0,0.411199 -0.330943,0.742143 -0.742143,0.742143 -0.411197,0 -0.743969,-0.331311 -0.743969,-0.742508 0,-0.2056 0.08315,-0.391552 0.217783,-0.526187 z" />
        </g>
      </g>
      <text
         xml:space="preserve"
         style="font-size:1.05833px;line-height:1.25;font-family:Caladea;-inkscape-font-specification:Caladea;font-variant-ligatures:none;text-align:end;text-anchor:end;stroke-width:0.264583"
         x="25.291052"
         y="2.3374507"
         id="text129"><tspan
           sodipodi:role="line"
           id="tspan129"
           style="font-style:normal;font-variant:normal;font-weight:bold;font-stretch:normal;font-size:1.05833px;font-family:Consolas;-inkscape-font-specification:'Consolas Bold';stroke-width:0.264583"
           x="25.291052"
           y="2.3374507">7</tspan></text>
    </g>
    <g
       id="g133"
       transform="translate(6.0001139,15)">
      <g
         id="g132"
         transform="translate(-8.0000012,-4.0002537)">
        <g
           id="g131"
           transform="rotate(45)">
          <path
             style="color:#000000;fill:#ffffff;stroke-linecap:round;stroke-linejoin:round;-inkscape-stroke:none"
             d="m 29.800649,-20.506098 a 0.80927002,0.80926943 0 0 1 -0.80927,0.80927 0.80927002,0.80926943 0 0 1 -0.80927,-0.80927 0.80927002,0.80926943 0 0 1 0.80927,-0.809269 0.80927002,0.80926943 0 0 1 0.80927,0.809269 z"
             id="path130" />
          <path
             id="path131"
             style="color:#000000;fill:#000000;stroke-linecap:round;stroke-linejoin:round;-inkscape-stroke:none"
             d="m 28.372801,-21.124576 c -0.102732,0.102416 -0.17984,0.230424 -0.221803,0.373081 a 0.25,0.25 0 0 0 -0.145067,0.06906 0.25,0.25 0 0 0 -0.07199,0.176492 0.25,0.25 0 0 0 0.216321,0.245554 c 0.08384,0.285448 0.309833,0.510623 0.595615,0.594152 a 0.25,0.25 0 0 0 0.245919,0.218149 0.25,0.25 0 0 0 0.245554,-0.217783 c 0.285597,-0.08339 0.510935,-0.308925 0.594518,-0.594518 a 0.25,0.25 0 0 0 0.217783,-0.245554 0.25,0.25 0 0 0 -0.218514,-0.247747 c -0.08392,-0.283663 -0.307915,-0.507833 -0.591595,-0.591594 a 0.25,0.25 0 0 0 -0.247746,-0.218514 0.25,0.25 0 0 0 -0.176492,0.07199 0.25,0.25 0 0 0 -0.06943,0.146894 c -0.142598,0.04171 -0.270473,0.118047 -0.373081,0.220341 z m 0.09318,0.09245 c 0.134634,-0.134635 0.320589,-0.217783 0.526186,-0.217783 0.411199,0 0.742143,0.333138 0.742143,0.744335 0,0.411199 -0.330943,0.742143 -0.742143,0.742143 -0.411197,0 -0.743969,-0.331311 -0.743969,-0.742508 0,-0.2056 0.08315,-0.391552 0.217783,-0.526187 z" />
        </g>
      </g>
      <text
         xml:space="preserve"
         style="font-size:1.05833px;line-height:1.25;font-family:Caladea;-inkscape-font-specification:Caladea;font-variant-ligatures:none;text-align:end;text-anchor:end;stroke-width:0.264583"
         x="27.581875"
         y="2.3377044"
         id="text132"><tspan
           sodipodi:role="line"
           id="tspan132"
           style="font-style:normal;font-variant:normal;font-weight:bold;font-stretch:normal;font-size:1.05833px;font-family:Consolas;-inkscape-font-specification:'Consolas Bold';stroke-width:0.264583"
           x="27.581875"
           y="2.3377044">15</tspan></text>
    </g>
    <g
       id="g136"
       transform="translate(-2.0000001,20.999988)"
       style="opacity:0.5">
      <g
         id="g135"
         transform="translate(-9.9998875,-4.0002537)">
        <g
           id="g134"
           transform="rotate(45)">
          <path
             style="color:#000000;fill:#ffffff;stroke-linecap:round;stroke-linejoin:round;-inkscape-stroke:none"
             d="m 29.800649,-20.506098 a 0.80927002,0.80926943 0 0 1 -0.80927,0.80927 0.80927002,0.80926943 0 0 1 -0.80927,-0.80927 0.80927002,0.80926943 0 0 1 0.80927,-0.809269 0.80927002,0.80926943 0 0 1 0.80927,0.809269 z"
             id="path133" />
          <path
             id="path134"
             style="color:#000000;fill:#000000;stroke-linecap:round;stroke-linejoin:round;-inkscape-stroke:none"
             d="m 28.372801,-21.124576 c -0.102732,0.102416 -0.17984,0.230424 -0.221803,0.373081 a 0.25,0.25 0 0 0 -0.145067,0.06906 0.25,0.25 0 0 0 -0.07199,0.176492 0.25,0.25 0 0 0 0.216321,0.245554 c 0.08384,0.285448 0.309833,0.510623 0.595615,0.594152 a 0.25,0.25 0 0 0 0.245919,0.218149 0.25,0.25 0 0 0 0.245554,-0.217783 c 0.285597,-0.08339 0.510935,-0.308925 0.594518,-0.594518 a 0.25,0.25 0 0 0 0.217783,-0.245554 0.25,0.25 0 0 0 -0.218514,-0.247747 c -0.08392,-0.283663 -0.307915,-0.507833 -0.591595,-0.591594 a 0.25,0.25 0 0 0 -0.247746,-0.218514 0.25,0.25 0 0 0 -0.176492,0.07199 0.25,0.25 0 0 0 -0.06943,0.146894 c -0.142598,0.04171 -0.270473,0.118047 -0.373081,0.220341 z m 0.09318,0.09245 c 0.134634,-0.134635 0.320589,-0.217783 0.526186,-0.217783 0.411199,0 0.742143,0.333138 0.742143,0.744335 0,0.411199 -0.330943,0.742143 -0.742143,0.742143 -0.411197,0 -0.743969,-0.331311 -0.743969,-0.742508 0,-0.2056 0.08315,-0.391552 0.217783,-0.526187 z" />
        </g>
      </g>
      <text
         xml:space="preserve"
         style="font-size:1.05833px;line-height:1.25;font-family:Caladea;-inkscape-font-specification:Caladea;font-variant-ligatures:none;text-align:end;text-anchor:end;stroke-width:0.264583"
         x="25.291052"
         y="2.3374507"
         id="text135"><tspan
           sodipodi:role="line"
           id="tspan135"
           style="font-style:normal;font-variant:normal;font-weight:bold;font-stretch:normal;font-size:1.05833px;font-family:Consolas;-inkscape-font-specification:'Consolas Bold';stroke-width:0.264583"
           x="25.291052"
           y="2.3374507">0</tspan></text>
    </g>
    <g
       id="g139"
       transform="translate(1.137417e-4,20.999988)"
       style="opacity:0.5">
      <g
         id="g138"
         transform="translate(-8.0000012,-4.0002537)">
        <g
           id="g137"
           transform="rotate(45)">
          <path
             style="color:#000000;fill:#ffffff;stroke-linecap:round;stroke-linejoin:round;-inkscape-stroke:none"
             d="m 29.800649,-20.506098 a 0.80927002,0.80926943 0 0 1 -0.80927,0.80927 0.80927002,0.80926943 0 0 1 -0.80927,-0.80927 0.80927002,0.80926943 0 0 1 0.80927,-0.809269 0.80927002,0.80926943 0 0 1 0.80927,0.809269 z"
             id="path136" />
          <path
             id="path137"
             style="color:#000000;fill:#000000;stroke-linecap:round;stroke-linejoin:round;-inkscape-stroke:none"
             d="m 28.372801,-21.124576 c -0.102732,0.102416 -0.17984,0.230424 -0.221803,0.373081 a 0.25,0.25 0 0 0 -0.145067,0.06906 0.25,0.25 0 0 0 -0.07199,0.176492 0.25,0.25 0 0 0 0.216321,0.245554 c 0.08384,0.285448 0.309833,0.510623 0.595615,0.594152 a 0.25,0.25 0 0 0 0.245919,0.218149 0.25,0.25 0 0 0 0.245554,-0.217783 c 0.285597,-0.08339 0.510935,-0.308925 0.594518,-0.594518 a 0.25,0.25 0 0 0 0.217783,-0.245554 0.25,0.25 0 0 0 -0.218514,-0.247747 c -0.08392,-0.283663 -0.307915,-0.507833 -0.591595,-0.591594 a 0.25,0.25 0 0 0 -0.247746,-0.218514 0.25,0.25 0 0 0 -0.176492,0.07199 0.25,0.25 0 0 0 -0.06943,0.146894 c -0.142598,0.04171 -0.270473,0.118047 -0.373081,0.220341 z m 0.09318,0.09245 c 0.134634,-0.134635 0.320589,-0.217783 0.526186,-0.217783 0.411199,0 0.742143,0.333138 0.742143,0.744335 0,0.411199 -0.330943,0.742143 -0.742143,0.742143 -0.411197,0 -0.743969,-0.331311 -0.743969,-0.742508 0,-0.2056 0.08315,-0.391552 0.217783,-0.526187 z" />
        </g>
      </g>
      <text
         xml:space="preserve"
         style="font-size:1.05833px;line-height:1.25;font-family:Caladea;-inkscape-font-specification:Caladea;font-variant-ligatures:none;text-align:end;text-anchor:end;stroke-width:0.264583"
         x="27.581875"
         y="2.3377044"
         id="text138"><tspan
           sodipodi:role="line"
           id="tspan138"
           style="font-style:normal;font-variant:normal;font-weight:bold;font-stretch:normal;font-size:1.05833px;font-family:Consolas;-inkscape-font-specification:'Consolas Bold';stroke-width:0.264583"
           x="27.581875"
           y="2.3377044">10</tspan></text>
    </g>
    <g
       id="g141"
       transform="translate(-6.0018759,18.999983)"
       style="opacity:0.5">
      <g
         id="g140"
         transform="matrix(-0.70710678,0.70710678,0.70710678,0.70710678,66.051988,-4.0001553)">
        <path
           style="color:#000000;fill:#ffffff;stroke-linecap:round;stroke-linejoin:round;-inkscape-stroke:none"
           d="m 29.800649,-20.506098 a 0.80927002,0.80926943 0 0 1 -0.80927,0.80927 0.80927002,0.80926943 0 0 1 -0.80927,-0.80927 0.80927002,0.80926943 0 0 1 0.80927,-0.809269 0.80927002,0.80926943 0 0 1 0.80927,0.809269 z"
           id="path139" />
        <path
           id="path140"
           style="color:#000000;fill:#000000;stroke-linecap:round;stroke-linejoin:round;-inkscape-stroke:none"
           d="m 27.933705,-20.488643 c 0.0017,0.01808 0.0053,0.03593 0.01085,0.05323 6.09e-4,0.0036 0.0013,0.0072 0.0021,0.01085 0.03124,0.0878 0.108718,0.150946 0.201021,0.163814 8.6e-4,1.77e-4 0.0017,3.49e-4 0.0026,5.17e-4 0.08373,0.28508 0.309537,0.50946 0.594796,0.593245 0.01147,0.09579 0.07703,0.176442 0.168465,0.207223 0.02392,0.0075 0.04883,0.01131 0.0739,0.01137 0.0015,1.87e-4 0.0031,3.59e-4 0.0047,5.16e-4 0.0043,-5.76e-4 0.0086,-0.0013 0.01292,-0.0021 0.01762,-7.35e-4 0.03512,-0.0033 0.05219,-0.0078 0.0052,-0.0017 0.0104,-0.0036 0.0155,-0.0057 0.01678,-0.0058 0.03289,-0.01347 0.04806,-0.02274 0.0044,-0.0028 0.0087,-0.0057 0.01292,-0.0088 0.01593,-0.01119 0.0305,-0.02419 0.04341,-0.03876 0.0019,-0.002 0.0038,-0.0041 0.0057,-0.0062 0.01394,-0.017 0.02559,-0.03576 0.03462,-0.05581 5.22e-4,-8.58e-4 0.001,-0.0017 0.0016,-0.0026 0.0034,-0.0064 0.0065,-0.01296 0.0093,-0.01964 l 0.01654,-0.05064 c 0.282077,-0.0851 0.504185,-0.308577 0.587044,-0.591695 0.105633,-0.01471 0.190303,-0.09481 0.21084,-0.199471 0.0037,-0.01457 0.0062,-0.02944 0.0072,-0.04444 3e-6,-6.89e-4 3e-6,-0.0014 0,-0.0021 0.0028,-0.03316 -0.0011,-0.06654 -0.01137,-0.09819 -0.03213,-0.09255 -0.115363,-0.157799 -0.212907,-0.166915 -0.08783,-0.275086 -0.307982,-0.492014 -0.585494,-0.574125 -0.0054,-0.102395 -0.07282,-0.191097 -0.170016,-0.223759 -0.131128,-0.04249 -0.271908,0.02917 -0.314709,0.160197 l -0.02274,0.06821 c -0.13716,0.0425 -0.260314,0.116957 -0.359668,0.216007 -0.100465,0.100157 -0.176542,0.224928 -0.219108,0.363802 l -0.05271,0.01809 c -0.03101,0.01136 -0.05946,0.02875 -0.08372,0.05116 -0.0039,0.003 -0.0077,0.0061 -0.01137,0.0093 -8.7e-4,0.001 -0.0017,0.0021 -0.0026,0.0031 -0.01129,0.01223 -0.02133,0.02556 -0.02997,0.03979 -0.0029,0.0042 -0.0056,0.0085 -0.0083,0.01292 -0.0076,0.01435 -0.01388,0.0294 -0.0186,0.04496 -0.0019,0.0051 -0.0036,0.01028 -0.0052,0.0155 -0.0036,0.01561 -0.0057,0.03153 -0.0062,0.04754 -6.29e-4,0.0043 -0.0011,0.0086 -0.0016,0.01292 1.57e-4,0.0016 3.29e-4,0.0031 5.16e-4,0.0047 -2.75e-4,0.0041 -4.47e-4,0.0083 -5.16e-4,0.0124 z m 0.350366,0.211357 0.109554,-0.03824 -0.04444,0.134876 c -0.0032,0.01222 -0.0054,0.02465 -0.0067,0.03721 -0.02364,-0.04218 -0.04331,-0.08712 -0.05839,-0.133842 z m 0.03256,-0.540019 c 0.03699,-0.08045 0.08755,-0.153177 0.149345,-0.214974 0.06153,-0.06153 0.133998,-0.111828 0.21394,-0.148828 l -0.08888,0.268717 z m 0.312126,0.959631 c 0.01381,-0.0016 0.02747,-0.0044 0.04082,-0.0083 l 0.128674,-0.04444 -0.03669,0.110588 c -0.04647,-0.01503 -0.09085,-0.03445 -0.132808,-0.05788 z m 0.556555,-1.259871 0.03204,-0.09715 c 0.03962,0.0126 0.0778,0.02879 0.114205,0.04754 -0.0052,0.0012 -0.01038,0.0026 -0.0155,0.0041 z m 0.112655,1.288293 0.09457,-0.286804 0.28267,-0.09767 c -0.07281,0.170934 -0.208098,0.308267 -0.377237,0.384472 z m 0.291971,-0.883667 0.04444,-0.135392 c 0.002,-0.007 0.0038,-0.01405 0.0052,-0.02119 0.0214,0.03823 0.03979,0.07835 0.05426,0.120406 z"
           sodipodi:nodetypes="ccccccccccccccccccccccccccccccscccccccccccccccccccscccccccccccccccccccccc" />
      </g>
      <text
         xml:space="preserve"
         style="font-size:1.05833px;line-height:1.25;font-family:Caladea;-inkscape-font-specification:Caladea;font-variant-ligatures:none;text-align:end;text-anchor:end;fill:#ffffff;stroke-width:0.264583"
         x="31.290937"
         y="2.3377044"
         id="text140"><tspan
           sodipodi:role="line"
           id="tspan140"
           style="font-style:normal;font-variant:normal;font-weight:bold;font-stretch:normal;font-size:1.05833px;font-family:Consolas;-inkscape-font-specification:'Consolas Bold';fill:#ffffff;stroke-width:0.264583"
           x="31.290937"
           y="2.3377044">8</tspan></text>
    </g>
    <g
       id="g144"
       transform="translate(-18.000001,20.999988)"
       style="opacity:0.5">
      <g
         id="g143"
         transform="translate(-9.9998875,-4.0002537)">
        <g
           id="g142"
           transform="rotate(45)">
          <path
             style="color:#000000;fill:#ffffff;stroke-linecap:round;stroke-linejoin:round;-inkscape-stroke:none"
             d="m 29.800649,-20.506098 a 0.80927002,0.80926943 0 0 1 -0.80927,0.80927 0.80927002,0.80926943 0 0 1 -0.80927,-0.80927 0.80927002,0.80926943 0 0 1 0.80927,-0.809269 0.80927002,0.80926943 0 0 1 0.80927,0.809269 z"
             id="path141" />
          <path
             id="path142"
             style="color:#000000;fill:#000000;stroke-linecap:round;stroke-linejoin:round;-inkscape-stroke:none"
             d="m 28.372801,-21.124576 c -0.102732,0.102416 -0.17984,0.230424 -0.221803,0.373081 a 0.25,0.25 0 0 0 -0.145067,0.06906 0.25,0.25 0 0 0 -0.07199,0.176492 0.25,0.25 0 0 0 0.216321,0.245554 c 0.08384,0.285448 0.309833,0.510623 0.595615,0.594152 a 0.25,0.25 0 0 0 0.245919,0.218149 0.25,0.25 0 0 0 0.245554,-0.217783 c 0.285597,-0.08339 0.510935,-0.308925 0.594518,-0.594518 a 0.25,0.25 0 0 0 0.217783,-0.245554 0.25,0.25 0 0 0 -0.218514,-0.247747 c -0.08392,-0.283663 -0.307915,-0.507833 -0.591595,-0.591594 a 0.25,0.25 0 0 0 -0.247746,-0.218514 0.25,0.25 0 0 0 -0.176492,0.07199 0.25,0.25 0 0 0 -0.06943,0.146894 c -0.142598,0.04171 -0.270473,0.118047 -0.373081,0.220341 z m 0.09318,0.09245 c 0.134634,-0.134635 0.320589,-0.217783 0.526186,-0.217783 0.411199,0 0.742143,0.333138 0.742143,0.744335 0,0.411199 -0.330943,0.742143 -0.742143,0.742143 -0.411197,0 -0.743969,-0.331311 -0.743969,-0.742508 0,-0.2056 0.08315,-0.391552 0.217783,-0.526187 z" />
        </g>
      </g>
      <text
         xml:space="preserve"
         style="font-size:1.05833px;line-height:1.25;font-family:Caladea;-inkscape-font-specification:Caladea;font-variant-ligatures:none;text-align:end;text-anchor:end;stroke-width:0.264583"
         x="25.291052"
         y="2.3374507"
         id="text143"><tspan
           sodipodi:role="line"
           id="tspan143"
           style="font-style:normal;font-variant:normal;font-weight:bold;font-stretch:normal;font-size:1.05833px;font-family:Consolas;-inkscape-font-specification:'Consolas Bold';stroke-width:0.264583"
           x="25.291052"
           y="2.3374507">4</tspan></text>
    </g>
    <g
       id="g147"
       transform="translate(-16,18.999988)"
       style="opacity:0.5">
      <g
         id="g146"
         transform="translate(-9.9998875,-4.0002537)">
        <g
           id="g145"
           transform="rotate(45)">
          <path
             style="color:#000000;fill:#ffffff;stroke-linecap:round;stroke-linejoin:round;-inkscape-stroke:none"
             d="m 29.800649,-20.506098 a 0.80927002,0.80926943 0 0 1 -0.80927,0.80927 0.80927002,0.80926943 0 0 1 -0.80927,-0.80927 0.80927002,0.80926943 0 0 1 0.80927,-0.809269 0.80927002,0.80926943 0 0 1 0.80927,0.809269 z"
             id="path144" />
          <path
             id="path145"
             style="color:#000000;fill:#000000;stroke-linecap:round;stroke-linejoin:round;-inkscape-stroke:none"
             d="m 28.372801,-21.124576 c -0.102732,0.102416 -0.17984,0.230424 -0.221803,0.373081 a 0.25,0.25 0 0 0 -0.145067,0.06906 0.25,0.25 0 0 0 -0.07199,0.176492 0.25,0.25 0 0 0 0.216321,0.245554 c 0.08384,0.285448 0.309833,0.510623 0.595615,0.594152 a 0.25,0.25 0 0 0 0.245919,0.218149 0.25,0.25 0 0 0 0.245554,-0.217783 c 0.285597,-0.08339 0.510935,-0.308925 0.594518,-0.594518 a 0.25,0.25 0 0 0 0.217783,-0.245554 0.25,0.25 0 0 0 -0.218514,-0.247747 c -0.08392,-0.283663 -0.307915,-0.507833 -0.591595,-0.591594 a 0.25,0.25 0 0 0 -0.247746,-0.218514 0.25,0.25 0 0 0 -0.176492,0.07199 0.25,0.25 0 0 0 -0.06943,0.146894 c -0.142598,0.04171 -0.270473,0.118047 -0.373081,0.220341 z m 0.09318,0.09245 c 0.134634,-0.134635 0.320589,-0.217783 0.526186,-0.217783 0.411199,0 0.742143,0.333138 0.742143,0.744335 0,0.411199 -0.330943,0.742143 -0.742143,0.742143 -0.411197,0 -0.743969,-0.331311 -0.743969,-0.742508 0,-0.2056 0.08315,-0.391552 0.217783,-0.526187 z" />
        </g>
      </g>
      <text
         xml:space="preserve"
         style="font-size:1.05833px;line-height:1.25;font-family:Caladea;-inkscape-font-specification:Caladea;font-variant-ligatures:none;text-align:end;text-anchor:end;stroke-width:0.264583"
         x="25.291052"
         y="2.3374507"
         id="text146"><tspan
           sodipodi:role="line"
           id="tspan146"
           style="font-style:normal;font-variant:normal;font-weight:bold;font-stretch:normal;font-size:1.05833px;font-family:Consolas;-inkscape-font-specification:'Consolas Bold';stroke-width:0.264583"
           x="25.291052"
           y="2.3374507">3</tspan></text>
    </g>
    <g
       id="g150"
       transform="translate(-15.999887,20.999988)"
       style="opacity:0.5">
      <g
         id="g149"
         transform="translate(-8.0000012,-4.0002537)">
        <g
           id="g148"
           transform="rotate(45)">
          <path
             style="color:#000000;fill:#ffffff;stroke-linecap:round;stroke-linejoin:round;-inkscape-stroke:none"
             d="m 29.800649,-20.506098 a 0.80927002,0.80926943 0 0 1 -0.80927,0.80927 0.80927002,0.80926943 0 0 1 -0.80927,-0.80927 0.80927002,0.80926943 0 0 1 0.80927,-0.809269 0.80927002,0.80926943 0 0 1 0.80927,0.809269 z"
             id="path147" />
          <path
             id="path148"
             style="color:#000000;fill:#000000;stroke-linecap:round;stroke-linejoin:round;-inkscape-stroke:none"
             d="m 28.372801,-21.124576 c -0.102732,0.102416 -0.17984,0.230424 -0.221803,0.373081 a 0.25,0.25 0 0 0 -0.145067,0.06906 0.25,0.25 0 0 0 -0.07199,0.176492 0.25,0.25 0 0 0 0.216321,0.245554 c 0.08384,0.285448 0.309833,0.510623 0.595615,0.594152 a 0.25,0.25 0 0 0 0.245919,0.218149 0.25,0.25 0 0 0 0.245554,-0.217783 c 0.285597,-0.08339 0.510935,-0.308925 0.594518,-0.594518 a 0.25,0.25 0 0 0 0.217783,-0.245554 0.25,0.25 0 0 0 -0.218514,-0.247747 c -0.08392,-0.283663 -0.307915,-0.507833 -0.591595,-0.591594 a 0.25,0.25 0 0 0 -0.247746,-0.218514 0.25,0.25 0 0 0 -0.176492,0.07199 0.25,0.25 0 0 0 -0.06943,0.146894 c -0.142598,0.04171 -0.270473,0.118047 -0.373081,0.220341 z m 0.09318,0.09245 c 0.134634,-0.134635 0.320589,-0.217783 0.526186,-0.217783 0.411199,0 0.742143,0.333138 0.742143,0.744335 0,0.411199 -0.330943,0.742143 -0.742143,0.742143 -0.411197,0 -0.743969,-0.331311 -0.743969,-0.742508 0,-0.2056 0.08315,-0.391552 0.217783,-0.526187 z" />
        </g>
      </g>
      <text
         xml:space="preserve"
         style="font-size:1.05833px;line-height:1.25;font-family:Caladea;-inkscape-font-specification:Caladea;font-variant-ligatures:none;text-align:end;text-anchor:end;stroke-width:0.264583"
         x="27.581875"
         y="2.3377044"
         id="text149"><tspan
           sodipodi:role="line"
           id="tspan149"
           style="font-style:normal;font-variant:normal;font-weight:bold;font-stretch:normal;font-size:1.05833px;font-family:Consolas;-inkscape-font-specification:'Consolas Bold';stroke-width:0.264583"
           x="27.581875"
           y="2.3377044">12</tspan></text>
    </g>
    <g
       id="g153"
       transform="translate(-25.999925,15)"
       style="opacity:0.5">
      <g
         id="g152"
         transform="translate(-8.0000012,-4.0002537)">
        <g
           id="g151"
           transform="rotate(45)">
          <path
             style="color:#000000;fill:#ffffff;stroke-linecap:round;stroke-linejoin:round;-inkscape-stroke:none"
             d="m 29.800649,-20.506098 a 0.80927002,0.80926943 0 0 1 -0.80927,0.80927 0.80927002,0.80926943 0 0 1 -0.80927,-0.80927 0.80927002,0.80926943 0 0 1 0.80927,-0.809269 0.80927002,0.80926943 0 0 1 0.80927,0.809269 z"
             id="path150" />
          <path
             id="path151"
             style="color:#000000;fill:#000000;stroke-linecap:round;stroke-linejoin:round;-inkscape-stroke:none"
             d="m 28.372801,-21.124576 c -0.102732,0.102416 -0.17984,0.230424 -0.221803,0.373081 a 0.25,0.25 0 0 0 -0.145067,0.06906 0.25,0.25 0 0 0 -0.07199,0.176492 0.25,0.25 0 0 0 0.216321,0.245554 c 0.08384,0.285448 0.309833,0.510623 0.595615,0.594152 a 0.25,0.25 0 0 0 0.245919,0.218149 0.25,0.25 0 0 0 0.245554,-0.217783 c 0.285597,-0.08339 0.510935,-0.308925 0.594518,-0.594518 a 0.25,0.25 0 0 0 0.217783,-0.245554 0.25,0.25 0 0 0 -0.218514,-0.247747 c -0.08392,-0.283663 -0.307915,-0.507833 -0.591595,-0.591594 a 0.25,0.25 0 0 0 -0.247746,-0.218514 0.25,0.25 0 0 0 -0.176492,0.07199 0.25,0.25 0 0 0 -0.06943,0.146894 c -0.142598,0.04171 -0.270473,0.118047 -0.373081,0.220341 z m 0.09318,0.09245 c 0.134634,-0.134635 0.320589,-0.217783 0.526186,-0.217783 0.411199,0 0.742143,0.333138 0.742143,0.744335 0,0.411199 -0.330943,0.742143 -0.742143,0.742143 -0.411197,0 -0.743969,-0.331311 -0.743969,-0.742508 0,-0.2056 0.08315,-0.391552 0.217783,-0.526187 z" />
        </g>
      </g>
      <text
         xml:space="preserve"
         style="font-size:1.05833px;line-height:1.25;font-family:Caladea;-inkscape-font-specification:Caladea;font-variant-ligatures:none;text-align:end;text-anchor:end;stroke-width:0.264583"
         x="27.581875"
         y="2.3377044"
         id="text152"><tspan
           sodipodi:role="line"
           id="tspan152"
           style="font-style:normal;font-variant:normal;font-weight:bold;font-stretch:normal;font-size:1.05833px;font-family:Consolas;-inkscape-font-specification:'Consolas Bold';stroke-width:0.264583"
           x="27.581875"
           y="2.3377044">15</tspan></text>
    </g>
    <g
       id="g156"
       transform="translate(13.999961,20.999988)"
       style="opacity:0.5">
      <g
         id="g155"
         transform="translate(-9.9998875,-4.0002537)">
        <g
           id="g154"
           transform="rotate(45)">
          <path
             style="color:#000000;fill:#ffffff;stroke-linecap:round;stroke-linejoin:round;-inkscape-stroke:none"
             d="m 29.800649,-20.506098 a 0.80927002,0.80926943 0 0 1 -0.80927,0.80927 0.80927002,0.80926943 0 0 1 -0.80927,-0.80927 0.80927002,0.80926943 0 0 1 0.80927,-0.809269 0.80927002,0.80926943 0 0 1 0.80927,0.809269 z"
             id="path153" />
          <path
             id="path154"
             style="color:#000000;fill:#000000;stroke-linecap:round;stroke-linejoin:round;-inkscape-stroke:none"
             d="m 28.372801,-21.124576 c -0.102732,0.102416 -0.17984,0.230424 -0.221803,0.373081 a 0.25,0.25 0 0 0 -0.145067,0.06906 0.25,0.25 0 0 0 -0.07199,0.176492 0.25,0.25 0 0 0 0.216321,0.245554 c 0.08384,0.285448 0.309833,0.510623 0.595615,0.594152 a 0.25,0.25 0 0 0 0.245919,0.218149 0.25,0.25 0 0 0 0.245554,-0.217783 c 0.285597,-0.08339 0.510935,-0.308925 0.594518,-0.594518 a 0.25,0.25 0 0 0 0.217783,-0.245554 0.25,0.25 0 0 0 -0.218514,-0.247747 c -0.08392,-0.283663 -0.307915,-0.507833 -0.591595,-0.591594 a 0.25,0.25 0 0 0 -0.247746,-0.218514 0.25,0.25 0 0 0 -0.176492,0.07199 0.25,0.25 0 0 0 -0.06943,0.146894 c -0.142598,0.04171 -0.270473,0.118047 -0.373081,0.220341 z m 0.09318,0.09245 c 0.134634,-0.134635 0.320589,-0.217783 0.526186,-0.217783 0.411199,0 0.742143,0.333138 0.742143,0.744335 0,0.411199 -0.330943,0.742143 -0.742143,0.742143 -0.411197,0 -0.743969,-0.331311 -0.743969,-0.742508 0,-0.2056 0.08315,-0.391552 0.217783,-0.526187 z" />
        </g>
      </g>
      <text
         xml:space="preserve"
         style="font-size:1.05833px;line-height:1.25;font-family:Caladea;-inkscape-font-specification:Caladea;font-variant-ligatures:none;text-align:end;text-anchor:end;stroke-width:0.264583"
         x="25.291052"
         y="2.3374507"
         id="text155"><tspan
           sodipodi:role="line"
           id="tspan155"
           style="font-style:normal;font-variant:normal;font-weight:bold;font-stretch:normal;font-size:1.05833px;font-family:Consolas;-inkscape-font-specification:'Consolas Bold';stroke-width:0.264583"
           x="25.291052"
           y="2.3374507">4</tspan></text>
    </g>
    <text
       xml:space="preserve"
       style="font-size:0.705556px;line-height:1.25;font-family:Caladea;-inkscape-font-specification:Caladea;font-variant-ligatures:none;text-align:end;text-anchor:end;stroke-width:0.264583"
       x="29.725193"
       y="0.94999999"
       id="text156"><tspan
         sodipodi:role="line"
         id="tspan156"
         style="font-style:normal;font-variant:normal;font-weight:normal;font-stretch:normal;font-size:0.705556px;font-family:Consolas;-inkscape-font-specification:Consolas;stroke-width:0.264583"
         x="29.725193"
         y="0.94999999">24</tspan></text>
    <path
       style="fill:none;stroke:#808080;stroke-width:0.1;stroke-linecap:butt;stroke-linejoin:miter;stroke-dasharray:none;stroke-opacity:1"
       d="M 37.000001,1 V 25.000001"
       id="path157"
       sodipodi:nodetypes="cc" />
    <text
       xml:space="preserve"
       style="font-size:0.705556px;line-height:1.25;font-family:Caladea;-inkscape-font-specification:Caladea;font-variant-ligatures:none;text-align:end;text-anchor:end;stroke-width:0.264583"
       x="33.725193"
       y="0.94999999"
       id="text157"><tspan
         sodipodi:role="line"
         id="tspan157"
         style="font-style:normal;font-variant:normal;font-weight:normal;font-stretch:normal;font-size:0.705556px;font-family:Consolas;-inkscape-font-specification:Consolas;stroke-width:0.264583"
         x="33.725193"
         y="0.94999999">28</tspan></text>
  </g>
</svg>
