<?xml version="1.0" encoding="UTF-8" standalone="no"?>
<!-- Created with Inkscape (http://www.inkscape.org/) -->

<svg
   width="40mm"
   height="40mm"
   viewBox="0 0 40 40"
   version="1.1"
   id="svg1"
   inkscape:version="1.3 (0e150ed6c4, 2023-07-21)"
   sodipodi:docname="2019_v2.svg"
   xml:space="preserve"
   xmlns:inkscape="http://www.inkscape.org/namespaces/inkscape"
   xmlns:sodipodi="http://sodipodi.sourceforge.net/DTD/sodipodi-0.dtd"
   xmlns="http://www.w3.org/2000/svg"
   xmlns:svg="http://www.w3.org/2000/svg"><sodipodi:namedview
     id="namedview1"
     pagecolor="#ffffff"
     bordercolor="#666666"
     borderopacity="1.0"
     inkscape:showpageshadow="2"
     inkscape:pageopacity="0.0"
     inkscape:pagecheckerboard="0"
     inkscape:deskcolor="#d1d1d1"
     inkscape:document-units="mm"
     inkscape:zoom="4.0000002"
     inkscape:cx="43.874998"
     inkscape:cy="37.249998"
     inkscape:window-width="1920"
     inkscape:window-height="1001"
     inkscape:window-x="-9"
     inkscape:window-y="579"
     inkscape:window-maximized="1"
     inkscape:current-layer="layer1"
     showgrid="true"><inkscape:grid
       id="grid1"
       units="mm"
       originx="0"
       originy="0"
       spacingx="1"
       spacingy="1"
       empcolor="#0099e5"
       empopacity="0.30196078"
       color="#0099e5"
       opacity="0.14901961"
       empspacing="5"
       dotted="false"
       gridanglex="30"
       gridanglez="30"
       visible="true" /></sodipodi:namedview><defs
     id="defs1" /><g
     inkscape:label="Layer 1"
     inkscape:groupmode="layer"
     id="layer1"><path
       style="fill:none;stroke:#000000;stroke-width:0.1;stroke-linecap:butt;stroke-linejoin:miter;stroke-dasharray:none;stroke-opacity:1"
       d="M 4.9999999,1 V 20.999995"
       id="path5"
       sodipodi:nodetypes="cc" /><path
       style="fill:none;stroke:#808080;stroke-width:0.1;stroke-linecap:butt;stroke-linejoin:miter;stroke-dasharray:none;stroke-opacity:1"
       d="M 20.999999,1 V 20.999995"
       id="path10"
       sodipodi:nodetypes="cc" /><path
       style="fill:none;stroke:#000000;stroke-width:0.1;stroke-linecap:butt;stroke-linejoin:miter;stroke-dasharray:none;stroke-opacity:1"
       d="m 1,4.999995 19.999999,0"
       id="path4"
       sodipodi:nodetypes="cc" /><path
       style="fill:none;stroke:#808080;stroke-width:0.1;stroke-linecap:butt;stroke-linejoin:miter;stroke-dasharray:none;stroke-opacity:1"
       d="m 8.9999995,1 v 13.733232 6.266763"
       id="path7"
       sodipodi:nodetypes="ccc" /><path
       style="fill:none;stroke:#808080;stroke-width:0.1;stroke-linecap:butt;stroke-linejoin:miter;stroke-dasharray:none;stroke-opacity:1"
       d="M 13,1 V 20.999995"
       id="path8"
       sodipodi:nodetypes="cc" /><path
       style="fill:none;stroke:#808080;stroke-width:0.1;stroke-linecap:butt;stroke-linejoin:miter;stroke-dasharray:none;stroke-opacity:1"
       d="M 16.999999,1 V 20.999995"
       id="path9"
       sodipodi:nodetypes="cc" /><path
       style="fill:none;stroke:#808080;stroke-width:0.1;stroke-linecap:butt;stroke-linejoin:miter;stroke-dasharray:none;stroke-opacity:1"
       d="m 1,8.999995 19.999999,0"
       id="path12"
       sodipodi:nodetypes="cc" /><path
       style="fill:none;stroke:#808080;stroke-width:0.1;stroke-linecap:butt;stroke-linejoin:miter;stroke-dasharray:none;stroke-opacity:1"
       d="m 1,12.999995 h 10.786586 l 9.213413,0"
       id="path13"
       sodipodi:nodetypes="ccc" /><path
       style="fill:none;stroke:#808080;stroke-width:0.1;stroke-linecap:butt;stroke-linejoin:miter;stroke-dasharray:none;stroke-opacity:1"
       d="m 1,16.999995 19.999999,0"
       id="path14"
       sodipodi:nodetypes="cc" /><path
       style="fill:none;stroke:#808080;stroke-width:0.1;stroke-linecap:butt;stroke-linejoin:miter;stroke-dasharray:none;stroke-opacity:1"
       d="m 1,20.999995 19.999999,0"
       id="path15"
       sodipodi:nodetypes="cc" /><path
       style="fill:none;stroke:#808080;stroke-width:0.1;stroke-linecap:butt;stroke-linejoin:miter;stroke-dasharray:none;stroke-opacity:1"
       d="M 1,1 20.999999,1"
       id="path95"
       sodipodi:nodetypes="cc" /><path
       style="fill:none;stroke:#808080;stroke-width:0.1;stroke-linecap:butt;stroke-linejoin:miter;stroke-dasharray:none;stroke-opacity:1"
       d="M 1,1 V 20.999995"
       id="path410"
       sodipodi:nodetypes="cc" /><text
       xml:space="preserve"
       style="font-size:0.705556px;line-height:1.25;font-family:Caladea;-inkscape-font-specification:Caladea;font-variant-ligatures:none;text-align:end;text-anchor:end;stroke-width:0.264583"
       x="5.3576012"
       y="0.94379884"
       id="text410"><tspan
         sodipodi:role="line"
         id="tspan410"
         style="font-style:normal;font-variant:normal;font-weight:normal;font-stretch:normal;font-size:0.705556px;font-family:Consolas;-inkscape-font-specification:Consolas;stroke-width:0.264583"
         x="5.3576012"
         y="0.94379884">0</tspan></text><text
       xml:space="preserve"
       style="font-size:0.705556px;line-height:1.25;font-family:Caladea;-inkscape-font-specification:Caladea;font-variant-ligatures:none;text-align:end;text-anchor:end;stroke-width:0.264583"
       x="9.3731041"
       y="0.94999999"
       id="text411"><tspan
         sodipodi:role="line"
         id="tspan411"
         style="font-style:normal;font-variant:normal;font-weight:normal;font-stretch:normal;font-size:0.705556px;font-family:Consolas;-inkscape-font-specification:Consolas;stroke-width:0.264583"
         x="9.3731041"
         y="0.94999999">4</tspan></text><text
       xml:space="preserve"
       style="font-size:0.705556px;line-height:1.25;font-family:Caladea;-inkscape-font-specification:Caladea;font-variant-ligatures:none;text-align:end;text-anchor:end;stroke-width:0.264583"
       x="13.346922"
       y="0.94379884"
       id="text412"><tspan
         sodipodi:role="line"
         id="tspan412"
         style="font-style:normal;font-variant:normal;font-weight:normal;font-stretch:normal;font-size:0.705556px;font-family:Consolas;-inkscape-font-specification:Consolas;stroke-width:0.264583"
         x="13.346922"
         y="0.94379884">8</tspan></text><text
       xml:space="preserve"
       style="font-size:0.705556px;line-height:1.25;font-family:Caladea;-inkscape-font-specification:Caladea;font-variant-ligatures:none;text-align:end;text-anchor:end;stroke-width:0.264583"
       x="17.729328"
       y="0.94999999"
       id="text413"><tspan
         sodipodi:role="line"
         id="tspan413"
         style="font-style:normal;font-variant:normal;font-weight:normal;font-stretch:normal;font-size:0.705556px;font-family:Consolas;-inkscape-font-specification:Consolas;stroke-width:0.264583"
         x="17.729328"
         y="0.94999999">12</tspan></text><text
       xml:space="preserve"
       style="font-size:0.705556px;line-height:1.25;font-family:Caladea;-inkscape-font-specification:Caladea;font-variant-ligatures:none;text-align:end;text-anchor:end;stroke-width:0.264583"
       x="21.729328"
       y="0.94379884"
       id="text414"><tspan
         sodipodi:role="line"
         id="tspan414"
         style="font-style:normal;font-variant:normal;font-weight:normal;font-stretch:normal;font-size:0.705556px;font-family:Consolas;-inkscape-font-specification:Consolas;stroke-width:0.264583"
         x="21.729328"
         y="0.94379884">16</tspan></text><text
       xml:space="preserve"
       style="font-size:0.705556px;line-height:1.25;font-family:Caladea;-inkscape-font-specification:Caladea;font-variant-ligatures:none;text-align:end;text-anchor:end;stroke-width:0.264583"
       x="0.96825904"
       y="9.4502745"
       id="text416"><tspan
         sodipodi:role="line"
         id="tspan416"
         style="font-style:normal;font-variant:normal;font-weight:normal;font-stretch:normal;font-size:0.705556px;font-family:Consolas;-inkscape-font-specification:Consolas;stroke-width:0.264583"
         x="0.96825904"
         y="9.4502745">4</tspan></text><text
       xml:space="preserve"
       style="font-size:0.705556px;line-height:1.25;font-family:Caladea;-inkscape-font-specification:Caladea;font-variant-ligatures:none;text-align:end;text-anchor:end;stroke-width:0.264583"
       x="0.99065214"
       y="13.444078"
       id="text417"><tspan
         sodipodi:role="line"
         id="tspan417"
         style="font-style:normal;font-variant:normal;font-weight:normal;font-stretch:normal;font-size:0.705556px;font-family:Consolas;-inkscape-font-specification:Consolas;stroke-width:0.264583"
         x="0.99065214"
         y="13.444078">8</tspan></text><text
       xml:space="preserve"
       style="font-size:0.705556px;line-height:1.25;font-family:Caladea;-inkscape-font-specification:Caladea;font-variant-ligatures:none;text-align:end;text-anchor:end;stroke-width:0.264583"
       x="0.99065214"
       y="17.450279"
       id="text418"><tspan
         sodipodi:role="line"
         id="tspan418"
         style="font-style:normal;font-variant:normal;font-weight:normal;font-stretch:normal;font-size:0.705556px;font-family:Consolas;-inkscape-font-specification:Consolas;stroke-width:0.264583"
         x="0.99065214"
         y="17.450279">12</tspan></text><text
       xml:space="preserve"
       style="font-size:0.705556px;line-height:1.25;font-family:Caladea;-inkscape-font-specification:Caladea;font-variant-ligatures:none;text-align:end;text-anchor:end;stroke-width:0.264583"
       x="0.99065214"
       y="21.450279"
       id="text419"><tspan
         sodipodi:role="line"
         id="tspan419"
         style="font-style:normal;font-variant:normal;font-weight:normal;font-stretch:normal;font-size:0.705556px;font-family:Consolas;-inkscape-font-specification:Consolas;stroke-width:0.264583"
         x="0.99065214"
         y="21.450279">16</tspan></text><text
       xml:space="preserve"
       style="font-size:0.705556px;line-height:1.25;font-family:Caladea;-inkscape-font-specification:Caladea;font-variant-ligatures:none;text-align:end;text-anchor:end;stroke-width:0.264583"
       x="0.98031688"
       y="5.4564757"
       id="text435"><tspan
         sodipodi:role="line"
         id="tspan435"
         style="font-style:normal;font-variant:normal;font-weight:normal;font-stretch:normal;font-size:0.705556px;font-family:Consolas;-inkscape-font-specification:Consolas;stroke-width:0.264583"
         x="0.98031688"
         y="5.4564757">0</tspan></text><text
       xml:space="preserve"
       style="font-size:1.76389px;line-height:1.25;font-family:Caladea;-inkscape-font-specification:Caladea;font-variant-ligatures:none;text-align:end;text-anchor:end;stroke-width:0.264583"
       x="37.652485"
       y="30.984501"
       id="text22"><tspan
         sodipodi:role="line"
         id="tspan22"
         style="font-style:normal;font-variant:normal;font-weight:normal;font-stretch:normal;font-size:1.76389px;font-family:Consolas;-inkscape-font-specification:Consolas;stroke-width:0.264583"
         x="37.652485"
         y="30.984501">Path 0:</tspan></text><rect
       style="fill:#ff6666;fill-opacity:1;stroke:#000000;stroke-width:0.0999998;stroke-linecap:round;stroke-linejoin:round;stroke-dasharray:none"
       id="rect22"
       width="1.1320002"
       height="1.132"
       x="37.879387"
       y="29.817762" /><text
       xml:space="preserve"
       style="font-size:1.76389px;line-height:1.25;font-family:Caladea;-inkscape-font-specification:Caladea;font-variant-ligatures:none;text-align:end;text-anchor:end;stroke-width:0.264583"
       x="37.652485"
       y="32.984497"
       id="text23"><tspan
         sodipodi:role="line"
         id="tspan23"
         style="font-style:normal;font-variant:normal;font-weight:normal;font-stretch:normal;font-size:1.76389px;font-family:Consolas;-inkscape-font-specification:Consolas;stroke-width:0.264583"
         x="37.652485"
         y="32.984497">Path 1:</tspan></text><rect
       style="fill:#6666ff;fill-opacity:1;stroke:#000000;stroke-width:0.0999998;stroke-linecap:round;stroke-linejoin:round;stroke-dasharray:none"
       id="rect24"
       width="1.1320002"
       height="1.132"
       x="37.879387"
       y="31.817757" /><text
       xml:space="preserve"
       style="font-size:1.76389px;line-height:1.25;font-family:Caladea;-inkscape-font-specification:Caladea;font-variant-ligatures:none;text-align:end;text-anchor:end;stroke-width:0.264583"
       x="37.652485"
       y="34.984497"
       id="text61"><tspan
         sodipodi:role="line"
         id="tspan61"
         style="font-style:normal;font-variant:normal;font-weight:normal;font-stretch:normal;font-size:1.76389px;font-family:Consolas;-inkscape-font-specification:Consolas;stroke-width:0.264583"
         x="37.652485"
         y="34.984497">Path 2:</tspan></text><rect
       style="fill:#ffff00;fill-opacity:1;stroke:#000000;stroke-width:0.0999998;stroke-linecap:round;stroke-linejoin:round;stroke-dasharray:none"
       id="rect61"
       width="1.1320002"
       height="1.132"
       x="37.879387"
       y="33.81776" /><text
       xml:space="preserve"
       style="font-size:1.76389px;line-height:1.25;font-family:Caladea;-inkscape-font-specification:Caladea;font-variant-ligatures:none;text-align:end;text-anchor:end;stroke-width:0.264583"
       x="37.652485"
       y="36.984497"
       id="text63"><tspan
         sodipodi:role="line"
         id="tspan63"
         style="font-style:normal;font-variant:normal;font-weight:normal;font-stretch:normal;font-size:1.76389px;font-family:Consolas;-inkscape-font-specification:Consolas;stroke-width:0.264583"
         x="37.652485"
         y="36.984497">Path 3:</tspan></text><rect
       style="fill:#ff66ff;fill-opacity:1;stroke:#000000;stroke-width:0.0999998;stroke-linecap:round;stroke-linejoin:round;stroke-dasharray:none"
       id="rect64"
       width="1.1320002"
       height="1.132"
       x="37.879387"
       y="35.81776" /><path
       style="fill:none;stroke:#ff6666;stroke-width:0.5;stroke-linecap:round;stroke-linejoin:round;stroke-dasharray:none;stroke-opacity:1"
       d="M 4.9999997,4.999995 V 8.9999949 L 5.0000001,11 5,14 l -1e-7,6.999995"
       id="path66"
       sodipodi:nodetypes="ccccc" /><rect
       style="fill:#66ff33;fill-opacity:1;stroke:#000000;stroke-width:0.0999998;stroke-linecap:round;stroke-linejoin:round;stroke-dasharray:none"
       id="rect26"
       width="1.1320002"
       height="1.132"
       x="37.879387"
       y="37.818001" /><path
       style="fill:none;stroke:#6666ff;stroke-width:0.5;stroke-linecap:round;stroke-linejoin:round;stroke-dasharray:none;stroke-opacity:1"
       d="m 4.9999997,4.999995 7.0000013,5.1e-6 L 15,4.999995 l 3.020999,5.1e-6 h 2.979"
       id="path67"
       sodipodi:nodetypes="ccccc" /><g
       id="g4"
       transform="translate(-20.000001,3.0000001)"><g
         id="g3"
         transform="translate(-9.9998875,-4.0002537)"><g
           id="g2"
           transform="rotate(45)"><path
             style="color:#000000;fill:#ffffff;stroke-linecap:round;stroke-linejoin:round;-inkscape-stroke:none"
             d="m 29.800649,-20.506098 a 0.80927002,0.80926943 0 0 1 -0.80927,0.80927 0.80927002,0.80926943 0 0 1 -0.80927,-0.80927 0.80927002,0.80926943 0 0 1 0.80927,-0.809269 0.80927002,0.80926943 0 0 1 0.80927,0.809269 z"
             id="path1" /><path
             id="path2"
             style="color:#000000;fill:#000000;stroke-linecap:round;stroke-linejoin:round;-inkscape-stroke:none"
             d="m 28.372801,-21.124576 c -0.102732,0.102416 -0.17984,0.230424 -0.221803,0.373081 a 0.25,0.25 0 0 0 -0.145067,0.06906 0.25,0.25 0 0 0 -0.07199,0.176492 0.25,0.25 0 0 0 0.216321,0.245554 c 0.08384,0.285448 0.309833,0.510623 0.595615,0.594152 a 0.25,0.25 0 0 0 0.245919,0.218149 0.25,0.25 0 0 0 0.245554,-0.217783 c 0.285597,-0.08339 0.510935,-0.308925 0.594518,-0.594518 a 0.25,0.25 0 0 0 0.217783,-0.245554 0.25,0.25 0 0 0 -0.218514,-0.247747 c -0.08392,-0.283663 -0.307915,-0.507833 -0.591595,-0.591594 a 0.25,0.25 0 0 0 -0.247746,-0.218514 0.25,0.25 0 0 0 -0.176492,0.07199 0.25,0.25 0 0 0 -0.06943,0.146894 c -0.142598,0.04171 -0.270473,0.118047 -0.373081,0.220341 z m 0.09318,0.09245 c 0.134634,-0.134635 0.320589,-0.217783 0.526186,-0.217783 0.411199,0 0.742143,0.333138 0.742143,0.744335 0,0.411199 -0.330943,0.742143 -0.742143,0.742143 -0.411197,0 -0.743969,-0.331311 -0.743969,-0.742508 0,-0.2056 0.08315,-0.391552 0.217783,-0.526187 z" /></g></g><text
         xml:space="preserve"
         style="font-size:1.05833px;line-height:1.25;font-family:Caladea;-inkscape-font-specification:Caladea;font-variant-ligatures:none;text-align:end;text-anchor:end;stroke-width:0.264583"
         x="25.291052"
         y="2.3374507"
         id="text3"><tspan
           sodipodi:role="line"
           id="tspan3"
           style="font-style:normal;font-variant:normal;font-weight:bold;font-stretch:normal;font-size:1.05833px;font-family:Consolas;-inkscape-font-specification:'Consolas Bold';stroke-width:0.264583"
           x="25.291052"
           y="2.3374507">0</tspan></text></g><path
       style="fill:none;stroke:#ff66ff;stroke-width:0.5;stroke-linecap:round;stroke-linejoin:round;stroke-dasharray:none;stroke-opacity:1"
       d="m 19,3.0000001 -4.000008,2 L 13,8.0000002 11,11 l -1.9999997,4 -4.0000002,3.000001 -2,1"
       id="path70"
       sodipodi:nodetypes="ccccccc" /><g
       id="g19"
       transform="translate(-20.000001,16)"><g
         id="g18"
         transform="translate(-9.9998875,-4.0002537)"><g
           id="g17"
           transform="rotate(45)"><path
             style="color:#000000;fill:#ffffff;stroke-linecap:round;stroke-linejoin:round;-inkscape-stroke:none"
             d="m 29.800649,-20.506098 a 0.80927002,0.80926943 0 0 1 -0.80927,0.80927 0.80927002,0.80926943 0 0 1 -0.80927,-0.80927 0.80927002,0.80926943 0 0 1 0.80927,-0.809269 0.80927002,0.80926943 0 0 1 0.80927,0.809269 z"
             id="path16" /><path
             id="path17"
             style="color:#000000;fill:#000000;stroke-linecap:round;stroke-linejoin:round;-inkscape-stroke:none"
             d="m 28.372801,-21.124576 c -0.102732,0.102416 -0.17984,0.230424 -0.221803,0.373081 a 0.25,0.25 0 0 0 -0.145067,0.06906 0.25,0.25 0 0 0 -0.07199,0.176492 0.25,0.25 0 0 0 0.216321,0.245554 c 0.08384,0.285448 0.309833,0.510623 0.595615,0.594152 a 0.25,0.25 0 0 0 0.245919,0.218149 0.25,0.25 0 0 0 0.245554,-0.217783 c 0.285597,-0.08339 0.510935,-0.308925 0.594518,-0.594518 a 0.25,0.25 0 0 0 0.217783,-0.245554 0.25,0.25 0 0 0 -0.218514,-0.247747 c -0.08392,-0.283663 -0.307915,-0.507833 -0.591595,-0.591594 a 0.25,0.25 0 0 0 -0.247746,-0.218514 0.25,0.25 0 0 0 -0.176492,0.07199 0.25,0.25 0 0 0 -0.06943,0.146894 c -0.142598,0.04171 -0.270473,0.118047 -0.373081,0.220341 z m 0.09318,0.09245 c 0.134634,-0.134635 0.320589,-0.217783 0.526186,-0.217783 0.411199,0 0.742143,0.333138 0.742143,0.744335 0,0.411199 -0.330943,0.742143 -0.742143,0.742143 -0.411197,0 -0.743969,-0.331311 -0.743969,-0.742508 0,-0.2056 0.08315,-0.391552 0.217783,-0.526187 z" /></g></g><text
         xml:space="preserve"
         style="font-size:1.05833px;line-height:1.25;font-family:Caladea;-inkscape-font-specification:Caladea;font-variant-ligatures:none;text-align:end;text-anchor:end;stroke-width:0.264583"
         x="25.291052"
         y="2.3374507"
         id="text18"><tspan
           sodipodi:role="line"
           id="tspan18"
           style="font-style:normal;font-variant:normal;font-weight:bold;font-stretch:normal;font-size:1.05833px;font-family:Consolas;-inkscape-font-specification:'Consolas Bold';stroke-width:0.264583"
           x="25.291052"
           y="2.3374507">3</tspan></text></g><g
       id="g22"
       transform="translate(-10,3.0000001)"><g
         id="g21"
         transform="translate(-9.9998875,-4.0002537)"><g
           id="g20"
           transform="rotate(45)"><path
             style="color:#000000;fill:#ffffff;stroke-linecap:round;stroke-linejoin:round;-inkscape-stroke:none"
             d="m 29.800649,-20.506098 a 0.80927002,0.80926943 0 0 1 -0.80927,0.80927 0.80927002,0.80926943 0 0 1 -0.80927,-0.80927 0.80927002,0.80926943 0 0 1 0.80927,-0.809269 0.80927002,0.80926943 0 0 1 0.80927,0.809269 z"
             id="path19" /><path
             id="path20"
             style="color:#000000;fill:#000000;stroke-linecap:round;stroke-linejoin:round;-inkscape-stroke:none"
             d="m 28.372801,-21.124576 c -0.102732,0.102416 -0.17984,0.230424 -0.221803,0.373081 a 0.25,0.25 0 0 0 -0.145067,0.06906 0.25,0.25 0 0 0 -0.07199,0.176492 0.25,0.25 0 0 0 0.216321,0.245554 c 0.08384,0.285448 0.309833,0.510623 0.595615,0.594152 a 0.25,0.25 0 0 0 0.245919,0.218149 0.25,0.25 0 0 0 0.245554,-0.217783 c 0.285597,-0.08339 0.510935,-0.308925 0.594518,-0.594518 a 0.25,0.25 0 0 0 0.217783,-0.245554 0.25,0.25 0 0 0 -0.218514,-0.247747 c -0.08392,-0.283663 -0.307915,-0.507833 -0.591595,-0.591594 a 0.25,0.25 0 0 0 -0.247746,-0.218514 0.25,0.25 0 0 0 -0.176492,0.07199 0.25,0.25 0 0 0 -0.06943,0.146894 c -0.142598,0.04171 -0.270473,0.118047 -0.373081,0.220341 z m 0.09318,0.09245 c 0.134634,-0.134635 0.320589,-0.217783 0.526186,-0.217783 0.411199,0 0.742143,0.333138 0.742143,0.744335 0,0.411199 -0.330943,0.742143 -0.742143,0.742143 -0.411197,0 -0.743969,-0.331311 -0.743969,-0.742508 0,-0.2056 0.08315,-0.391552 0.217783,-0.526187 z" /></g></g><text
         xml:space="preserve"
         style="font-size:1.05833px;line-height:1.25;font-family:Caladea;-inkscape-font-specification:Caladea;font-variant-ligatures:none;text-align:end;text-anchor:end;stroke-width:0.264583"
         x="25.291052"
         y="2.3374507"
         id="text21"><tspan
           sodipodi:role="line"
           id="tspan21"
           style="font-style:normal;font-variant:normal;font-weight:bold;font-stretch:normal;font-size:1.05833px;font-family:Consolas;-inkscape-font-specification:'Consolas Bold';stroke-width:0.264583"
           x="25.291052"
           y="2.3374507">5</tspan></text></g><path
       style="fill:none;stroke:#ffff00;stroke-width:0.5;stroke-linecap:round;stroke-linejoin:round;stroke-dasharray:none;stroke-opacity:1"
       d="M 12,5.0000001 13,8.0000002 15,9.0000003 21.000001,12"
       id="path68"
       sodipodi:nodetypes="cccc" /><g
       id="g25"
       transform="translate(-13,3.0000001)"><g
         id="g24"
         transform="translate(-9.9998875,-4.0002537)"><g
           id="g23"
           transform="rotate(45)"><path
             style="color:#000000;fill:#ffffff;stroke-linecap:round;stroke-linejoin:round;-inkscape-stroke:none"
             d="m 29.800649,-20.506098 a 0.80927002,0.80926943 0 0 1 -0.80927,0.80927 0.80927002,0.80926943 0 0 1 -0.80927,-0.80927 0.80927002,0.80926943 0 0 1 0.80927,-0.809269 0.80927002,0.80926943 0 0 1 0.80927,0.809269 z"
             id="path22" /><path
             id="path23"
             style="color:#000000;fill:#000000;stroke-linecap:round;stroke-linejoin:round;-inkscape-stroke:none"
             d="m 28.372801,-21.124576 c -0.102732,0.102416 -0.17984,0.230424 -0.221803,0.373081 a 0.25,0.25 0 0 0 -0.145067,0.06906 0.25,0.25 0 0 0 -0.07199,0.176492 0.25,0.25 0 0 0 0.216321,0.245554 c 0.08384,0.285448 0.309833,0.510623 0.595615,0.594152 a 0.25,0.25 0 0 0 0.245919,0.218149 0.25,0.25 0 0 0 0.245554,-0.217783 c 0.285597,-0.08339 0.510935,-0.308925 0.594518,-0.594518 a 0.25,0.25 0 0 0 0.217783,-0.245554 0.25,0.25 0 0 0 -0.218514,-0.247747 c -0.08392,-0.283663 -0.307915,-0.507833 -0.591595,-0.591594 a 0.25,0.25 0 0 0 -0.247746,-0.218514 0.25,0.25 0 0 0 -0.176492,0.07199 0.25,0.25 0 0 0 -0.06943,0.146894 c -0.142598,0.04171 -0.270473,0.118047 -0.373081,0.220341 z m 0.09318,0.09245 c 0.134634,-0.134635 0.320589,-0.217783 0.526186,-0.217783 0.411199,0 0.742143,0.333138 0.742143,0.744335 0,0.411199 -0.330943,0.742143 -0.742143,0.742143 -0.411197,0 -0.743969,-0.331311 -0.743969,-0.742508 0,-0.2056 0.08315,-0.391552 0.217783,-0.526187 z" /></g></g><text
         xml:space="preserve"
         style="font-size:1.05833px;line-height:1.25;font-family:Caladea;-inkscape-font-specification:Caladea;font-variant-ligatures:none;text-align:end;text-anchor:end;stroke-width:0.264583"
         x="25.291052"
         y="2.3374507"
         id="text24"><tspan
           sodipodi:role="line"
           id="tspan24"
           style="font-style:normal;font-variant:normal;font-weight:bold;font-stretch:normal;font-size:1.05833px;font-family:Consolas;-inkscape-font-specification:'Consolas Bold';stroke-width:0.264583"
           x="25.291052"
           y="2.3374507">4</tspan></text></g><path
       style="fill:none;stroke:#66ff33;stroke-width:0.5;stroke-linecap:round;stroke-linejoin:round;stroke-dasharray:none;stroke-opacity:1"
       d="m 19.000001,3.0000001 -1,2 L 14.999997,8.999995 11,11 l -2.9999998,2 -3.0000001,2 -2,4.000001"
       id="path71"
       sodipodi:nodetypes="ccccccc" /><g
       id="g28"
       transform="translate(-14,9.0000003)"><g
         id="g27"
         transform="translate(-9.9998875,-4.0002537)"><g
           id="g26"
           transform="rotate(45)"><path
             style="color:#000000;fill:#ffffff;stroke-linecap:round;stroke-linejoin:round;-inkscape-stroke:none"
             d="m 29.800649,-20.506098 a 0.80927002,0.80926943 0 0 1 -0.80927,0.80927 0.80927002,0.80926943 0 0 1 -0.80927,-0.80927 0.80927002,0.80926943 0 0 1 0.80927,-0.809269 0.80927002,0.80926943 0 0 1 0.80927,0.809269 z"
             id="path25" /><path
             id="path26"
             style="color:#000000;fill:#000000;stroke-linecap:round;stroke-linejoin:round;-inkscape-stroke:none"
             d="m 28.372801,-21.124576 c -0.102732,0.102416 -0.17984,0.230424 -0.221803,0.373081 a 0.25,0.25 0 0 0 -0.145067,0.06906 0.25,0.25 0 0 0 -0.07199,0.176492 0.25,0.25 0 0 0 0.216321,0.245554 c 0.08384,0.285448 0.309833,0.510623 0.595615,0.594152 a 0.25,0.25 0 0 0 0.245919,0.218149 0.25,0.25 0 0 0 0.245554,-0.217783 c 0.285597,-0.08339 0.510935,-0.308925 0.594518,-0.594518 a 0.25,0.25 0 0 0 0.217783,-0.245554 0.25,0.25 0 0 0 -0.218514,-0.247747 c -0.08392,-0.283663 -0.307915,-0.507833 -0.591595,-0.591594 a 0.25,0.25 0 0 0 -0.247746,-0.218514 0.25,0.25 0 0 0 -0.176492,0.07199 0.25,0.25 0 0 0 -0.06943,0.146894 c -0.142598,0.04171 -0.270473,0.118047 -0.373081,0.220341 z m 0.09318,0.09245 c 0.134634,-0.134635 0.320589,-0.217783 0.526186,-0.217783 0.411199,0 0.742143,0.333138 0.742143,0.744335 0,0.411199 -0.330943,0.742143 -0.742143,0.742143 -0.411197,0 -0.743969,-0.331311 -0.743969,-0.742508 0,-0.2056 0.08315,-0.391552 0.217783,-0.526187 z" /></g></g><text
         xml:space="preserve"
         style="font-size:1.05833px;line-height:1.25;font-family:Caladea;-inkscape-font-specification:Caladea;font-variant-ligatures:none;text-align:end;text-anchor:end;stroke-width:0.264583"
         x="25.579033"
         y="2.3397715"
         id="text27"><tspan
           sodipodi:role="line"
           id="tspan27"
           style="font-style:normal;font-variant:normal;font-weight:bold;font-stretch:normal;font-size:1.05833px;font-family:Consolas;-inkscape-font-specification:'Consolas Bold';stroke-width:0.264583"
           x="25.579033"
           y="2.3397715">11</tspan></text></g><g
       id="g31"
       transform="translate(-12,6.0000002)"><g
         id="g30"
         transform="translate(-9.9998875,-4.0002537)"><g
           id="g29"
           transform="rotate(45)"><path
             style="color:#000000;fill:#ffffff;stroke-linecap:round;stroke-linejoin:round;-inkscape-stroke:none"
             d="m 29.800649,-20.506098 a 0.80927002,0.80926943 0 0 1 -0.80927,0.80927 0.80927002,0.80926943 0 0 1 -0.80927,-0.80927 0.80927002,0.80926943 0 0 1 0.80927,-0.809269 0.80927002,0.80926943 0 0 1 0.80927,0.809269 z"
             id="path28" /><path
             id="path29"
             style="color:#000000;fill:#000000;stroke-linecap:round;stroke-linejoin:round;-inkscape-stroke:none"
             d="m 28.372801,-21.124576 c -0.102732,0.102416 -0.17984,0.230424 -0.221803,0.373081 a 0.25,0.25 0 0 0 -0.145067,0.06906 0.25,0.25 0 0 0 -0.07199,0.176492 0.25,0.25 0 0 0 0.216321,0.245554 c 0.08384,0.285448 0.309833,0.510623 0.595615,0.594152 a 0.25,0.25 0 0 0 0.245919,0.218149 0.25,0.25 0 0 0 0.245554,-0.217783 c 0.285597,-0.08339 0.510935,-0.308925 0.594518,-0.594518 a 0.25,0.25 0 0 0 0.217783,-0.245554 0.25,0.25 0 0 0 -0.218514,-0.247747 c -0.08392,-0.283663 -0.307915,-0.507833 -0.591595,-0.591594 a 0.25,0.25 0 0 0 -0.247746,-0.218514 0.25,0.25 0 0 0 -0.176492,0.07199 0.25,0.25 0 0 0 -0.06943,0.146894 c -0.142598,0.04171 -0.270473,0.118047 -0.373081,0.220341 z m 0.09318,0.09245 c 0.134634,-0.134635 0.320589,-0.217783 0.526186,-0.217783 0.411199,0 0.742143,0.333138 0.742143,0.744335 0,0.411199 -0.330943,0.742143 -0.742143,0.742143 -0.411197,0 -0.743969,-0.331311 -0.743969,-0.742508 0,-0.2056 0.08315,-0.391552 0.217783,-0.526187 z" /></g></g><text
         xml:space="preserve"
         style="font-size:1.05833px;line-height:1.25;font-family:Caladea;-inkscape-font-specification:Caladea;font-variant-ligatures:none;text-align:end;text-anchor:end;stroke-width:0.264583"
         x="25.291052"
         y="2.3374507"
         id="text30"><tspan
           sodipodi:role="line"
           id="tspan30"
           style="font-style:normal;font-variant:normal;font-weight:bold;font-stretch:normal;font-size:1.05833px;font-family:Consolas;-inkscape-font-specification:'Consolas Bold';stroke-width:0.264583"
           x="25.291052"
           y="2.3374507">7</tspan></text></g><g
       id="g38"
       transform="translate(-7.0000002,3.0000001)"><g
         id="g37"
         transform="translate(-9.9998875,-4.0002537)"><g
           id="g36"
           transform="rotate(45)"><path
             style="color:#000000;fill:#ffffff;stroke-linecap:round;stroke-linejoin:round;-inkscape-stroke:none"
             d="m 29.800649,-20.506098 a 0.80927002,0.80926943 0 0 1 -0.80927,0.80927 0.80927002,0.80926943 0 0 1 -0.80927,-0.80927 0.80927002,0.80926943 0 0 1 0.80927,-0.809269 0.80927002,0.80926943 0 0 1 0.80927,0.809269 z"
             id="path35" /><path
             id="path36"
             style="color:#000000;fill:#000000;stroke-linecap:round;stroke-linejoin:round;-inkscape-stroke:none"
             d="m 28.372801,-21.124576 c -0.102732,0.102416 -0.17984,0.230424 -0.221803,0.373081 a 0.25,0.25 0 0 0 -0.145067,0.06906 0.25,0.25 0 0 0 -0.07199,0.176492 0.25,0.25 0 0 0 0.216321,0.245554 c 0.08384,0.285448 0.309833,0.510623 0.595615,0.594152 a 0.25,0.25 0 0 0 0.245919,0.218149 0.25,0.25 0 0 0 0.245554,-0.217783 c 0.285597,-0.08339 0.510935,-0.308925 0.594518,-0.594518 a 0.25,0.25 0 0 0 0.217783,-0.245554 0.25,0.25 0 0 0 -0.218514,-0.247747 c -0.08392,-0.283663 -0.307915,-0.507833 -0.591595,-0.591594 a 0.25,0.25 0 0 0 -0.247746,-0.218514 0.25,0.25 0 0 0 -0.176492,0.07199 0.25,0.25 0 0 0 -0.06943,0.146894 c -0.142598,0.04171 -0.270473,0.118047 -0.373081,0.220341 z m 0.09318,0.09245 c 0.134634,-0.134635 0.320589,-0.217783 0.526186,-0.217783 0.411199,0 0.742143,0.333138 0.742143,0.744335 0,0.411199 -0.330943,0.742143 -0.742143,0.742143 -0.411197,0 -0.743969,-0.331311 -0.743969,-0.742508 0,-0.2056 0.08315,-0.391552 0.217783,-0.526187 z" /></g></g><text
         xml:space="preserve"
         style="font-size:1.05833px;line-height:1.25;font-family:Caladea;-inkscape-font-specification:Caladea;font-variant-ligatures:none;text-align:end;text-anchor:end;stroke-width:0.264583"
         x="25.291052"
         y="2.3374507"
         id="text37"><tspan
           sodipodi:role="line"
           id="tspan37"
           style="font-style:normal;font-variant:normal;font-weight:bold;font-stretch:normal;font-size:1.05833px;font-family:Consolas;-inkscape-font-specification:'Consolas Bold';stroke-width:0.264583"
           x="25.291052"
           y="2.3374507">6</tspan></text></g><g
       id="g41"
       transform="translate(-10,7.0000002)"><g
         id="g40"
         transform="translate(-9.9998875,-4.0002537)"><g
           id="g39"
           transform="rotate(45)"><path
             style="color:#000000;fill:#ffffff;stroke-linecap:round;stroke-linejoin:round;-inkscape-stroke:none"
             d="m 29.800649,-20.506098 a 0.80927002,0.80926943 0 0 1 -0.80927,0.80927 0.80927002,0.80926943 0 0 1 -0.80927,-0.80927 0.80927002,0.80926943 0 0 1 0.80927,-0.809269 0.80927002,0.80926943 0 0 1 0.80927,0.809269 z"
             id="path38" /><path
             id="path39"
             style="color:#000000;fill:#000000;stroke-linecap:round;stroke-linejoin:round;-inkscape-stroke:none"
             d="m 28.372801,-21.124576 c -0.102732,0.102416 -0.17984,0.230424 -0.221803,0.373081 a 0.25,0.25 0 0 0 -0.145067,0.06906 0.25,0.25 0 0 0 -0.07199,0.176492 0.25,0.25 0 0 0 0.216321,0.245554 c 0.08384,0.285448 0.309833,0.510623 0.595615,0.594152 a 0.25,0.25 0 0 0 0.245919,0.218149 0.25,0.25 0 0 0 0.245554,-0.217783 c 0.285597,-0.08339 0.510935,-0.308925 0.594518,-0.594518 a 0.25,0.25 0 0 0 0.217783,-0.245554 0.25,0.25 0 0 0 -0.218514,-0.247747 c -0.08392,-0.283663 -0.307915,-0.507833 -0.591595,-0.591594 a 0.25,0.25 0 0 0 -0.247746,-0.218514 0.25,0.25 0 0 0 -0.176492,0.07199 0.25,0.25 0 0 0 -0.06943,0.146894 c -0.142598,0.04171 -0.270473,0.118047 -0.373081,0.220341 z m 0.09318,0.09245 c 0.134634,-0.134635 0.320589,-0.217783 0.526186,-0.217783 0.411199,0 0.742143,0.333138 0.742143,0.744335 0,0.411199 -0.330943,0.742143 -0.742143,0.742143 -0.411197,0 -0.743969,-0.331311 -0.743969,-0.742508 0,-0.2056 0.08315,-0.391552 0.217783,-0.526187 z" /></g></g><text
         xml:space="preserve"
         style="font-size:1.05833px;line-height:1.25;font-family:Caladea;-inkscape-font-specification:Caladea;font-variant-ligatures:none;text-align:end;text-anchor:end;stroke-width:0.264583"
         x="25.291052"
         y="2.3374507"
         id="text40"><tspan
           sodipodi:role="line"
           id="tspan40"
           style="font-style:normal;font-variant:normal;font-weight:bold;font-stretch:normal;font-size:1.05833px;font-family:Consolas;-inkscape-font-specification:'Consolas Bold';stroke-width:0.264583"
           x="25.291052"
           y="2.3374507">8</tspan></text></g><g
       id="g47"
       transform="translate(-20.000001,13)"><g
         id="g46"
         transform="translate(-9.9998875,-4.0002537)"><g
           id="g45"
           transform="rotate(45)"><path
             style="color:#000000;fill:#ffffff;stroke-linecap:round;stroke-linejoin:round;-inkscape-stroke:none"
             d="m 29.800649,-20.506098 a 0.80927002,0.80926943 0 0 1 -0.80927,0.80927 0.80927002,0.80926943 0 0 1 -0.80927,-0.80927 0.80927002,0.80926943 0 0 1 0.80927,-0.809269 0.80927002,0.80926943 0 0 1 0.80927,0.809269 z"
             id="path44" /><path
             id="path45"
             style="color:#000000;fill:#000000;stroke-linecap:round;stroke-linejoin:round;-inkscape-stroke:none"
             d="m 28.372801,-21.124576 c -0.102732,0.102416 -0.17984,0.230424 -0.221803,0.373081 a 0.25,0.25 0 0 0 -0.145067,0.06906 0.25,0.25 0 0 0 -0.07199,0.176492 0.25,0.25 0 0 0 0.216321,0.245554 c 0.08384,0.285448 0.309833,0.510623 0.595615,0.594152 a 0.25,0.25 0 0 0 0.245919,0.218149 0.25,0.25 0 0 0 0.245554,-0.217783 c 0.285597,-0.08339 0.510935,-0.308925 0.594518,-0.594518 a 0.25,0.25 0 0 0 0.217783,-0.245554 0.25,0.25 0 0 0 -0.218514,-0.247747 c -0.08392,-0.283663 -0.307915,-0.507833 -0.591595,-0.591594 a 0.25,0.25 0 0 0 -0.247746,-0.218514 0.25,0.25 0 0 0 -0.176492,0.07199 0.25,0.25 0 0 0 -0.06943,0.146894 c -0.142598,0.04171 -0.270473,0.118047 -0.373081,0.220341 z m 0.09318,0.09245 c 0.134634,-0.134635 0.320589,-0.217783 0.526186,-0.217783 0.411199,0 0.742143,0.333138 0.742143,0.744335 0,0.411199 -0.330943,0.742143 -0.742143,0.742143 -0.411197,0 -0.743969,-0.331311 -0.743969,-0.742508 0,-0.2056 0.08315,-0.391552 0.217783,-0.526187 z" /></g></g><text
         xml:space="preserve"
         style="font-size:1.05833px;line-height:1.25;font-family:Caladea;-inkscape-font-specification:Caladea;font-variant-ligatures:none;text-align:end;text-anchor:end;stroke-width:0.264583"
         x="25.291052"
         y="2.3374507"
         id="text46"><tspan
           sodipodi:role="line"
           id="tspan46"
           style="font-style:normal;font-variant:normal;font-weight:bold;font-stretch:normal;font-size:1.05833px;font-family:Consolas;-inkscape-font-specification:'Consolas Bold';stroke-width:0.264583"
           x="25.291052"
           y="2.3374507">2</tspan></text></g><path
       style="fill:none;stroke:#ffff00;stroke-width:0.5;stroke-linecap:round;stroke-linejoin:round;stroke-dasharray:none;stroke-opacity:1"
       d="m 5.0000001,12 2.8749616,0.999995 1.1250378,2.000006 3.0000005,6"
       id="path69"
       sodipodi:nodetypes="cccc" /><g
       id="g50"
       transform="translate(-20.000001,10)"><g
         id="g49"
         transform="translate(-9.9998875,-4.0002537)"><g
           id="g48"
           transform="rotate(45)"><path
             style="color:#000000;fill:#ffffff;stroke-linecap:round;stroke-linejoin:round;-inkscape-stroke:none"
             d="m 29.800649,-20.506098 a 0.80927002,0.80926943 0 0 1 -0.80927,0.80927 0.80927002,0.80926943 0 0 1 -0.80927,-0.80927 0.80927002,0.80926943 0 0 1 0.80927,-0.809269 0.80927002,0.80926943 0 0 1 0.80927,0.809269 z"
             id="path47" /><path
             id="path48"
             style="color:#000000;fill:#000000;stroke-linecap:round;stroke-linejoin:round;-inkscape-stroke:none"
             d="m 28.372801,-21.124576 c -0.102732,0.102416 -0.17984,0.230424 -0.221803,0.373081 a 0.25,0.25 0 0 0 -0.145067,0.06906 0.25,0.25 0 0 0 -0.07199,0.176492 0.25,0.25 0 0 0 0.216321,0.245554 c 0.08384,0.285448 0.309833,0.510623 0.595615,0.594152 a 0.25,0.25 0 0 0 0.245919,0.218149 0.25,0.25 0 0 0 0.245554,-0.217783 c 0.285597,-0.08339 0.510935,-0.308925 0.594518,-0.594518 a 0.25,0.25 0 0 0 0.217783,-0.245554 0.25,0.25 0 0 0 -0.218514,-0.247747 c -0.08392,-0.283663 -0.307915,-0.507833 -0.591595,-0.591594 a 0.25,0.25 0 0 0 -0.247746,-0.218514 0.25,0.25 0 0 0 -0.176492,0.07199 0.25,0.25 0 0 0 -0.06943,0.146894 c -0.142598,0.04171 -0.270473,0.118047 -0.373081,0.220341 z m 0.09318,0.09245 c 0.134634,-0.134635 0.320589,-0.217783 0.526186,-0.217783 0.411199,0 0.742143,0.333138 0.742143,0.744335 0,0.411199 -0.330943,0.742143 -0.742143,0.742143 -0.411197,0 -0.743969,-0.331311 -0.743969,-0.742508 0,-0.2056 0.08315,-0.391552 0.217783,-0.526187 z" /></g></g><text
         xml:space="preserve"
         style="font-size:1.05833px;line-height:1.25;font-family:Caladea;-inkscape-font-specification:Caladea;font-variant-ligatures:none;text-align:end;text-anchor:end;stroke-width:0.264583"
         x="25.291052"
         y="2.3374507"
         id="text49"><tspan
           sodipodi:role="line"
           id="tspan49"
           style="font-style:normal;font-variant:normal;font-weight:bold;font-stretch:normal;font-size:1.05833px;font-family:Consolas;-inkscape-font-specification:'Consolas Bold';stroke-width:0.264583"
           x="25.291052"
           y="2.3374507">1</tspan></text></g><g
       id="g56"
       transform="translate(-16,13)"><g
         id="g55"
         transform="translate(-9.9998875,-4.0002537)"><g
           id="g54"
           transform="rotate(45)"><path
             style="color:#000000;fill:#ffffff;stroke-linecap:round;stroke-linejoin:round;-inkscape-stroke:none"
             d="m 29.800649,-20.506098 a 0.80927002,0.80926943 0 0 1 -0.80927,0.80927 0.80927002,0.80926943 0 0 1 -0.80927,-0.80927 0.80927002,0.80926943 0 0 1 0.80927,-0.809269 0.80927002,0.80926943 0 0 1 0.80927,0.809269 z"
             id="path53" /><path
             id="path54"
             style="color:#000000;fill:#000000;stroke-linecap:round;stroke-linejoin:round;-inkscape-stroke:none"
             d="m 28.372801,-21.124576 c -0.102732,0.102416 -0.17984,0.230424 -0.221803,0.373081 a 0.25,0.25 0 0 0 -0.145067,0.06906 0.25,0.25 0 0 0 -0.07199,0.176492 0.25,0.25 0 0 0 0.216321,0.245554 c 0.08384,0.285448 0.309833,0.510623 0.595615,0.594152 a 0.25,0.25 0 0 0 0.245919,0.218149 0.25,0.25 0 0 0 0.245554,-0.217783 c 0.285597,-0.08339 0.510935,-0.308925 0.594518,-0.594518 a 0.25,0.25 0 0 0 0.217783,-0.245554 0.25,0.25 0 0 0 -0.218514,-0.247747 c -0.08392,-0.283663 -0.307915,-0.507833 -0.591595,-0.591594 a 0.25,0.25 0 0 0 -0.247746,-0.218514 0.25,0.25 0 0 0 -0.176492,0.07199 0.25,0.25 0 0 0 -0.06943,0.146894 c -0.142598,0.04171 -0.270473,0.118047 -0.373081,0.220341 z m 0.09318,0.09245 c 0.134634,-0.134635 0.320589,-0.217783 0.526186,-0.217783 0.411199,0 0.742143,0.333138 0.742143,0.744335 0,0.411199 -0.330943,0.742143 -0.742143,0.742143 -0.411197,0 -0.743969,-0.331311 -0.743969,-0.742508 0,-0.2056 0.08315,-0.391552 0.217783,-0.526187 z" /></g></g><text
         xml:space="preserve"
         style="font-size:1.05833px;line-height:1.25;font-family:Caladea;-inkscape-font-specification:Caladea;font-variant-ligatures:none;text-align:end;text-anchor:end;stroke-width:0.264583"
         x="25.565969"
         y="2.3371925"
         id="text55"><tspan
           sodipodi:role="line"
           id="tspan55"
           style="font-style:normal;font-variant:normal;font-weight:bold;font-stretch:normal;font-size:1.05833px;font-family:Consolas;-inkscape-font-specification:'Consolas Bold';stroke-width:0.264583"
           x="25.565969"
           y="2.3371925">10</tspan></text></g><g
       id="g59"
       transform="translate(-17,11)"><g
         id="g58"
         transform="translate(-9.9998875,-4.0002537)"><g
           id="g57"
           transform="rotate(45)"><path
             style="color:#000000;fill:#ffffff;stroke-linecap:round;stroke-linejoin:round;-inkscape-stroke:none"
             d="m 29.800649,-20.506098 a 0.80927002,0.80926943 0 0 1 -0.80927,0.80927 0.80927002,0.80926943 0 0 1 -0.80927,-0.80927 0.80927002,0.80926943 0 0 1 0.80927,-0.809269 0.80927002,0.80926943 0 0 1 0.80927,0.809269 z"
             id="path56" /><path
             id="path57"
             style="color:#000000;fill:#000000;stroke-linecap:round;stroke-linejoin:round;-inkscape-stroke:none"
             d="m 28.372801,-21.124576 c -0.102732,0.102416 -0.17984,0.230424 -0.221803,0.373081 a 0.25,0.25 0 0 0 -0.145067,0.06906 0.25,0.25 0 0 0 -0.07199,0.176492 0.25,0.25 0 0 0 0.216321,0.245554 c 0.08384,0.285448 0.309833,0.510623 0.595615,0.594152 a 0.25,0.25 0 0 0 0.245919,0.218149 0.25,0.25 0 0 0 0.245554,-0.217783 c 0.285597,-0.08339 0.510935,-0.308925 0.594518,-0.594518 a 0.25,0.25 0 0 0 0.217783,-0.245554 0.25,0.25 0 0 0 -0.218514,-0.247747 c -0.08392,-0.283663 -0.307915,-0.507833 -0.591595,-0.591594 a 0.25,0.25 0 0 0 -0.247746,-0.218514 0.25,0.25 0 0 0 -0.176492,0.07199 0.25,0.25 0 0 0 -0.06943,0.146894 c -0.142598,0.04171 -0.270473,0.118047 -0.373081,0.220341 z m 0.09318,0.09245 c 0.134634,-0.134635 0.320589,-0.217783 0.526186,-0.217783 0.411199,0 0.742143,0.333138 0.742143,0.744335 0,0.411199 -0.330943,0.742143 -0.742143,0.742143 -0.411197,0 -0.743969,-0.331311 -0.743969,-0.742508 0,-0.2056 0.08315,-0.391552 0.217783,-0.526187 z" /></g></g><text
         xml:space="preserve"
         style="font-size:1.05833px;line-height:1.25;font-family:Caladea;-inkscape-font-specification:Caladea;font-variant-ligatures:none;text-align:end;text-anchor:end;stroke-width:0.264583"
         x="25.291052"
         y="2.3374507"
         id="text58"><tspan
           sodipodi:role="line"
           id="tspan58"
           style="font-style:normal;font-variant:normal;font-weight:bold;font-stretch:normal;font-size:1.05833px;font-family:Consolas;-inkscape-font-specification:'Consolas Bold';stroke-width:0.264583"
           x="25.291052"
           y="2.3374507">9</tspan></text></g><g
       id="g66"
       transform="translate(-22.000001,17.000001)"><g
         id="g65"
         transform="translate(-9.9998875,-4.0002537)"><g
           id="g64"
           transform="rotate(45)"><path
             style="color:#000000;fill:#ffffff;stroke-linecap:round;stroke-linejoin:round;-inkscape-stroke:none"
             d="m 29.800649,-20.506098 a 0.80927002,0.80926943 0 0 1 -0.80927,0.80927 0.80927002,0.80926943 0 0 1 -0.80927,-0.80927 0.80927002,0.80926943 0 0 1 0.80927,-0.809269 0.80927002,0.80926943 0 0 1 0.80927,0.809269 z"
             id="path63" /><path
             id="path64"
             style="color:#000000;fill:#000000;stroke-linecap:round;stroke-linejoin:round;-inkscape-stroke:none"
             d="m 28.372801,-21.124576 c -0.102732,0.102416 -0.17984,0.230424 -0.221803,0.373081 a 0.25,0.25 0 0 0 -0.145067,0.06906 0.25,0.25 0 0 0 -0.07199,0.176492 0.25,0.25 0 0 0 0.216321,0.245554 c 0.08384,0.285448 0.309833,0.510623 0.595615,0.594152 a 0.25,0.25 0 0 0 0.245919,0.218149 0.25,0.25 0 0 0 0.245554,-0.217783 c 0.285597,-0.08339 0.510935,-0.308925 0.594518,-0.594518 a 0.25,0.25 0 0 0 0.217783,-0.245554 0.25,0.25 0 0 0 -0.218514,-0.247747 c -0.08392,-0.283663 -0.307915,-0.507833 -0.591595,-0.591594 a 0.25,0.25 0 0 0 -0.247746,-0.218514 0.25,0.25 0 0 0 -0.176492,0.07199 0.25,0.25 0 0 0 -0.06943,0.146894 c -0.142598,0.04171 -0.270473,0.118047 -0.373081,0.220341 z m 0.09318,0.09245 c 0.134634,-0.134635 0.320589,-0.217783 0.526186,-0.217783 0.411199,0 0.742143,0.333138 0.742143,0.744335 0,0.411199 -0.330943,0.742143 -0.742143,0.742143 -0.411197,0 -0.743969,-0.331311 -0.743969,-0.742508 0,-0.2056 0.08315,-0.391552 0.217783,-0.526187 z" /></g></g><text
         xml:space="preserve"
         style="font-size:1.05833px;line-height:1.25;font-family:Caladea;-inkscape-font-specification:Caladea;font-variant-ligatures:none;text-align:end;text-anchor:end;stroke-width:0.264583"
         x="25.580584"
         y="2.3433893"
         id="text65"><tspan
           sodipodi:role="line"
           id="tspan65"
           style="font-style:normal;font-variant:normal;font-weight:bold;font-stretch:normal;font-size:1.05833px;font-family:Consolas;-inkscape-font-specification:'Consolas Bold';stroke-width:0.264583"
           x="25.580584"
           y="2.3433893">12</tspan></text></g><g
       id="g75"
       transform="translate(-6.0000002,1.0000001)"
       style="opacity:0.5"><g
         id="g74"
         transform="translate(-9.9998875,-4.0002537)"><g
           id="g73"
           transform="rotate(45)"><path
             style="color:#000000;fill:#ffffff;stroke-linecap:round;stroke-linejoin:round;-inkscape-stroke:none"
             d="m 29.800649,-20.506098 a 0.80927002,0.80926943 0 0 1 -0.80927,0.80927 0.80927002,0.80926943 0 0 1 -0.80927,-0.80927 0.80927002,0.80926943 0 0 1 0.80927,-0.809269 0.80927002,0.80926943 0 0 1 0.80927,0.809269 z"
             id="path72" /><path
             id="path73"
             style="color:#000000;fill:#000000;stroke-linecap:round;stroke-linejoin:round;-inkscape-stroke:none"
             d="m 28.372801,-21.124576 c -0.102732,0.102416 -0.17984,0.230424 -0.221803,0.373081 a 0.25,0.25 0 0 0 -0.145067,0.06906 0.25,0.25 0 0 0 -0.07199,0.176492 0.25,0.25 0 0 0 0.216321,0.245554 c 0.08384,0.285448 0.309833,0.510623 0.595615,0.594152 a 0.25,0.25 0 0 0 0.245919,0.218149 0.25,0.25 0 0 0 0.245554,-0.217783 c 0.285597,-0.08339 0.510935,-0.308925 0.594518,-0.594518 a 0.25,0.25 0 0 0 0.217783,-0.245554 0.25,0.25 0 0 0 -0.218514,-0.247747 c -0.08392,-0.283663 -0.307915,-0.507833 -0.591595,-0.591594 a 0.25,0.25 0 0 0 -0.247746,-0.218514 0.25,0.25 0 0 0 -0.176492,0.07199 0.25,0.25 0 0 0 -0.06943,0.146894 c -0.142598,0.04171 -0.270473,0.118047 -0.373081,0.220341 z m 0.09318,0.09245 c 0.134634,-0.134635 0.320589,-0.217783 0.526186,-0.217783 0.411199,0 0.742143,0.333138 0.742143,0.744335 0,0.411199 -0.330943,0.742143 -0.742143,0.742143 -0.411197,0 -0.743969,-0.331311 -0.743969,-0.742508 0,-0.2056 0.08315,-0.391552 0.217783,-0.526187 z" /></g></g><text
         xml:space="preserve"
         style="font-size:1.05833px;line-height:1.25;font-family:Caladea;-inkscape-font-specification:Caladea;font-variant-ligatures:none;text-align:end;text-anchor:end;stroke-width:0.264583"
         x="25.580584"
         y="2.3433893"
         id="text74"><tspan
           sodipodi:role="line"
           id="tspan74"
           style="font-style:normal;font-variant:normal;font-weight:bold;font-stretch:normal;font-size:1.05833px;font-family:Consolas;-inkscape-font-specification:'Consolas Bold';stroke-width:0.264583"
           x="25.580584"
           y="2.3433893">12</tspan></text></g><g
       id="g78"
       transform="translate(-20.000001,19.000001)"
       style="opacity:0.5"><g
         id="g77"
         transform="translate(-9.9998875,-4.0002537)"><g
           id="g76"
           transform="rotate(45)"><path
             style="color:#000000;fill:#ffffff;stroke-linecap:round;stroke-linejoin:round;-inkscape-stroke:none"
             d="m 29.800649,-20.506098 a 0.80927002,0.80926943 0 0 1 -0.80927,0.80927 0.80927002,0.80926943 0 0 1 -0.80927,-0.80927 0.80927002,0.80926943 0 0 1 0.80927,-0.809269 0.80927002,0.80926943 0 0 1 0.80927,0.809269 z"
             id="path75" /><path
             id="path76"
             style="color:#000000;fill:#000000;stroke-linecap:round;stroke-linejoin:round;-inkscape-stroke:none"
             d="m 28.372801,-21.124576 c -0.102732,0.102416 -0.17984,0.230424 -0.221803,0.373081 a 0.25,0.25 0 0 0 -0.145067,0.06906 0.25,0.25 0 0 0 -0.07199,0.176492 0.25,0.25 0 0 0 0.216321,0.245554 c 0.08384,0.285448 0.309833,0.510623 0.595615,0.594152 a 0.25,0.25 0 0 0 0.245919,0.218149 0.25,0.25 0 0 0 0.245554,-0.217783 c 0.285597,-0.08339 0.510935,-0.308925 0.594518,-0.594518 a 0.25,0.25 0 0 0 0.217783,-0.245554 0.25,0.25 0 0 0 -0.218514,-0.247747 c -0.08392,-0.283663 -0.307915,-0.507833 -0.591595,-0.591594 a 0.25,0.25 0 0 0 -0.247746,-0.218514 0.25,0.25 0 0 0 -0.176492,0.07199 0.25,0.25 0 0 0 -0.06943,0.146894 c -0.142598,0.04171 -0.270473,0.118047 -0.373081,0.220341 z m 0.09318,0.09245 c 0.134634,-0.134635 0.320589,-0.217783 0.526186,-0.217783 0.411199,0 0.742143,0.333138 0.742143,0.744335 0,0.411199 -0.330943,0.742143 -0.742143,0.742143 -0.411197,0 -0.743969,-0.331311 -0.743969,-0.742508 0,-0.2056 0.08315,-0.391552 0.217783,-0.526187 z" /></g></g><text
         xml:space="preserve"
         style="font-size:1.05833px;line-height:1.25;font-family:Caladea;-inkscape-font-specification:Caladea;font-variant-ligatures:none;text-align:end;text-anchor:end;stroke-width:0.264583"
         x="25.291052"
         y="2.3374507"
         id="text77"><tspan
           sodipodi:role="line"
           id="tspan77"
           style="font-style:normal;font-variant:normal;font-weight:bold;font-stretch:normal;font-size:1.05833px;font-family:Consolas;-inkscape-font-specification:'Consolas Bold';stroke-width:0.264583"
           x="25.291052"
           y="2.3374507">0</tspan></text></g><g
       id="g81"
       transform="translate(-4.0000001,3.0000001)"
       style="opacity:0.5"><g
         id="g80"
         transform="translate(-9.9998875,-4.0002537)"><g
           id="g79"
           transform="rotate(45)"><path
             style="color:#000000;fill:#ffffff;stroke-linecap:round;stroke-linejoin:round;-inkscape-stroke:none"
             d="m 29.800649,-20.506098 a 0.80927002,0.80926943 0 0 1 -0.80927,0.80927 0.80927002,0.80926943 0 0 1 -0.80927,-0.80927 0.80927002,0.80926943 0 0 1 0.80927,-0.809269 0.80927002,0.80926943 0 0 1 0.80927,0.809269 z"
             id="path78" /><path
             id="path79"
             style="color:#000000;fill:#000000;stroke-linecap:round;stroke-linejoin:round;-inkscape-stroke:none"
             d="m 28.372801,-21.124576 c -0.102732,0.102416 -0.17984,0.230424 -0.221803,0.373081 a 0.25,0.25 0 0 0 -0.145067,0.06906 0.25,0.25 0 0 0 -0.07199,0.176492 0.25,0.25 0 0 0 0.216321,0.245554 c 0.08384,0.285448 0.309833,0.510623 0.595615,0.594152 a 0.25,0.25 0 0 0 0.245919,0.218149 0.25,0.25 0 0 0 0.245554,-0.217783 c 0.285597,-0.08339 0.510935,-0.308925 0.594518,-0.594518 a 0.25,0.25 0 0 0 0.217783,-0.245554 0.25,0.25 0 0 0 -0.218514,-0.247747 c -0.08392,-0.283663 -0.307915,-0.507833 -0.591595,-0.591594 a 0.25,0.25 0 0 0 -0.247746,-0.218514 0.25,0.25 0 0 0 -0.176492,0.07199 0.25,0.25 0 0 0 -0.06943,0.146894 c -0.142598,0.04171 -0.270473,0.118047 -0.373081,0.220341 z m 0.09318,0.09245 c 0.134634,-0.134635 0.320589,-0.217783 0.526186,-0.217783 0.411199,0 0.742143,0.333138 0.742143,0.744335 0,0.411199 -0.330943,0.742143 -0.742143,0.742143 -0.411197,0 -0.743969,-0.331311 -0.743969,-0.742508 0,-0.2056 0.08315,-0.391552 0.217783,-0.526187 z" /></g></g><text
         xml:space="preserve"
         style="font-size:1.05833px;line-height:1.25;font-family:Caladea;-inkscape-font-specification:Caladea;font-variant-ligatures:none;text-align:end;text-anchor:end;stroke-width:0.264583"
         x="25.291052"
         y="2.3374507"
         id="text80"><tspan
           sodipodi:role="line"
           id="tspan80"
           style="font-style:normal;font-variant:normal;font-weight:bold;font-stretch:normal;font-size:1.05833px;font-family:Consolas;-inkscape-font-specification:'Consolas Bold';stroke-width:0.264583"
           x="25.291052"
           y="2.3374507">0</tspan></text></g><g
       id="g84"
       transform="translate(-13,19.000001)"
       style="opacity:0.5"><g
         id="g83"
         transform="translate(-9.9998875,-4.0002537)"><g
           id="g82"
           transform="rotate(45)"><path
             style="color:#000000;fill:#ffffff;stroke-linecap:round;stroke-linejoin:round;-inkscape-stroke:none"
             d="m 29.800649,-20.506098 a 0.80927002,0.80926943 0 0 1 -0.80927,0.80927 0.80927002,0.80926943 0 0 1 -0.80927,-0.80927 0.80927002,0.80926943 0 0 1 0.80927,-0.809269 0.80927002,0.80926943 0 0 1 0.80927,0.809269 z"
             id="path81" /><path
             id="path82"
             style="color:#000000;fill:#000000;stroke-linecap:round;stroke-linejoin:round;-inkscape-stroke:none"
             d="m 28.372801,-21.124576 c -0.102732,0.102416 -0.17984,0.230424 -0.221803,0.373081 a 0.25,0.25 0 0 0 -0.145067,0.06906 0.25,0.25 0 0 0 -0.07199,0.176492 0.25,0.25 0 0 0 0.216321,0.245554 c 0.08384,0.285448 0.309833,0.510623 0.595615,0.594152 a 0.25,0.25 0 0 0 0.245919,0.218149 0.25,0.25 0 0 0 0.245554,-0.217783 c 0.285597,-0.08339 0.510935,-0.308925 0.594518,-0.594518 a 0.25,0.25 0 0 0 0.217783,-0.245554 0.25,0.25 0 0 0 -0.218514,-0.247747 c -0.08392,-0.283663 -0.307915,-0.507833 -0.591595,-0.591594 a 0.25,0.25 0 0 0 -0.247746,-0.218514 0.25,0.25 0 0 0 -0.176492,0.07199 0.25,0.25 0 0 0 -0.06943,0.146894 c -0.142598,0.04171 -0.270473,0.118047 -0.373081,0.220341 z m 0.09318,0.09245 c 0.134634,-0.134635 0.320589,-0.217783 0.526186,-0.217783 0.411199,0 0.742143,0.333138 0.742143,0.744335 0,0.411199 -0.330943,0.742143 -0.742143,0.742143 -0.411197,0 -0.743969,-0.331311 -0.743969,-0.742508 0,-0.2056 0.08315,-0.391552 0.217783,-0.526187 z" /></g></g><text
         xml:space="preserve"
         style="font-size:1.05833px;line-height:1.25;font-family:Caladea;-inkscape-font-specification:Caladea;font-variant-ligatures:none;text-align:end;text-anchor:end;stroke-width:0.264583"
         x="25.291052"
         y="2.3374507"
         id="text83"><tspan
           sodipodi:role="line"
           id="tspan83"
           style="font-style:normal;font-variant:normal;font-weight:bold;font-stretch:normal;font-size:1.05833px;font-family:Consolas;-inkscape-font-specification:'Consolas Bold';stroke-width:0.264583"
           x="25.291052"
           y="2.3374507">4</tspan></text></g><g
       id="g87"
       transform="translate(-4.0000001,10)"
       style="opacity:0.5"><g
         id="g86"
         transform="translate(-9.9998875,-4.0002537)"><g
           id="g85"
           transform="rotate(45)"><path
             style="color:#000000;fill:#ffffff;stroke-linecap:round;stroke-linejoin:round;-inkscape-stroke:none"
             d="m 29.800649,-20.506098 a 0.80927002,0.80926943 0 0 1 -0.80927,0.80927 0.80927002,0.80926943 0 0 1 -0.80927,-0.80927 0.80927002,0.80926943 0 0 1 0.80927,-0.809269 0.80927002,0.80926943 0 0 1 0.80927,0.809269 z"
             id="path84" /><path
             id="path85"
             style="color:#000000;fill:#000000;stroke-linecap:round;stroke-linejoin:round;-inkscape-stroke:none"
             d="m 28.372801,-21.124576 c -0.102732,0.102416 -0.17984,0.230424 -0.221803,0.373081 a 0.25,0.25 0 0 0 -0.145067,0.06906 0.25,0.25 0 0 0 -0.07199,0.176492 0.25,0.25 0 0 0 0.216321,0.245554 c 0.08384,0.285448 0.309833,0.510623 0.595615,0.594152 a 0.25,0.25 0 0 0 0.245919,0.218149 0.25,0.25 0 0 0 0.245554,-0.217783 c 0.285597,-0.08339 0.510935,-0.308925 0.594518,-0.594518 a 0.25,0.25 0 0 0 0.217783,-0.245554 0.25,0.25 0 0 0 -0.218514,-0.247747 c -0.08392,-0.283663 -0.307915,-0.507833 -0.591595,-0.591594 a 0.25,0.25 0 0 0 -0.247746,-0.218514 0.25,0.25 0 0 0 -0.176492,0.07199 0.25,0.25 0 0 0 -0.06943,0.146894 c -0.142598,0.04171 -0.270473,0.118047 -0.373081,0.220341 z m 0.09318,0.09245 c 0.134634,-0.134635 0.320589,-0.217783 0.526186,-0.217783 0.411199,0 0.742143,0.333138 0.742143,0.744335 0,0.411199 -0.330943,0.742143 -0.742143,0.742143 -0.411197,0 -0.743969,-0.331311 -0.743969,-0.742508 0,-0.2056 0.08315,-0.391552 0.217783,-0.526187 z" /></g></g><text
         xml:space="preserve"
         style="font-size:1.05833px;line-height:1.25;font-family:Caladea;-inkscape-font-specification:Caladea;font-variant-ligatures:none;text-align:end;text-anchor:end;stroke-width:0.264583"
         x="25.291052"
         y="2.3374507"
         id="text86"><tspan
           sodipodi:role="line"
           id="tspan86"
           style="font-style:normal;font-variant:normal;font-weight:bold;font-stretch:normal;font-size:1.05833px;font-family:Consolas;-inkscape-font-specification:'Consolas Bold';stroke-width:0.264583"
           x="25.291052"
           y="2.3374507">1</tspan></text></g><text
       xml:space="preserve"
       style="font-size:1.76389px;line-height:1.25;font-family:Caladea;-inkscape-font-specification:Caladea;font-variant-ligatures:none;text-align:end;text-anchor:end;stroke-width:0.264583"
       x="37.652485"
       y="38.984497"
       id="text87"><tspan
         sodipodi:role="line"
         id="tspan87"
         style="font-style:normal;font-variant:normal;font-weight:normal;font-stretch:normal;font-size:1.76389px;font-family:Consolas;-inkscape-font-specification:Consolas;stroke-width:0.264583"
         x="37.652485"
         y="38.984497">Path 4:</tspan></text></g></svg>
