<?xml version="1.0" encoding="UTF-8" standalone="no"?>
<!-- Created with Inkscape (http://www.inkscape.org/) -->

<svg
   width="40mm"
   height="40mm"
   viewBox="0 0 40 40"
   version="1.1"
   id="svg1"
   inkscape:version="1.3 (0e150ed6c4, 2023-07-21)"
   sodipodi:docname="pattern_blank.svg"
   xmlns:inkscape="http://www.inkscape.org/namespaces/inkscape"
   xmlns:sodipodi="http://sodipodi.sourceforge.net/DTD/sodipodi-0.dtd"
   xmlns="http://www.w3.org/2000/svg"
   xmlns:svg="http://www.w3.org/2000/svg">
  <sodipodi:namedview
     id="namedview1"
     pagecolor="#ffffff"
     bordercolor="#666666"
     borderopacity="1.0"
     inkscape:showpageshadow="2"
     inkscape:pageopacity="0.0"
     inkscape:pagecheckerboard="0"
     inkscape:deskcolor="#d1d1d1"
     inkscape:document-units="mm"
     inkscape:zoom="5.6568545"
     inkscape:cx="36.592774"
     inkscape:cy="65.849316"
     inkscape:window-width="1920"
     inkscape:window-height="1001"
     inkscape:window-x="-9"
     inkscape:window-y="579"
     inkscape:window-maximized="1"
     inkscape:current-layer="layer1"
     showgrid="true">
    <inkscape:grid
       id="grid1"
       units="mm"
       originx="0"
       originy="0"
       spacingx="1"
       spacingy="1"
       empcolor="#0099e5"
       empopacity="0.30196078"
       color="#0099e5"
       opacity="0.14901961"
       empspacing="5"
       dotted="false"
       gridanglex="30"
       gridanglez="30"
       visible="true" />
  </sodipodi:namedview>
  <defs
     id="defs1" />
  <g
     inkscape:label="Layer 1"
     inkscape:groupmode="layer"
     id="layer1">
    <text
       xml:space="preserve"
       style="font-size:1.76389px;line-height:1.25;font-family:Caladea;-inkscape-font-specification:Caladea;font-variant-ligatures:none;text-align:end;text-anchor:end;stroke-width:0.264583"
       x="37.652485"
       y="32.984501"
       id="text22"><tspan
         sodipodi:role="line"
         id="tspan22"
         style="font-style:normal;font-variant:normal;font-weight:normal;font-stretch:normal;font-size:1.76389px;font-family:Consolas;-inkscape-font-specification:Consolas;stroke-width:0.264583"
         x="37.652485"
         y="32.984501">Path 0:</tspan></text>
    <rect
       style="fill:#ff6666;fill-opacity:1;stroke:#000000;stroke-width:0.0999998;stroke-linecap:round;stroke-linejoin:round;stroke-dasharray:none"
       id="rect22"
       width="1.1320002"
       height="1.132"
       x="37.879387"
       y="31.817762" />
    <text
       xml:space="preserve"
       style="font-size:1.76389px;line-height:1.25;font-family:Caladea;-inkscape-font-specification:Caladea;font-variant-ligatures:none;text-align:end;text-anchor:end;stroke-width:0.264583"
       x="37.652485"
       y="34.984497"
       id="text23"><tspan
         sodipodi:role="line"
         id="tspan23"
         style="font-style:normal;font-variant:normal;font-weight:normal;font-stretch:normal;font-size:1.76389px;font-family:Consolas;-inkscape-font-specification:Consolas;stroke-width:0.264583"
         x="37.652485"
         y="34.984497">Path 1:</tspan></text>
    <rect
       style="fill:#6666ff;fill-opacity:1;stroke:#000000;stroke-width:0.0999998;stroke-linecap:round;stroke-linejoin:round;stroke-dasharray:none"
       id="rect24"
       width="1.1320002"
       height="1.132"
       x="37.879387"
       y="33.817757" />
    <text
       xml:space="preserve"
       style="font-size:1.76389px;line-height:1.25;font-family:Caladea;-inkscape-font-specification:Caladea;font-variant-ligatures:none;text-align:end;text-anchor:end;stroke-width:0.264583"
       x="37.652485"
       y="36.984497"
       id="text61"><tspan
         sodipodi:role="line"
         id="tspan61"
         style="font-style:normal;font-variant:normal;font-weight:normal;font-stretch:normal;font-size:1.76389px;font-family:Consolas;-inkscape-font-specification:Consolas;stroke-width:0.264583"
         x="37.652485"
         y="36.984497">Path 2:</tspan></text>
    <rect
       style="fill:#ffff00;fill-opacity:1;stroke:#000000;stroke-width:0.0999998;stroke-linecap:round;stroke-linejoin:round;stroke-dasharray:none"
       id="rect61"
       width="1.1320002"
       height="1.132"
       x="37.879387"
       y="35.81776" />
    <text
       xml:space="preserve"
       style="font-size:1.76389px;line-height:1.25;font-family:Caladea;-inkscape-font-specification:Caladea;font-variant-ligatures:none;text-align:end;text-anchor:end;stroke-width:0.264583"
       x="37.652485"
       y="38.984497"
       id="text63"><tspan
         sodipodi:role="line"
         id="tspan63"
         style="font-style:normal;font-variant:normal;font-weight:normal;font-stretch:normal;font-size:1.76389px;font-family:Consolas;-inkscape-font-specification:Consolas;stroke-width:0.264583"
         x="37.652485"
         y="38.984497">Path 3:</tspan></text>
    <rect
       style="fill:#ff66ff;fill-opacity:1;stroke:#000000;stroke-width:0.0999998;stroke-linecap:round;stroke-linejoin:round;stroke-dasharray:none"
       id="rect64"
       width="1.1320002"
       height="1.132"
       x="37.879387"
       y="37.81776" />
    <g
       id="g120"
       transform="translate(-5.0000002,33.000001)">
      <g
         id="g119"
         transform="translate(-9.9998875,-4.0002537)">
        <g
           id="g118"
           transform="rotate(45)">
          <path
             style="color:#000000;fill:#ffffff;stroke-linecap:round;stroke-linejoin:round;-inkscape-stroke:none"
             d="m 29.800649,-20.506098 a 0.80927002,0.80926943 0 0 1 -0.80927,0.80927 0.80927002,0.80926943 0 0 1 -0.80927,-0.80927 0.80927002,0.80926943 0 0 1 0.80927,-0.809269 0.80927002,0.80926943 0 0 1 0.80927,0.809269 z"
             id="path117" />
          <path
             id="path118"
             style="color:#000000;fill:#000000;stroke-linecap:round;stroke-linejoin:round;-inkscape-stroke:none"
             d="m 28.372801,-21.124576 c -0.102732,0.102416 -0.17984,0.230424 -0.221803,0.373081 a 0.25,0.25 0 0 0 -0.145067,0.06906 0.25,0.25 0 0 0 -0.07199,0.176492 0.25,0.25 0 0 0 0.216321,0.245554 c 0.08384,0.285448 0.309833,0.510623 0.595615,0.594152 a 0.25,0.25 0 0 0 0.245919,0.218149 0.25,0.25 0 0 0 0.245554,-0.217783 c 0.285597,-0.08339 0.510935,-0.308925 0.594518,-0.594518 a 0.25,0.25 0 0 0 0.217783,-0.245554 0.25,0.25 0 0 0 -0.218514,-0.247747 c -0.08392,-0.283663 -0.307915,-0.507833 -0.591595,-0.591594 a 0.25,0.25 0 0 0 -0.247746,-0.218514 0.25,0.25 0 0 0 -0.176492,0.07199 0.25,0.25 0 0 0 -0.06943,0.146894 c -0.142598,0.04171 -0.270473,0.118047 -0.373081,0.220341 z m 0.09318,0.09245 c 0.134634,-0.134635 0.320589,-0.217783 0.526186,-0.217783 0.411199,0 0.742143,0.333138 0.742143,0.744335 0,0.411199 -0.330943,0.742143 -0.742143,0.742143 -0.411197,0 -0.743969,-0.331311 -0.743969,-0.742508 0,-0.2056 0.08315,-0.391552 0.217783,-0.526187 z" />
        </g>
      </g>
      <text
         xml:space="preserve"
         style="font-size:1.05833px;line-height:1.25;font-family:Caladea;-inkscape-font-specification:Caladea;font-variant-ligatures:none;text-align:end;text-anchor:end;stroke-width:0.264583"
         x="25.291052"
         y="2.3374507"
         id="text119"><tspan
           sodipodi:role="line"
           id="tspan119"
           style="font-style:normal;font-variant:normal;font-weight:bold;font-stretch:normal;font-size:1.05833px;font-family:Consolas;-inkscape-font-specification:'Consolas Bold';stroke-width:0.264583"
           x="25.291052"
           y="2.3374507">X</tspan></text>
    </g>
    <g
       id="g123"
       transform="translate(-4.9998864,33.000001)">
      <g
         id="g122"
         transform="translate(-8.0000012,-4.0002537)">
        <g
           id="g121"
           transform="rotate(45)">
          <path
             style="color:#000000;fill:#ffffff;stroke-linecap:round;stroke-linejoin:round;-inkscape-stroke:none"
             d="m 29.800649,-20.506098 a 0.80927002,0.80926943 0 0 1 -0.80927,0.80927 0.80927002,0.80926943 0 0 1 -0.80927,-0.80927 0.80927002,0.80926943 0 0 1 0.80927,-0.809269 0.80927002,0.80926943 0 0 1 0.80927,0.809269 z"
             id="path120" />
          <path
             id="path121"
             style="color:#000000;fill:#000000;stroke-linecap:round;stroke-linejoin:round;-inkscape-stroke:none"
             d="m 28.372801,-21.124576 c -0.102732,0.102416 -0.17984,0.230424 -0.221803,0.373081 a 0.25,0.25 0 0 0 -0.145067,0.06906 0.25,0.25 0 0 0 -0.07199,0.176492 0.25,0.25 0 0 0 0.216321,0.245554 c 0.08384,0.285448 0.309833,0.510623 0.595615,0.594152 a 0.25,0.25 0 0 0 0.245919,0.218149 0.25,0.25 0 0 0 0.245554,-0.217783 c 0.285597,-0.08339 0.510935,-0.308925 0.594518,-0.594518 a 0.25,0.25 0 0 0 0.217783,-0.245554 0.25,0.25 0 0 0 -0.218514,-0.247747 c -0.08392,-0.283663 -0.307915,-0.507833 -0.591595,-0.591594 a 0.25,0.25 0 0 0 -0.247746,-0.218514 0.25,0.25 0 0 0 -0.176492,0.07199 0.25,0.25 0 0 0 -0.06943,0.146894 c -0.142598,0.04171 -0.270473,0.118047 -0.373081,0.220341 z m 0.09318,0.09245 c 0.134634,-0.134635 0.320589,-0.217783 0.526186,-0.217783 0.411199,0 0.742143,0.333138 0.742143,0.744335 0,0.411199 -0.330943,0.742143 -0.742143,0.742143 -0.411197,0 -0.743969,-0.331311 -0.743969,-0.742508 0,-0.2056 0.08315,-0.391552 0.217783,-0.526187 z" />
        </g>
      </g>
      <text
         xml:space="preserve"
         style="font-size:1.05833px;line-height:1.25;font-family:Caladea;-inkscape-font-specification:Caladea;font-variant-ligatures:none;text-align:end;text-anchor:end;stroke-width:0.264583"
         x="27.581875"
         y="2.3377044"
         id="text122"><tspan
           sodipodi:role="line"
           id="tspan122"
           style="font-style:normal;font-variant:normal;font-weight:bold;font-stretch:normal;font-size:1.05833px;font-family:Consolas;-inkscape-font-specification:'Consolas Bold';stroke-width:0.264583"
           x="27.581875"
           y="2.3377044">XX</tspan></text>
    </g>
    <g
       id="g125"
       transform="translate(-5.0000002,33.000001)">
      <g
         id="g124"
         transform="matrix(-0.70710678,0.70710678,0.70710678,0.70710678,64.000114,-4.0001553)">
        <path
           style="color:#000000;fill:#ffffff;stroke-linecap:round;stroke-linejoin:round;-inkscape-stroke:none"
           d="m 29.800649,-20.506098 a 0.80927002,0.80926943 0 0 1 -0.80927,0.80927 0.80927002,0.80926943 0 0 1 -0.80927,-0.80927 0.80927002,0.80926943 0 0 1 0.80927,-0.809269 0.80927002,0.80926943 0 0 1 0.80927,0.809269 z"
           id="path123" />
        <path
           id="path124"
           style="color:#000000;fill:#000000;stroke-linecap:round;stroke-linejoin:round;-inkscape-stroke:none"
           d="m 27.933705,-20.488643 c 0.0017,0.01808 0.0053,0.03593 0.01085,0.05323 6.09e-4,0.0036 0.0013,0.0072 0.0021,0.01085 0.03124,0.0878 0.108718,0.150946 0.201021,0.163814 8.6e-4,1.77e-4 0.0017,3.49e-4 0.0026,5.17e-4 0.08373,0.28508 0.309537,0.50946 0.594796,0.593245 0.01147,0.09579 0.07703,0.176442 0.168465,0.207223 0.02392,0.0075 0.04883,0.01131 0.0739,0.01137 0.0015,1.87e-4 0.0031,3.59e-4 0.0047,5.16e-4 0.0043,-5.76e-4 0.0086,-0.0013 0.01292,-0.0021 0.01762,-7.35e-4 0.03512,-0.0033 0.05219,-0.0078 0.0052,-0.0017 0.0104,-0.0036 0.0155,-0.0057 0.01678,-0.0058 0.03289,-0.01347 0.04806,-0.02274 0.0044,-0.0028 0.0087,-0.0057 0.01292,-0.0088 0.01593,-0.01119 0.0305,-0.02419 0.04341,-0.03876 0.0019,-0.002 0.0038,-0.0041 0.0057,-0.0062 0.01394,-0.017 0.02559,-0.03576 0.03462,-0.05581 5.22e-4,-8.58e-4 0.001,-0.0017 0.0016,-0.0026 0.0034,-0.0064 0.0065,-0.01296 0.0093,-0.01964 l 0.01654,-0.05064 c 0.282077,-0.0851 0.504185,-0.308577 0.587044,-0.591695 0.105633,-0.01471 0.190303,-0.09481 0.21084,-0.199471 0.0037,-0.01457 0.0062,-0.02944 0.0072,-0.04444 3e-6,-6.89e-4 3e-6,-0.0014 0,-0.0021 0.0028,-0.03316 -0.0011,-0.06654 -0.01137,-0.09819 -0.03213,-0.09255 -0.115363,-0.157799 -0.212907,-0.166915 -0.08783,-0.275086 -0.307982,-0.492014 -0.585494,-0.574125 -0.0054,-0.102395 -0.07282,-0.191097 -0.170016,-0.223759 -0.131128,-0.04249 -0.271908,0.02917 -0.314709,0.160197 l -0.02274,0.06821 c -0.13716,0.0425 -0.260314,0.116957 -0.359668,0.216007 -0.100465,0.100157 -0.176542,0.224928 -0.219108,0.363802 l -0.05271,0.01809 c -0.03101,0.01136 -0.05946,0.02875 -0.08372,0.05116 -0.0039,0.003 -0.0077,0.0061 -0.01137,0.0093 -8.7e-4,0.001 -0.0017,0.0021 -0.0026,0.0031 -0.01129,0.01223 -0.02133,0.02556 -0.02997,0.03979 -0.0029,0.0042 -0.0056,0.0085 -0.0083,0.01292 -0.0076,0.01435 -0.01388,0.0294 -0.0186,0.04496 -0.0019,0.0051 -0.0036,0.01028 -0.0052,0.0155 -0.0036,0.01561 -0.0057,0.03153 -0.0062,0.04754 -6.29e-4,0.0043 -0.0011,0.0086 -0.0016,0.01292 1.57e-4,0.0016 3.29e-4,0.0031 5.16e-4,0.0047 -2.75e-4,0.0041 -4.47e-4,0.0083 -5.16e-4,0.0124 z m 0.350366,0.211357 0.109554,-0.03824 -0.04444,0.134876 c -0.0032,0.01222 -0.0054,0.02465 -0.0067,0.03721 -0.02364,-0.04218 -0.04331,-0.08712 -0.05839,-0.133842 z m 0.03256,-0.540019 c 0.03699,-0.08045 0.08755,-0.153177 0.149345,-0.214974 0.06153,-0.06153 0.133998,-0.111828 0.21394,-0.148828 l -0.08888,0.268717 z m 0.312126,0.959631 c 0.01381,-0.0016 0.02747,-0.0044 0.04082,-0.0083 l 0.128674,-0.04444 -0.03669,0.110588 c -0.04647,-0.01503 -0.09085,-0.03445 -0.132808,-0.05788 z m 0.556555,-1.259871 0.03204,-0.09715 c 0.03962,0.0126 0.0778,0.02879 0.114205,0.04754 -0.0052,0.0012 -0.01038,0.0026 -0.0155,0.0041 z m 0.112655,1.288293 0.09457,-0.286804 0.28267,-0.09767 c -0.07281,0.170934 -0.208098,0.308267 -0.377237,0.384472 z m 0.291971,-0.883667 0.04444,-0.135392 c 0.002,-0.007 0.0038,-0.01405 0.0052,-0.02119 0.0214,0.03823 0.03979,0.07835 0.05426,0.120406 z"
           sodipodi:nodetypes="ccccccccccccccccccccccccccccccscccccccccccccccccccscccccccccccccccccccccc" />
      </g>
      <text
         xml:space="preserve"
         style="font-size:1.05833px;line-height:1.25;font-family:Caladea;-inkscape-font-specification:Caladea;font-variant-ligatures:none;text-align:end;text-anchor:end;fill:#ffffff;stroke-width:0.264583"
         x="29.581875"
         y="2.3377044"
         id="text124"><tspan
           sodipodi:role="line"
           id="tspan124"
           style="font-style:normal;font-variant:normal;font-weight:bold;font-stretch:normal;font-size:1.05833px;font-family:Consolas;-inkscape-font-specification:'Consolas Bold';fill:#ffffff;stroke-width:0.264583"
           x="29.581875"
           y="2.3377044">XX</tspan></text>
    </g>
    <g
       id="g126"
       transform="matrix(-0.70710678,0.70710678,0.70710678,0.70710678,61.051988,28.999846)">
      <path
         style="color:#000000;fill:#ffffff;stroke-linecap:round;stroke-linejoin:round;-inkscape-stroke:none"
         d="m 29.800649,-20.506098 a 0.80927002,0.80926943 0 0 1 -0.80927,0.80927 0.80927002,0.80926943 0 0 1 -0.80927,-0.80927 0.80927002,0.80926943 0 0 1 0.80927,-0.809269 0.80927002,0.80926943 0 0 1 0.80927,0.809269 z"
         id="path125" />
      <path
         id="path126"
         style="color:#000000;fill:#000000;stroke-linecap:round;stroke-linejoin:round;-inkscape-stroke:none"
         d="m 27.933705,-20.488643 c 0.0017,0.01808 0.0053,0.03593 0.01085,0.05323 6.09e-4,0.0036 0.0013,0.0072 0.0021,0.01085 0.03124,0.0878 0.108718,0.150946 0.201021,0.163814 8.6e-4,1.77e-4 0.0017,3.49e-4 0.0026,5.17e-4 0.08373,0.28508 0.309537,0.50946 0.594796,0.593245 0.01147,0.09579 0.07703,0.176442 0.168465,0.207223 0.02392,0.0075 0.04883,0.01131 0.0739,0.01137 0.0015,1.87e-4 0.0031,3.59e-4 0.0047,5.16e-4 0.0043,-5.76e-4 0.0086,-0.0013 0.01292,-0.0021 0.01762,-7.35e-4 0.03512,-0.0033 0.05219,-0.0078 0.0052,-0.0017 0.0104,-0.0036 0.0155,-0.0057 0.01678,-0.0058 0.03289,-0.01347 0.04806,-0.02274 0.0044,-0.0028 0.0087,-0.0057 0.01292,-0.0088 0.01593,-0.01119 0.0305,-0.02419 0.04341,-0.03876 0.0019,-0.002 0.0038,-0.0041 0.0057,-0.0062 0.01394,-0.017 0.02559,-0.03576 0.03462,-0.05581 5.22e-4,-8.58e-4 0.001,-0.0017 0.0016,-0.0026 0.0034,-0.0064 0.0065,-0.01296 0.0093,-0.01964 l 0.01654,-0.05064 c 0.282077,-0.0851 0.504185,-0.308577 0.587044,-0.591695 0.105633,-0.01471 0.190303,-0.09481 0.21084,-0.199471 0.0037,-0.01457 0.0062,-0.02944 0.0072,-0.04444 3e-6,-6.89e-4 3e-6,-0.0014 0,-0.0021 0.0028,-0.03316 -0.0011,-0.06654 -0.01137,-0.09819 -0.03213,-0.09255 -0.115363,-0.157799 -0.212907,-0.166915 -0.08783,-0.275086 -0.307982,-0.492014 -0.585494,-0.574125 -0.0054,-0.102395 -0.07282,-0.191097 -0.170016,-0.223759 -0.131128,-0.04249 -0.271908,0.02917 -0.314709,0.160197 l -0.02274,0.06821 c -0.13716,0.0425 -0.260314,0.116957 -0.359668,0.216007 -0.100465,0.100157 -0.176542,0.224928 -0.219108,0.363802 l -0.05271,0.01809 c -0.03101,0.01136 -0.05946,0.02875 -0.08372,0.05116 -0.0039,0.003 -0.0077,0.0061 -0.01137,0.0093 -8.7e-4,0.001 -0.0017,0.0021 -0.0026,0.0031 -0.01129,0.01223 -0.02133,0.02556 -0.02997,0.03979 -0.0029,0.0042 -0.0056,0.0085 -0.0083,0.01292 -0.0076,0.01435 -0.01388,0.0294 -0.0186,0.04496 -0.0019,0.0051 -0.0036,0.01028 -0.0052,0.0155 -0.0036,0.01561 -0.0057,0.03153 -0.0062,0.04754 -6.29e-4,0.0043 -0.0011,0.0086 -0.0016,0.01292 1.57e-4,0.0016 3.29e-4,0.0031 5.16e-4,0.0047 -2.75e-4,0.0041 -4.47e-4,0.0083 -5.16e-4,0.0124 z m 0.350366,0.211357 0.109554,-0.03824 -0.04444,0.134876 c -0.0032,0.01222 -0.0054,0.02465 -0.0067,0.03721 -0.02364,-0.04218 -0.04331,-0.08712 -0.05839,-0.133842 z m 0.03256,-0.540019 c 0.03699,-0.08045 0.08755,-0.153177 0.149345,-0.214974 0.06153,-0.06153 0.133998,-0.111828 0.21394,-0.148828 l -0.08888,0.268717 z m 0.312126,0.959631 c 0.01381,-0.0016 0.02747,-0.0044 0.04082,-0.0083 l 0.128674,-0.04444 -0.03669,0.110588 c -0.04647,-0.01503 -0.09085,-0.03445 -0.132808,-0.05788 z m 0.556555,-1.259871 0.03204,-0.09715 c 0.03962,0.0126 0.0778,0.02879 0.114205,0.04754 -0.0052,0.0012 -0.01038,0.0026 -0.0155,0.0041 z m 0.112655,1.288293 0.09457,-0.286804 0.28267,-0.09767 c -0.07281,0.170934 -0.208098,0.308267 -0.377237,0.384472 z m 0.291971,-0.883667 0.04444,-0.135392 c 0.002,-0.007 0.0038,-0.01405 0.0052,-0.02119 0.0214,0.03823 0.03979,0.07835 0.05426,0.120406 z"
         sodipodi:nodetypes="ccccccccccccccccccccccccccccccscccccccccccccccccccscccccccccccccccccccccc" />
    </g>
    <text
       xml:space="preserve"
       style="font-size:1.05833px;line-height:1.25;font-family:Caladea;-inkscape-font-specification:Caladea;font-variant-ligatures:none;text-align:end;text-anchor:end;fill:#ffffff;stroke-width:0.264583"
       x="26.342812"
       y="35.337708"
       id="text126"><tspan
         sodipodi:role="line"
         id="tspan126"
         style="font-style:normal;font-variant:normal;font-weight:bold;font-stretch:normal;font-size:1.05833px;font-family:Consolas;-inkscape-font-specification:'Consolas Bold';fill:#ffffff;stroke-width:0.264583"
         x="26.342812"
         y="35.337708">X</tspan></text>
    <g
       id="g435">
      <path
         style="fill:none;stroke:#000000;stroke-width:0.1;stroke-linecap:butt;stroke-linejoin:miter;stroke-dasharray:none;stroke-opacity:1"
         d="M 4.9999999,1 V 33.000001"
         id="path5"
         sodipodi:nodetypes="cc" />
      <path
         style="fill:none;stroke:#808080;stroke-width:0.1;stroke-linecap:butt;stroke-linejoin:miter;stroke-dasharray:none;stroke-opacity:1"
         d="M 20.999999,1 V 33.000001"
         id="path10"
         sodipodi:nodetypes="cc" />
      <path
         style="fill:none;stroke:#808080;stroke-width:0.1;stroke-linecap:butt;stroke-linejoin:miter;stroke-dasharray:none;stroke-opacity:1"
         d="M 24.999999,1 V 33.000001"
         id="path11"
         sodipodi:nodetypes="cc" />
      <path
         style="fill:none;stroke:#808080;stroke-width:0.1;stroke-linecap:butt;stroke-linejoin:miter;stroke-dasharray:none;stroke-opacity:1"
         d="M 1,25.000001 H 28.999999"
         id="path62"
         sodipodi:nodetypes="cc" />
      <path
         style="fill:none;stroke:#000000;stroke-width:0.1;stroke-linecap:butt;stroke-linejoin:miter;stroke-dasharray:none;stroke-opacity:1"
         d="M 1,4.999995 H 28.999999"
         id="path4"
         sodipodi:nodetypes="cc" />
      <path
         style="fill:none;stroke:#808080;stroke-width:0.1;stroke-linecap:butt;stroke-linejoin:miter;stroke-dasharray:none;stroke-opacity:1"
         d="M 28.999999,1 V 33.000001"
         id="path6"
         sodipodi:nodetypes="cc" />
      <path
         style="fill:none;stroke:#808080;stroke-width:0.1;stroke-linecap:butt;stroke-linejoin:miter;stroke-dasharray:none;stroke-opacity:1"
         d="M 8.9999995,1 V 33.000001"
         id="path7"
         sodipodi:nodetypes="cc" />
      <path
         style="fill:none;stroke:#808080;stroke-width:0.1;stroke-linecap:butt;stroke-linejoin:miter;stroke-dasharray:none;stroke-opacity:1"
         d="M 13,1 V 33.000001"
         id="path8"
         sodipodi:nodetypes="cc" />
      <path
         style="fill:none;stroke:#808080;stroke-width:0.1;stroke-linecap:butt;stroke-linejoin:miter;stroke-dasharray:none;stroke-opacity:1"
         d="M 16.999999,1 V 33.000001"
         id="path9"
         sodipodi:nodetypes="cc" />
      <path
         style="fill:none;stroke:#808080;stroke-width:0.1;stroke-linecap:butt;stroke-linejoin:miter;stroke-dasharray:none;stroke-opacity:1"
         d="M 1,8.999995 H 28.999999"
         id="path12"
         sodipodi:nodetypes="cc" />
      <path
         style="fill:none;stroke:#808080;stroke-width:0.1;stroke-linecap:butt;stroke-linejoin:miter;stroke-dasharray:none;stroke-opacity:1"
         d="M 1,12.999995 H 28.999999"
         id="path13"
         sodipodi:nodetypes="cc" />
      <path
         style="fill:none;stroke:#808080;stroke-width:0.1;stroke-linecap:butt;stroke-linejoin:miter;stroke-dasharray:none;stroke-opacity:1"
         d="M 1,16.999995 H 28.999999"
         id="path14"
         sodipodi:nodetypes="cc" />
      <path
         style="fill:none;stroke:#808080;stroke-width:0.1;stroke-linecap:butt;stroke-linejoin:miter;stroke-dasharray:none;stroke-opacity:1"
         d="M 1,20.999995 H 28.999999"
         id="path15"
         sodipodi:nodetypes="cc" />
      <path
         style="fill:none;stroke:#808080;stroke-width:0.1;stroke-linecap:butt;stroke-linejoin:miter;stroke-dasharray:none;stroke-opacity:1"
         d="M 1,29.000001 H 28.999999"
         id="path96"
         sodipodi:nodetypes="cc" />
      <path
         style="fill:none;stroke:#808080;stroke-width:0.1;stroke-linecap:butt;stroke-linejoin:miter;stroke-dasharray:none;stroke-opacity:1"
         d="M 1,1 H 28.999999"
         id="path95"
         sodipodi:nodetypes="cc" />
      <path
         style="fill:none;stroke:#808080;stroke-width:0.1;stroke-linecap:butt;stroke-linejoin:miter;stroke-dasharray:none;stroke-opacity:1"
         d="M 1,1 V 33.000001"
         id="path410"
         sodipodi:nodetypes="cc" />
      <text
         xml:space="preserve"
         style="font-size:0.705556px;line-height:1.25;font-family:Caladea;-inkscape-font-specification:Caladea;font-variant-ligatures:none;text-align:end;text-anchor:end;stroke-width:0.264583"
         x="5.3576012"
         y="0.94379884"
         id="text410"><tspan
           sodipodi:role="line"
           id="tspan410"
           style="font-style:normal;font-variant:normal;font-weight:normal;font-stretch:normal;font-size:0.705556px;font-family:Consolas;-inkscape-font-specification:Consolas;stroke-width:0.264583"
           x="5.3576012"
           y="0.94379884">0</tspan></text>
      <text
         xml:space="preserve"
         style="font-size:0.705556px;line-height:1.25;font-family:Caladea;-inkscape-font-specification:Caladea;font-variant-ligatures:none;text-align:end;text-anchor:end;stroke-width:0.264583"
         x="9.3731041"
         y="0.94999999"
         id="text411"><tspan
           sodipodi:role="line"
           id="tspan411"
           style="font-style:normal;font-variant:normal;font-weight:normal;font-stretch:normal;font-size:0.705556px;font-family:Consolas;-inkscape-font-specification:Consolas;stroke-width:0.264583"
           x="9.3731041"
           y="0.94999999">4</tspan></text>
      <text
         xml:space="preserve"
         style="font-size:0.705556px;line-height:1.25;font-family:Caladea;-inkscape-font-specification:Caladea;font-variant-ligatures:none;text-align:end;text-anchor:end;stroke-width:0.264583"
         x="13.346922"
         y="0.94379884"
         id="text412"><tspan
           sodipodi:role="line"
           id="tspan412"
           style="font-style:normal;font-variant:normal;font-weight:normal;font-stretch:normal;font-size:0.705556px;font-family:Consolas;-inkscape-font-specification:Consolas;stroke-width:0.264583"
           x="13.346922"
           y="0.94379884">8</tspan></text>
      <text
         xml:space="preserve"
         style="font-size:0.705556px;line-height:1.25;font-family:Caladea;-inkscape-font-specification:Caladea;font-variant-ligatures:none;text-align:end;text-anchor:end;stroke-width:0.264583"
         x="17.729328"
         y="0.94999999"
         id="text413"><tspan
           sodipodi:role="line"
           id="tspan413"
           style="font-style:normal;font-variant:normal;font-weight:normal;font-stretch:normal;font-size:0.705556px;font-family:Consolas;-inkscape-font-specification:Consolas;stroke-width:0.264583"
           x="17.729328"
           y="0.94999999">12</tspan></text>
      <text
         xml:space="preserve"
         style="font-size:0.705556px;line-height:1.25;font-family:Caladea;-inkscape-font-specification:Caladea;font-variant-ligatures:none;text-align:end;text-anchor:end;stroke-width:0.264583"
         x="21.729328"
         y="0.94379884"
         id="text414"><tspan
           sodipodi:role="line"
           id="tspan414"
           style="font-style:normal;font-variant:normal;font-weight:normal;font-stretch:normal;font-size:0.705556px;font-family:Consolas;-inkscape-font-specification:Consolas;stroke-width:0.264583"
           x="21.729328"
           y="0.94379884">16</tspan></text>
      <text
         xml:space="preserve"
         style="font-size:0.705556px;line-height:1.25;font-family:Caladea;-inkscape-font-specification:Caladea;font-variant-ligatures:none;text-align:end;text-anchor:end;stroke-width:0.264583"
         x="25.729328"
         y="0.94379884"
         id="text415"><tspan
           sodipodi:role="line"
           id="tspan415"
           style="font-style:normal;font-variant:normal;font-weight:normal;font-stretch:normal;font-size:0.705556px;font-family:Consolas;-inkscape-font-specification:Consolas;stroke-width:0.264583"
           x="25.729328"
           y="0.94379884">20</tspan></text>
      <text
         xml:space="preserve"
         style="font-size:0.705556px;line-height:1.25;font-family:Caladea;-inkscape-font-specification:Caladea;font-variant-ligatures:none;text-align:end;text-anchor:end;stroke-width:0.264583"
         x="0.96825904"
         y="9.4502745"
         id="text416"><tspan
           sodipodi:role="line"
           id="tspan416"
           style="font-style:normal;font-variant:normal;font-weight:normal;font-stretch:normal;font-size:0.705556px;font-family:Consolas;-inkscape-font-specification:Consolas;stroke-width:0.264583"
           x="0.96825904"
           y="9.4502745">4</tspan></text>
      <text
         xml:space="preserve"
         style="font-size:0.705556px;line-height:1.25;font-family:Caladea;-inkscape-font-specification:Caladea;font-variant-ligatures:none;text-align:end;text-anchor:end;stroke-width:0.264583"
         x="0.99065214"
         y="13.444078"
         id="text417"><tspan
           sodipodi:role="line"
           id="tspan417"
           style="font-style:normal;font-variant:normal;font-weight:normal;font-stretch:normal;font-size:0.705556px;font-family:Consolas;-inkscape-font-specification:Consolas;stroke-width:0.264583"
           x="0.99065214"
           y="13.444078">8</tspan></text>
      <text
         xml:space="preserve"
         style="font-size:0.705556px;line-height:1.25;font-family:Caladea;-inkscape-font-specification:Caladea;font-variant-ligatures:none;text-align:end;text-anchor:end;stroke-width:0.264583"
         x="0.99065214"
         y="17.450279"
         id="text418"><tspan
           sodipodi:role="line"
           id="tspan418"
           style="font-style:normal;font-variant:normal;font-weight:normal;font-stretch:normal;font-size:0.705556px;font-family:Consolas;-inkscape-font-specification:Consolas;stroke-width:0.264583"
           x="0.99065214"
           y="17.450279">12</tspan></text>
      <text
         xml:space="preserve"
         style="font-size:0.705556px;line-height:1.25;font-family:Caladea;-inkscape-font-specification:Caladea;font-variant-ligatures:none;text-align:end;text-anchor:end;stroke-width:0.264583"
         x="0.99065214"
         y="21.450279"
         id="text419"><tspan
           sodipodi:role="line"
           id="tspan419"
           style="font-style:normal;font-variant:normal;font-weight:normal;font-stretch:normal;font-size:0.705556px;font-family:Consolas;-inkscape-font-specification:Consolas;stroke-width:0.264583"
           x="0.99065214"
           y="21.450279">16</tspan></text>
      <text
         xml:space="preserve"
         style="font-size:0.705556px;line-height:1.25;font-family:Caladea;-inkscape-font-specification:Caladea;font-variant-ligatures:none;text-align:end;text-anchor:end;stroke-width:0.264583"
         x="0.98031682"
         y="25.444078"
         id="text420"><tspan
           sodipodi:role="line"
           id="tspan420"
           style="font-style:normal;font-variant:normal;font-weight:normal;font-stretch:normal;font-size:0.705556px;font-family:Consolas;-inkscape-font-specification:Consolas;stroke-width:0.264583"
           x="0.98031682"
           y="25.444078">20</tspan></text>
      <text
         xml:space="preserve"
         style="font-size:0.705556px;line-height:1.25;font-family:Caladea;-inkscape-font-specification:Caladea;font-variant-ligatures:none;text-align:end;text-anchor:end;stroke-width:0.264583"
         x="0.96825898"
         y="29.450279"
         id="text421"><tspan
           sodipodi:role="line"
           id="tspan421"
           style="font-style:normal;font-variant:normal;font-weight:normal;font-stretch:normal;font-size:0.705556px;font-family:Consolas;-inkscape-font-specification:Consolas;stroke-width:0.264583"
           x="0.96825898"
           y="29.450279">24</tspan></text>
      <text
         xml:space="preserve"
         style="font-size:0.705556px;line-height:1.25;font-family:Caladea;-inkscape-font-specification:Caladea;font-variant-ligatures:none;text-align:end;text-anchor:end;stroke-width:0.264583"
         x="0.99065214"
         y="33.450279"
         id="text422"><tspan
           sodipodi:role="line"
           id="tspan422"
           style="font-style:normal;font-variant:normal;font-weight:normal;font-stretch:normal;font-size:0.705556px;font-family:Consolas;-inkscape-font-specification:Consolas;stroke-width:0.264583"
           x="0.99065214"
           y="33.450279">28</tspan></text>
      <path
         style="fill:none;stroke:#808080;stroke-width:0.1;stroke-linecap:butt;stroke-linejoin:miter;stroke-dasharray:none;stroke-opacity:1"
         d="M 1,33.000001 H 28.999999"
         id="path422"
         sodipodi:nodetypes="cc" />
      <text
         xml:space="preserve"
         style="font-size:0.705556px;line-height:1.25;font-family:Caladea;-inkscape-font-specification:Caladea;font-variant-ligatures:none;text-align:end;text-anchor:end;stroke-width:0.264583"
         x="29.725193"
         y="0.94999999"
         id="text434"><tspan
           sodipodi:role="line"
           id="tspan434"
           style="font-style:normal;font-variant:normal;font-weight:normal;font-stretch:normal;font-size:0.705556px;font-family:Consolas;-inkscape-font-specification:Consolas;stroke-width:0.264583"
           x="29.725193"
           y="0.94999999">24</tspan></text>
      <text
         xml:space="preserve"
         style="font-size:0.705556px;line-height:1.25;font-family:Caladea;-inkscape-font-specification:Caladea;font-variant-ligatures:none;text-align:end;text-anchor:end;stroke-width:0.264583"
         x="0.98031688"
         y="5.4564757"
         id="text435"><tspan
           sodipodi:role="line"
           id="tspan435"
           style="font-style:normal;font-variant:normal;font-weight:normal;font-stretch:normal;font-size:0.705556px;font-family:Consolas;-inkscape-font-specification:Consolas;stroke-width:0.264583"
           x="0.98031688"
           y="5.4564757">0</tspan></text>
    </g>
    <text
       xml:space="preserve"
       style="font-size:1.76389px;line-height:1.25;font-family:Caladea;-inkscape-font-specification:Caladea;font-variant-ligatures:none;text-align:end;text-anchor:end;stroke-width:0.264583"
       x="7.6524839"
       y="36.984497"
       id="text22-4"><tspan
         sodipodi:role="line"
         id="tspan22-8"
         style="font-style:normal;font-variant:normal;font-weight:normal;font-stretch:normal;font-size:1.76389px;font-family:Consolas;-inkscape-font-specification:Consolas;stroke-width:0.264583"
         x="7.6524835"
         y="36.984497">Path 0:</tspan></text>
    <rect
       style="fill:#ff6666;fill-opacity:1;stroke:#000000;stroke-width:0.0999998;stroke-linecap:round;stroke-linejoin:round;stroke-dasharray:none"
       id="rect22-3"
       width="1.1320002"
       height="1.132"
       x="7.8793879"
       y="35.817757" />
    <rect
       style="fill:#6666ff;fill-opacity:1;stroke:#000000;stroke-width:0.0999998;stroke-linecap:round;stroke-linejoin:round;stroke-dasharray:none"
       id="rect23"
       width="1.1320002"
       height="1.132"
       x="9.6405554"
       y="35.817757" />
    <text
       xml:space="preserve"
       style="font-size:1.76389px;line-height:1.25;font-family:Caladea;-inkscape-font-specification:Caladea;font-variant-ligatures:none;text-align:end;text-anchor:end;stroke-width:0.264583"
       x="7.6524839"
       y="38.984497"
       id="text23-6"><tspan
         sodipodi:role="line"
         id="tspan23-1"
         style="font-style:normal;font-variant:normal;font-weight:normal;font-stretch:normal;font-size:1.76389px;font-family:Consolas;-inkscape-font-specification:Consolas;stroke-width:0.264583"
         x="7.6524835"
         y="38.984497">Path 1:</tspan></text>
    <rect
       style="fill:#ffff00;fill-opacity:1;stroke:#000000;stroke-width:0.0999998;stroke-linecap:round;stroke-linejoin:round;stroke-dasharray:none"
       id="rect24-1"
       width="1.1320002"
       height="1.132"
       x="7.8793879"
       y="37.817757" />
    <rect
       style="fill:#ff66ff;fill-opacity:1;stroke:#000000;stroke-width:0.0999998;stroke-linecap:round;stroke-linejoin:round;stroke-dasharray:none"
       id="rect25"
       width="1.1320002"
       height="1.132"
       x="9.6405554"
       y="37.817757" />
    <rect
       style="fill:#66ff33;fill-opacity:1;stroke:#000000;stroke-width:0.0999998;stroke-linecap:round;stroke-linejoin:round;stroke-dasharray:none"
       id="rect26"
       width="1.1320002"
       height="1.132"
       x="11.401723"
       y="37.817757" />
    <rect
       style="fill:#ccffb3;fill-opacity:1;stroke:#000000;stroke-width:0.0999998;stroke-linecap:round;stroke-linejoin:round;stroke-dasharray:none"
       id="rect27"
       width="1.1320002"
       height="1.132"
       x="13.162889"
       y="37.817757" />
    <rect
       style="fill:#b300ff;fill-opacity:1;stroke:#000000;stroke-width:0.0999998;stroke-linecap:round;stroke-linejoin:round;stroke-dasharray:none"
       id="rect28"
       width="1.1320002"
       height="1.132"
       x="14.924054"
       y="37.817757" />
    <rect
       style="fill:#33ffff;fill-opacity:1;stroke:#000000;stroke-width:0.0999998;stroke-linecap:round;stroke-linejoin:round;stroke-dasharray:none"
       id="rect29"
       width="1.1320002"
       height="1.132"
       x="16.685219"
       y="37.817757" />
  </g>
</svg>
